<mxfile host="app.diagrams.net" modified="2024-02-01T06:35:52.683Z" agent="Mozilla/5.0 (Windows NT 10.0; Win64; x64) AppleWebKit/537.36 (KHTML, like Gecko) Chrome/121.0.0.0 Safari/537.36" etag="nD5cxyBbMoj7n1f8C9Wh" version="22.1.21" type="device">
  <diagram name="Page-1" id="HN1WQ41uH_w2VdHBWVFG">
    <mxGraphModel dx="1434" dy="772" grid="1" gridSize="10" guides="1" tooltips="1" connect="1" arrows="1" fold="1" page="1" pageScale="1" pageWidth="850" pageHeight="1100" math="0" shadow="0">
      <root>
        <mxCell id="0" />
        <mxCell id="1" parent="0" />
        <mxCell id="06gPpPoA7qXJf8cMDLV6-2" value="&lt;b&gt;&lt;font style=&quot;font-size: 14px;&quot;&gt;Test Run &amp;amp; validation Section&lt;/font&gt;&lt;/b&gt;" style="text;html=1;strokeColor=none;fillColor=none;align=center;verticalAlign=middle;whiteSpace=wrap;rounded=0;" vertex="1" parent="1">
          <mxGeometry y="310" width="125" height="40" as="geometry" />
        </mxCell>
        <mxCell id="06gPpPoA7qXJf8cMDLV6-3" value="&lt;b&gt;&lt;font style=&quot;font-size: 14px;&quot;&gt;TPR/TPT mode Switch&lt;/font&gt;&lt;/b&gt;" style="text;html=1;strokeColor=none;fillColor=none;align=center;verticalAlign=middle;whiteSpace=wrap;rounded=0;" vertex="1" parent="1">
          <mxGeometry y="240" width="120" height="30" as="geometry" />
        </mxCell>
        <mxCell id="06gPpPoA7qXJf8cMDLV6-4" value="&lt;b&gt;&lt;font style=&quot;font-size: 14px;&quot;&gt;Input Section&lt;/font&gt;&lt;/b&gt;" style="text;html=1;strokeColor=none;fillColor=none;align=center;verticalAlign=middle;whiteSpace=wrap;rounded=0;" vertex="1" parent="1">
          <mxGeometry y="357" width="120" height="30" as="geometry" />
        </mxCell>
        <mxCell id="06gPpPoA7qXJf8cMDLV6-7" value="&lt;b&gt;&lt;font style=&quot;font-size: 14px;&quot;&gt;Reports&lt;/font&gt;&lt;/b&gt;" style="text;html=1;strokeColor=none;fillColor=none;align=center;verticalAlign=middle;whiteSpace=wrap;rounded=0;" vertex="1" parent="1">
          <mxGeometry y="407.07" width="110" height="30" as="geometry" />
        </mxCell>
        <mxCell id="06gPpPoA7qXJf8cMDLV6-10" value="&lt;b&gt;&lt;font style=&quot;font-size: 14px;&quot;&gt;Settings&lt;/font&gt;&lt;/b&gt;" style="text;html=1;strokeColor=none;fillColor=none;align=center;verticalAlign=middle;whiteSpace=wrap;rounded=0;" vertex="1" parent="1">
          <mxGeometry y="460" width="110" height="30" as="geometry" />
        </mxCell>
        <mxCell id="06gPpPoA7qXJf8cMDLV6-13" value="&lt;b&gt;&lt;font style=&quot;font-size: 14px;&quot;&gt;Tester Connection&lt;/font&gt;&lt;/b&gt;" style="text;html=1;strokeColor=none;fillColor=none;align=center;verticalAlign=middle;whiteSpace=wrap;rounded=0;" vertex="1" parent="1">
          <mxGeometry x="210" y="130" width="120" height="30" as="geometry" />
        </mxCell>
        <mxCell id="06gPpPoA7qXJf8cMDLV6-14" value="&lt;b&gt;&lt;font style=&quot;font-size: 14px;&quot;&gt;Qi Inputs for Test Run&lt;/font&gt;&lt;/b&gt;" style="text;html=1;strokeColor=none;fillColor=none;align=center;verticalAlign=middle;whiteSpace=wrap;rounded=0;" vertex="1" parent="1">
          <mxGeometry x="150" y="670" width="120" height="30" as="geometry" />
        </mxCell>
        <mxCell id="06gPpPoA7qXJf8cMDLV6-15" value="&lt;b&gt;&lt;font style=&quot;font-size: 14px;&quot;&gt;Prepare test list with Phase and offset combination&lt;/font&gt;&lt;/b&gt;" style="text;html=1;strokeColor=none;fillColor=none;align=center;verticalAlign=middle;whiteSpace=wrap;rounded=0;" vertex="1" parent="1">
          <mxGeometry x="415.5" y="130" width="164.5" height="30" as="geometry" />
        </mxCell>
        <mxCell id="06gPpPoA7qXJf8cMDLV6-16" value="&lt;b&gt;&lt;font style=&quot;font-size: 14px;&quot;&gt;Review prepare list of tests before the execution&lt;/font&gt;&lt;/b&gt;" style="text;html=1;strokeColor=none;fillColor=none;align=center;verticalAlign=middle;whiteSpace=wrap;rounded=0;" vertex="1" parent="1">
          <mxGeometry x="630" y="130" width="164.5" height="30" as="geometry" />
        </mxCell>
        <mxCell id="06gPpPoA7qXJf8cMDLV6-17" value="&lt;b&gt;&lt;font style=&quot;font-size: 14px;&quot;&gt;Offline Validation for already ran tests.&amp;nbsp;&lt;/font&gt;&lt;/b&gt;" style="text;html=1;strokeColor=none;fillColor=none;align=center;verticalAlign=middle;whiteSpace=wrap;rounded=0;" vertex="1" parent="1">
          <mxGeometry x="330" y="670" width="140" height="50" as="geometry" />
        </mxCell>
        <mxCell id="06gPpPoA7qXJf8cMDLV6-18" value="&lt;b&gt;&lt;font style=&quot;font-size: 14px;&quot;&gt;Run Tests by APIs, by positions selected with repeat count. Option to choose Tester as DUT&lt;/font&gt;&lt;/b&gt;" style="text;html=1;strokeColor=none;fillColor=none;align=center;verticalAlign=middle;whiteSpace=wrap;rounded=0;" vertex="1" parent="1">
          <mxGeometry x="560" y="670" width="220" height="50" as="geometry" />
        </mxCell>
        <mxCell id="06gPpPoA7qXJf8cMDLV6-20" value="" style="endArrow=classic;html=1;rounded=0;entryX=0.75;entryY=0.672;entryDx=0;entryDy=0;entryPerimeter=0;exitX=0.021;exitY=0.143;exitDx=0;exitDy=0;exitPerimeter=0;fillColor=#e51400;strokeColor=#B20000;" edge="1" parent="1">
          <mxGeometry width="50" height="50" relative="1" as="geometry">
            <mxPoint x="147" y="329" as="sourcePoint" />
            <mxPoint x="97" y="329" as="targetPoint" />
          </mxGeometry>
        </mxCell>
        <mxCell id="06gPpPoA7qXJf8cMDLV6-31" value="" style="shape=image;verticalLabelPosition=bottom;labelBackgroundColor=default;verticalAlign=top;aspect=fixed;imageAspect=0;image=data:image/png,iVBORw0KGgoAAAANSUhEUgAABB8AAAKrCAYAAAC5syXxAAAAAXNSR0IArs4c6QAAAARnQU1BAACxjwv8YQUAAAAJcEhZcwAADsMAAA7DAcdvqGQAAABjaVRYdFNuaXBNZXRhZGF0YQAAAAAAeyJjbGlwUG9pbnRzIjpbeyJ4IjowLCJ5IjowfSx7IngiOjEwNTUsInkiOjB9LHsieCI6MTA1NSwieSI6NjgzfSx7IngiOjAsInkiOjY4M31dfR+teKUAAP82SURBVHhe7N0LfBXlnTfwX8BLbaty8VLUHpIQCG8BraVoxSWYIIihL29jpHZ3CaySQnFDZesSpGiB9YKQpQuFgsaoC6HdWoy47BIplyChYpGldqu4hFsuW4pXtLWt1Sp5n//zPHPOnJM5t+QkOefk9/UzMjPP3M7JZDLPf/7PMxl//OMfWxXI8Oc//xmnT5+GmqeHjz/+WM8ncuM5QUREREREiZKRkWHHKFXIz+ycc87Bpz/9aXzmM59B3759cd555/nLnKFXr16BeQcPHtTBh9/97nc68JCdnY0LL7xQD5/61Kf0gkREREREREREDklekDiCDMePH0e/fv3Qp08ff+BBuIMQGe+//35rY2MjPvnkE3z+85/HueeeqxciIiIiIiIiIormww8/xG9+8xudJT9o0CATbLCBB38A4s0339SBh5ycHAYeiIiIiIiIiCguEkuQoIN44403dBAidOj129/+Vmc8EBERERERERG1l8QWTp06hQ8++CAo8CB6XXzxxcx4ICIiIiIiIqIOkdjCJZdcgnfffTco8CD/9pKeKYmIiIiIiIiIOkpiDH/4wx9w5swZPe0EIRISfPjZz36GqdOmYd49C+0cIiIiIiIiIuppJMbwpz/9SQccJADhBCF6nX322XqkPSSVYs6cOVjxLxWYXL4Br/73L20JEREREREREfU0EmP46KOP9LjT7EICEL30WDstWLAAY2atRuk/78RPnn9dv9OTiIiIiIiIiHo2J/Dg/Nvu4MO3vvUtFJQ9osdXrf5X/a9EON5++209TkRERERERJRO/vjHP+Kdd96JOMgyyebpp5/Gqddft1NtSZkskyiS6SBBB3cAIuP99983U3GQ12Z87Wv/FzNW7MQ/lc/FkMJ78Mmv1qHfJy148skn7VKR/eQnP0Hfvn1x00032TkBzz77rP73a1/7mn5Nx3PPPaenHXfccYf+98CBA3jllVf0uOjXr59ex+3w4cPYt2+fnQq4/PLLPffdEXv37sXJkyfxjW98w85JbtJXh/lZBn9nRERERERE1JYEFy688EL07t3bzgkmle733nsP/fv3t3OSgwQX9jz/PMbecAMGfO5zdq4Rqay9fvGLX+BLX/oSevXqpYeMjIz2ZT7cddddOvAgmvc+rv9998huVFRU6PFYSUVdggtuMn369Gk7ZXz605/WAQcZBg8e7A9OCAkiOGVCAgBuQ4cO9ZfLdm6++WY9Hm/gQfYpgYxI5ET81Kc+FXU5NwnChH4HnUWCNRJwcMh3wMADERERERFR7CTwIJVpryFcUKK7SVBBggsSZHBnQHRG4CGcuIMPjY2NOHToVT0+47rzMX7pUT2enZ2Niy66SI/HSgIHx44ds1OGTMv8cMaMGdMmOOGQQIMEALqDE0CQY29ubtbjRERERERERMkgNADRlYEHEXfwoaqqCnc9GtyM4f0XV+DPf/6znYrdwIEDdfaD29GjR/X8SCSDIZzzzjvPjkUnWQBPPPGEHtwZAZKN4MyXLAbJepCAhzTfkDIvEjSR1JpRo0a1+UyyHTdnWrYlryCRZiVONofsz9m3DJKt4HCmnTLhHKs7G8T9uZzlnCYqcmwyT/YjWSLuTBH35w7dnnu/7jIiIiIiIiJKDe4ARFcGHkTcwYeWlhb9r5P10HrmDP5y8gB+/OMf6/nxkLYy7mYKUsGVZhWRSEVY+orw8qtf/Ur3+xALqXS7m3MIp0Lubsoh2RTSNEG2O3r06LD9OUilPicnR4/L+u6gQTiyLacpiNO/hQQ4nKYhMkjAwPl+hARBZL7sQwIBY8eO1dMS/HGWk+YUzvryfcpnkqDIiBEj/J9NPpebBBTcn1uCOO6AjByHU+beFxERERERUXtIf4GxDJQe4g4+hLZhee+Ff0F+fr7uRKI9pBLsVGSPHz/ur8C7SXaA89RdOkh099fgPMmXQSrPUsmOhTTPkCwLZ13ZzltvvYWLL75Yz48leOCQ45cgyoABA/S0V0ZHLH7zm9/oz+BsR0jwQI7L4Xx2CYa4l5WAzPvvv6/HJYjhfC75LLGQoIY0aXFceeWVePfdd+0UdODC4d4XERERERFRe9x+++0xDZQ47qYW7iYYXaFdwYc7vvJZOwWcdfpX+N73vmen4ifBB3mSLpV9dwXezZ2hENpBovtpvbvyHAvJZHDWddaX45FxqYxL5T2WJ/zSx4OzvAySvSDTiepIUr6XWMk+pRmH85miZZJEEs9+iYiIiIiIKHmF9vEQ2gdEZ4s7+CAV7b+53TRTeOnhUVi6dKnu1bMjJIAgaf2hTQE6k/TPECmwIBkG7qwDaYYQ7mm/ZDm4m0rIIJ/J6UxTgifOvkIzKqSC/7vf/U6PX3HFFXpb7qCFZC7I/Hi4+8RwZ2Ccf/75OnPEi2RSuPt/+PWvf510r4chIiIiIiLqbvI6zXAilXWncJ1LdmYAorW1VX8f8q+IO/iwatUqvHrwv/T4d77zD/jyl7+sxztCMg6kwtyVwQcnS8LJVpBBKv1SAXempeLuLCeVcwmQhHY4KcEEKQvN2HA3vRg0aJDOhpBtSkaEm1TwpUz6XJBtSDaGZC44xyDTXtkg4ciyEtBw1nf3jyHfb7iMDskokeN11hPxZpIQERERERGlM6lrvffee7oZv9cgTdeTMYP8hZ//vE3gweEEIGSZzpTx/vvvmzBEHH7/+9/rJ/ts909EREREREREbr/4xS9w9dVX61YS0nWD9BHZrl4izz33XDtGRERERERERBRZu4MPTmo+EREREREREVEk7Qo+iClTptgxIiIiIiIiIqLw2h18ICIiIiIiIiKKBYMPRERERERERNSpGHwgIiIiIiIiok7F4AMRERERERERdSoGH4iIiIiIiIioUzH4QERERERERESdisEHIiIiIiIiIupUGYNyp7bacUoCn3y8344RERERERERpZ7HHlmLq6++GhkZGejduzd69erFzAciIiIiIiIi6lwMPhARERERERFRQrW2mkYW8q8MDD4QERERERERUadi8IGIiIiIiIiIOhU7nEwyXh1OLij/RztGRJTcli7/ZzsWwGsYEXU3XpuIiDqP1zVWOpz84he/aDqadAZbRkRERERERETUKRh8ICIiIiIiIqJOxeADEREREREREXUqBh+IiIiIiIiIqFMx+EBEREREREREnYrBByIiIiIios4yaDxmzpyJ8YPsNFEPxVdtJhm+ajN9DBo/E+Oy7MS7L+PpTQdw2k52N31sfTyOqd8oTLn1avS1kwHv4uWnN+FAnB8g7H4obfF1dt3I6/e3cRcqdxy3E0mqu687Hvt/9+WnsSneHbul6s8ijfHaRJ2nH0ZNuRVX923ErsodCPyWD8L4meOQJb/7J7IxU90UNu6qREIvA7xvoyTBV20SdRv5IySBB7nwV6KyUg2/7INxo/rZ8iR2+gA2yfFWPo2X31XTEjTR0/H/ASOi7iEVZ7nuPC2/xFnjMCXZrz1Jct1xvjcZOhR4cAn9WfCpJ1E6Oo3jTXLxykK2+3d8ULaaAzSeOA4c36GvBQmPP/K+jVJM734XXbnYjlMSaD1z0o4FjLl+tB2jlNBvOK4fOQB/fnmr+iPzgZn37gm89ls7Lql3U27EyJEj9ZDdq9GUSfS65Hp8ptfl+OpXbXm/93DwhPprEqlM6PKv4q9Ct6mLpqDkq39l57+Hz1w/BaMHqILzBuALal6/9w7C2UzAebh82BcwAK/jtdd+C3vkEfYjAZcSfPWvzPx+7zWi/40l3vsJuw15QjAFg/r1w4033hj0GSh1/PyFfXYsgNewLnLe5Rj2BfVL9/pr+nfngz9/Btn+6cu8f7+i/D7eaOePzO6FRrkWRLwWhfkdjnB9CtZZ153Q5UKueSHfW5Bw1+to16uQbZ53+TB8YcCf0fTL1/Dby8w2/ceh9zESvRpV2XmRvl/qCF6bqDM519sBGYHf10FfVteGvo345c4TeNdeS6LdC0nmwZQb++G9g2od5zrsXH+da97lXteETrxvI4qB1zV28lcn4XOf+xwyMjL8AzMfiBKs36BMnf723mmPkLP8ERiXFfQ0rO/Vt7qehvXF1Znv6ai1eVL2JQQeWoYpk23eejXe22We2FU+/TLgbFP9sbv16r46zU+i4k2Z2Ti9qRK7GlWZjY7HHIWPsJ9+o8bZdENTtuP4aRzw2k+kY7WysqC3k6gnj0Q9lde1KOj3K9LvY793cVDmySC/yH2vxsiw16ngJ/ox7yMWCbjutF3ObDoq2XfE63X065UsL+281UeIIwU60t8BIkpKpw/gl3LtycqGuUQMQrZJe3A1w7AiXNeOn5CN9EE/fX/XT40pffvoa7m6qCNTjbz7XowRgQRcP4kSjcEHoi5kKgPvokld5MXp401qSv2Z0X9ljHebjut2dqdPv6f+3xd9XA35PMvsH6WscTP1Te5M9YdGpmWbg8xfPkjGn1pL/WFxt0WMU4T9mOPJwrhonSlF2Ibj3ZcPtv8YichV4VVXG1Vxdt9ABv1+Rfp9PN0XI2WeDP7OawL81yKva1is+4hFAq47sS7nfG8y6JvzWK7XUa5XOnChbvjfVVu6OhC9iSrS3wEiSk4mcGCbXugmF+/i5YMeV4hI18V339PXi8xBalyWa2xUd3F2m3q9wDUpqgRcP4kSjcEHogQzF/Q4bq4TxGQ3BIbOyhzw3I9uy2jaG8ofuWhtzLvqWIl6IudJfay/W16/j4PGj1O3pfapmH4U1jEd/Z3v0HUnxuXc31tCn/i1eSJKRGnp+Al11ZRf9VEY9aUsiSIiUpzA87p2+jik+4i+ffrqB0iNJ3ZAYhpyT6kfKEXZppcOXT+JOqC1NfBeCxmXgcEHokQ7flBfzPtePTJwoympb+MHtXmKFfpkrV10lFz+2LW9rTWpeYEOkAaNHx84JhsRj1mE/fQbNR6j+klmxS79h1f+aPq59xNhG0TUxWL8fezXTyf+BumbOQhyqxqxmZno6O98Aq47EZeLIJHX66AnovYzmQB1P1NJIaI0cFwHCpB1Na5W1w0ng6mNiNdF23lln2xk93kXchsn93J9M0eq6Qjb9JKA6ydRojH4QJRwcjGXaLJJZzOpbn3wS3mUdnyHbsPrpMCZ/hg62COx9HQsTyazxpl96WGKbiN8+sAm3X7P2d+X3jMpws6NcFzpdhH3cwJ9bpVp+7TUPjZss58I2yCiLhbh9/H4QWkqYH53b81U97B2Fce7yMStUiZ32I27wmcKdPR3PgHXnXDLRZXI67X/iag+IJ0JYZp53Io+TfJdE1E6MNcfESFQGeW6qJt49c1CVt/3IHHdwHScwc8EXD+JEi1jUO7UQD4EdbtPPt5vxwL4HmoiShV8l36asx2Y4eWn4246QdSdeG0iIuo8XtfYynU/xNVXX41evXqZN12of5n5QERERERERESdisEHIiIiio2k8TodlhERERHFgcEHIiIiIiIiIupUDD4QERERERERUadi8IGIiIiIiIiIOhXfdpFkvN52cVH//naMiCi5vf3OO3YsgNcwIupuvDYREXUer2ss33ZBRERERERERF2OwQciIiIiIiIi6lQMPhARERERERFRp2LwgYiIiIiIiIg6FYMPRERERERERNSpGHwgIiIiIiIiok7F4AMRERERERERJdSZM2fQ2tpqpxh8ICIiIiIiIqJOljEod2ogFEHd7pOP99uxgIv697djAc3N/LFRcrj33vmorl6OA/tftHPSw6hrr7NjFI+333nHjgV4XcOIiLoSr009D++ViRLHud8Px+saW7nuh7jqqqvQu3dv9OrVSw8MPiSZeIIPF/QZbKeIus+3y25h8IH8eINPRMmI16aeR+6VpcLUXnfNuQWqnmSniNLHscPVdiw2GRkZWLX6GQYf0hGDD5RqGHwgt665wZ+IFfsXIQ97sfjacmy1c7vfEMzZtB7TfC3YMO02rG6ws6kHStZztOfq2demnskJPvxgzTN2TnyON2xk8IHSkgQfjhw5Yqeiy83NTVjwgX0+EBFR18tVN+mbntJBKz1sWo45ubYsSU2qsMfqGmrUcU9K8uOmduI5GkIq1rJNtT07x1usyyUp/txD9JCfOxF1CQYfiIioi6mb1A2LkOfz2WnFNwbTHrgT3XGPn1tmKho1ZUPsHC9DkJ1pR1186rgXb3gq6SsnFC+eo7GI7bhSCX/usUi/nzsRdRUGH4iIqGsVFiBP/m2pxtRrr9NNXKYuqUaLLkx+9UvMMY+atgT1+qB9uGE8b8LTCs9RD9twt/4uojUniHW5JMSfu4ce8HMnoi7D4AMREXWt403mZt5XgofKJuonig21a1E8ZS383STkTsSceFKfoy4/BHMqAuU1FbJf6aPhRWwsMU85fSXrddmKQj0ZG/uAtOlEcNvJzPHLURPmWCaVPRUo8yjPLQte1586HeUzeq9nPuOB/czOiEtan6NDMEntx30O1my6MyhF3/tccqfVRzour/T7aPu056nMC9l3l57j/Lkn5c89WPt+3hnDpmDH4Wrd1l2GHfPsF6REKiOixGLwIU1kDBuNym3mollZZGdaclF1yvSwbS6Kh9lCxay7PGy5l0j7EyOKgve5Y90UjLBl7nXNsFxtw/tCn6H+et4TtKwd1o22S7QV7fNS13luVobuIVcP16/CMTs/GehjS7Jj6jEa1uIJ81hO3bwuwka5IdU33A6T+jwtNPV5g/um1i3a8nKzuh7T8gLlvrxFmBnPjbxL3iJ7gyzp2XrOXtTV6hHLh7ySMc69vzkWf9r2RBSoG/egK567vHC5urFX67bsRX29GjAQ2XqhKJ8x7HrULml7jpr9LFb7cZ+DPlXZXtxp51IM+3TIvHC/O11xjvPnnnw/9wTIwGg8WjMZeHwhcoaWoOjxU8iaUYZ71L1hpDIiSjwGH9LAiHnLcbRmNgo82vxJRXy7uqgGlWWOxLIVJhhgymXdAaZMuMq9RNqfyCiai81Lg/eZlX+5+jPkXORD1x2AgqWJudBH+7zUVY5h1fUZKKwcjZVHW9HaqoZ7X8P0Vazqk7F13m2YqlOD7Y2+uuHe6Dwxa5P6PB2L62XGGBR43ZRHW76wVN38y/ReLJ7mlMt+j2D1lOswtdocQ0v1dFV2He4OCiRE0oKW+mq1zbZpxi3VS8yxTLMp275M5OiSE6hcYstsuT5Uf3lAXVU57p5i35oRx3cStJ79jKOu5ds34pWW52jujbghaD9qkM8os6KeS25xHFec+wz/uxPQmec4f+7J+3M32vHzLroGBTiFXbXmuF+tPYBGde85rlAdYKQyIko4Bh9SnGQGTBqn/lA8vg5Vu+1Ml+GFo5AlI7vXoWhoCQYXr0OdTGeOwiSnst90EPOLS0zEd8FBM89d7hJtf1I+f9ZIPd5oo8h6u8XPoEZmDrvcHI/sU45n6EJUNcmMAciO2CzRLO9sL2f2Pjs/WEyflzrfsa34qfoRjV65Hnc5dw83P4oXnInnZgUyItRwvROUOLYK12dcj1WrXOWznoteJnS5na8G/zaVY6uud81/zgZGVMG+uRis5rk3Q12noWGbvsGVG9IN+r5vDO4oG4Lc7IG6XJ6GyZPHA/vl6ZmZ5SXm5evrsNVWVqSCEfuNfDB/u2p181s8b63dplsLnt+xzaRpN5yAvsT5HQGyC/CQThuWJ5QlpnLiqC03lQ+fdBanyiX1Wc2O+hnDrEcdk3bn6KBM83TZvx9FfcY6UyM0En0uxbJPvwi/O114jvPnnkQ/9wQYnnOZHWsrUhkRJR6DDymuVV2wH55YjpkV+3DUzvPSqIZX1NB6aB9+poMGprLfemgTxk9ciZpDMg949chJvSzwWxy189yi7m/YtRgnWQdNW/CdCv0XW3vlkB0/ZLefeRkGS1OLYVfYXpoP4meb5d9wRmJZHM0own1e6hrHtv4UEh4aPsTjuYUECVTNf/TKozoj4ujK0dg3d7ArALAPc3/6BRy1Zah8AIE4Qpgy2ebguRhea7Msjq4EnG0+NwuD5+7DTF12FF//6bMY8kIrameqstEr9bYevVm2TV1FekrXqcxOTq262XTfbTacaDYj/qeFgcHrpjzm5TML/G3Epd+FuNpPJ4pNbUbTEnOMTuaDi1Q+9BNQebqoKgJS6YnlM3qtR+2T9udonrMfJXciCkIqxJ1yLkXZZyw6+xznzz05f+5ElD4YfEhzrx77rf43K3+2vw+EZfl6lqdbyibrzIHGx22mQryG2MwGXI45QX0+mD4aWlXlcVbxFp3SVrr0QdN8Q7IailfGvj9pRlEzF8V20i3ez0tdzwQmRuPrk0xgImfS19WUBL4CmQqjvz5Jp1vmDBmu/r8Pr7kiXZ5lR19TY0Bloc18GDxXT8s2n3tWUhxm4ms6wJCDu154FIw1dD+dyixP1+zTwGn6hnQvnlhzBKitMxVy/9NCZwjzJC7a8v5y+0RPnj7aDtPc2tWpWzvJ59fHGJL5oDt827QcKypKUTDWdYxRPmPY9XS7a1mOHU7GKy3P0doq/5N8sx81OP0DqApypaoQhz+Xwot4XDHsMxZddY7z555cP/e2eE0jSqTc3NywQ2dg8CHNtW5eiaLHD9psBqXpFBrD5LNJXw66or57XVDWQrtkjgzp82G2v2PK4UMuNyNyLHokfJ8MJtMi0NyiaIEELsRlGOyR/RDP56XOYwIDwQGFrmCyGwKDv5kHJZWGNffp9F73VSa474RtuFvaBts219FFW94pt5NKS/0S/81vw5onXWUtaDpuRzuDuiHXqc0O3bmbHVcadqgLlqqI5OWpQd3/y3F+Vyo9UT5j+PWoPdL3HD2C1fcuwQb3jtT2ZF9T7Rsd4jmXYjuu6PuMRVec4/y5J9/PPRFC+3EwTXRNPw+Ryoh6goYG79/GcPM7KmNQ7tRWO05J4JOP99uxgIv697djAc3Nrbigz2A7ZRSvM0/56xaUYGaYJgy6T4ZtD6I08xSqisvxsG1aIYGHzTMGmL4SZu/TTRai8dqfdDZ5dOlIVenfgqKJm/R23NsevP0aU67Gpd8GOZ5b1j2otyN9RIyPEvQIHH/kz+kI93kpcb5ddguqq5frpxoB0uHkYMzdNxO1rTbTQJpGVAzBC197FhmFlTpQIM0dpD+GwXOBlUdfwF0wzSfUhAkcSN8QzrKDo5ftm1mL1pA2FGb7ptmFFD03axbw6KPALOn3wXV8ISQtluL39jvv2LEAr2sYEVFX4rWp55F75XvvnY8frHkmcH9qed67Wk7Z8YaNUPUkO5cofUhm+JEjwcFFd6ZDaOBBylatfkbf74fjdY2tXPdDXHXVVejVq5ceevfuzcyHdCeV7xHDTDRXDC+6RVfcnT4dpFxeZSnBAd1BZIyBh7CcPiMyL8eQYWb7Q7J1CRpP/CaoY5/QTIes7CvsWIB+bea60f5lA8d/CiGv1deifV7qKtK84ShWjq5Eoe3oMWPwa7hXav83P6r7a3CaSJjAwAuBjinbI+cuvCCdOFQW+juWzJDOKY9J0Qu6fwdnfw98YZ4ONtz8Nen0wRwfO5wkIiJKX5IZ6++0XA3uh1eRyoh6Cifg0FkZDw5mPiSZeDMfAk/2bYGLRG5nHTGvnjT9MAQ4Ud3QaK+bBCMmVFyhtj/bnzmw7FCU/W0OV27XHxJ+f2b90cH7g/fxBzInYlve+byUeN6ZD6mPmQ/tw6eLRJSMeG3qedyZD+3BzAdKV16ZD5Ew84Fid2g/du0+ZSeUplOqIr6w0yri0kfDsonrUKX249d00N/kQffJsMDVJ4OIcEzyNo7vBC2vln3cNA3x1MWfl4iIiIiIiKLr9MyHiy/ugy+PHIJLLumL4cM8Hpcnmd/85i00HPlfHG74XzQ1vW7ndp2O9PlA1B2Y+UBufLpIRMmI16aeR+6V33qj7X11PJj5QOlIsnrilajMh04JPnzu0n64acKXUXpHIQYMSN0L+6nXT+Ppmj3Y9PQePS6953c2Bh8o1TD4QG68wSeiZMRrU89TUlJux4goEZIu+HD22b0xYfwoLPnedPTp81k7F/jjn/6sswhaWt60c5LXZZf1x2UD+uuMDcfp0++j6ola/OuGn+Gjj/5i53YOBh8o1TD4QG68wSeiZMRrExFR5+ny4MOFF34Gq75fhr+63rzf/4MPPsRTm57HM8/uxWuvNet5qUQyNiRz46uFX0H//hfoeftePITvLfnXTm2OweADpRoGH8iNN/hElIx4bep55F6ZiBJDOm9NmsyHfn3Px6p/KcN1X/mCnt763H6sWl2DEydcHf+lqIsvuhD3LizBhPFfxtln9UZj0+u47W/ux+nTv7dLJBaDD5RqGHwgt3hu8N968w07FpuFCxei8rEqO0XU+XiOpg8GH3oe3isTeZO3XcRDXlWfNH0+fOYzn8KzNfcjK/NzeP8PH2Dtun/HY49vtaXJSb7Az3/+YtyQ90XdGaaT2fDRRx/jv399HDvrfomGhhb85S+f6PlCMjoks0MyPJpb3sD02x/Gb06+bUsTJ9bgA9uxUTKJdDGiniXe4ENzU9C7b8L68jVfwcxvlrJiR12K52j6YPCh52Hwgchbd75qs0PBh969e+G+75Zg6t/eqKe/9ff/gp27fqnHk9VnP3seyu78Gv76tgIdOPHyl798jP0HDuP+B6tx/Phv7Vzguq8Mw6p/+Xud6fHzF17B381IfIUr1uADEVEyak/wQf0dsnPC63vhsfZX7AqX48CiMahfch3urrXzQsWyjJdY12vv9qlbddk5Sp2OwYeeh8EHIm/dGXzoZcva5frRw/H1KTfgk0/O4AdrNid94EGyHP79mft1Xw7hAg/i7LPPwl+pz7Z50z/hb/56nJ0LvPiLQ1j8T+v1+F9dPwITbvyyHiciom6Ueydq9r+om/74h013ItcWt8ekinZsw+s4KibaQurxQs6PmrIhtiBErMsRERGlmA4FHxYu+Fucc85Z+K+DDXj0sf+wc5NTv34X4Mmq+Rjou9TOie7Tnz4Xi783Xff34Kh9bj/2/vwVPV4+7zZccMGn9TgREXWvlurpuq+OUdcuQb2vBBud4EFtuZ4fMeMglmVi5BzH1OoWIG+RqTwmcPuUiiZixYYSwHVu+Erux5w20a1YlyMiIko97Q4+DB+ehUHZl+nxB5f+CB9+2LmvoOwIaWqxcf0CnHfeOXZO7HplZOCfl30LI9TndSxd9mP84Q8f6EDG2Lyr7FwiIkoO23D3kr1QtTbMLFST0uRh/4tYIeMYgjmbAk+V9SBBCv8ypnxxnlpUAhj+9VSlMHQdmR1Bw449aLHjQcegn2w/hTllZp4e/BkSYY7PllKKKixAnjobnt9h0lzNueHDDeNDshpiXY6IiCgFtTv4cMffmRulo8dO4rX/ifwqzYL8qzF71mR8c8akNsOsb34VE28apZtEzCz9qp4nfTIsvm867vzWZHzlmv+jtyHNJGS+s869352qh2/cVoDzzjtXLxNO4cRrkJNzuZ2Kn2RAyPE7jh0/if0v/Y/uuPLvpt1k5xIRUdI43qQr/pnZoZW7Ukzz7cXia6/DqGnVapkWbLh3LRpsMXAEq6dch8X1arSlGlOdbIXcE6iUdWRwBzYiyB0/VlUbgaYTXu0qfZg2tklv32RI3G6ebkc9PkpFudkD7VhksS5HycoJUi7HJDuHiIgC2hV8kMr41VeZDlw2P/tz/W8kgwZdhuklE/Cbk28hd8jnMX/eN/RrOWW68OZrMWTwFTj4y6M4c+aMLrth7Bex+d9/jitHZGPjhu/irjm34I9//LPuU+Jbs/4v/n72/9NNH/7ncItu+lG75SFcemlfu7e2vvMPU3QGQ0eMK/gSBtsAxpkzrXhq0/N6fPiwLN3xJhERpZhBmTo4EJOGbMx0MhEWjbEzvflK1uvlNpb4dBOMcE0tWvbs1EGFhhMSwPchc5CeHRDP8RFRYuROxIpNT5nfdRk2LU/6Zi+6jxrneO1Qo457UkKOmwEVIkqcdtWa+/T5LPr1P1+/FeKFfa/aueH9/nd/xLHjv8Vz217Cq4fMK6sam17X0/tePIQ//ulDtLa2orHxlC5773d/0K+8rPj+T/XrLyf/39E499yz8fobp/X0x5+cweGGFjyzeS9ee60Jn//8JboDSC/SNOKi/hfaqfaTAMNXvvIFOwUc/KV5kiXzZR9ERJREbMW9TdaBzogYg8VyM71oDFqq78PqGNIKJlUsQh5sRoJkPkQQ6HviOhSv8cp6iKCdx0dEiSB9bqjfdZ8r7Ocbg2kPdE/Tp9wyEwSJ3OnoEGRn2lEXnzruxRueSrrASWyfiYjSkdT32xV8yFSV7XPPORt/+uBDvPX2e3ZueD9/4VUs/+ef6PGPPjJ9Q8jOxY9+vBO77Fsy/vLxJ/pfx0cf/kW/SaO3fjVHL50ZIYObvJlCMhFOnnzLzgmWlTXAjnXc1V/MsWPA7373R/zxT3/W45dEyLogIqKupioQkp3QUo3KkKwD3RTCNqeIGhzwZSJw1Q/ozNT4uI6PUkZo3w2mSY7t28G+3UIqYxGXo86n+9xQXL+DU5dI86fUIK/y1YHPaUtQrw86Ef2FbMPd+rsox1Y7h4iovdoVfLj00n4466ze+MP7H+B9NURz8rdv49evnNDjf/mLCTBIfwniNyffRlPz63pcgghuX/t/f6U7iXzm2b34058+1OWtajirdy984f8M1G+hkL4cdj//Ml7+1TG7VrD2dDIZzgXnB7/Z4re/Ne8z7dvns/pfIiLqPk5zhwP7FyGvfglGTWnbV4Ju4mA7knTSk02HksG27pbsBpOBIOVbq6QCYqY3jlV1E7NYwsV6fJRiGtaieMneoCY59UtuM1kt7iydSMtR57N9xcjv4ENlE3W2Q0Ot+pm4ryW5EzEnnmYZUZcfgjkVgfKaCtmv6XhWfv7COR/iuhbY5A2T/WU7st10Z2Bfrk5uJ6l5Qa93VcsFmmx4NLvo9M9kj1c65o303RJRh+Xm5oYdOkOHOivI6JWBXmqIhxN0AIIDDcLZ1rXX/B/8+zMP4K+uH4558x/F6h8+q+c7zjrrLN3vww9/8G3U1/8as8tWJvXbNoiIyNuXr/kK+l54LOoQkVTY7FNK/zBvmy1U/K+5VDe0t4+Rx4N2uenYoPt6vBO5oa/CtNP+ee59TLlNj+v57vXsMp7ZCpGWi+X4zJLUDRJyjgrXOeU/FxSTSbMXdXY63HLUBdTv5hMmZUBVjhfpIKCpODtMs4xpoc0yNoTrDyHa8lLJXo9peYFyX96iqJ3ZhpO3yAYDpOmInuM6r4SvJGhfzv4Xq3nuuT613OIk+UxE1LkaGryj2+Hmd1S7gg+vHGrEnz/8CBde+Bk9xEMyJsJxOm78r/9qwG1/80/4xt8+oDuedJpoSOBCBtn3d+99XHdCmZ//RVxxxcW63Mtbb/3OjnVcU/Mbdsxw+npoaXlT/0tERLFbuHAhZn6zNOah445g9ZN75Q7dPpFTN8i+ZHqbRLIfX8/T+efoRMzU2Q1MaU8WW+fdhqm62YINQqjfx43OU/82zTKmmzfjYAwKvCrX0ZbXb7eR6b1YPM0pl/2at+7oN+EoTj8ysQeiWtBSX6222fa8qnf6pJEAbe6NuCFo/2qQz66X7M7PZJYddS2zfoi6QmigobMCD6JdwYc//enPui+G8z51Dj5/xSV2bmzOOecsO9Y2Y+Lss0zZJ2fO4M9//sgfdHBIZoSTHfG73/8RK/7lpzjn7LOw6vtl+OxnztPzQx16rcmOdZx0jum46KIL/Z/lgw8+1P8SEVHsKh+rinvosJCnykl3c5vsx9fDeJ2D0Yb4mPb0zG5ILg0N6ucy5TZdEZfsI6lY31E2JNDfi79plGQNmFleYl6+vg5b9e/5ER38aO/54O/zQV03iuettdt0a0GTu/8Q5406/v0r6rPXmeiDp67+TETUNZyAQ2cGHkS7gg+nT7+PkyffRq9evXTTiFgNH5aJkV8yHd/I6zWH5n7e3wyjX9/zceWV2Xr8ss/1x7XXDA16hWXv3r11h4+f+tQ5OPus3vo1nM9ueQFHjvxGv+7ywfvvQM6gy13NOgwJDCQiAPGHP3yAX/33cTsFXDNqqP5X5je3BGdEEBEREVFqkTcx6GYWTjuLhhOA6xbSvBZXcXVI6QxeleuYl88ssH0sDMEkdQxd3s9LnrN/JXciCiIEVFLmMxFR3Do78CDaFXyQrISfbT+gx79xW0FQkCCSiy/ug9pt+zFn7mr8+Ce7dMeVTqzgwj6f1UECKVu9djP69btABzccstx5552L7973OMoXVOrmG/LazVl3/gu+/Q+rsU0dz4AB/ezSwZbcv8H/lo32qv7RDpw+/Xs9fs45Z+OOv7tZj8urRiULhIiIiIhSm25msUGe6NumT7oivhdPSB8ttXWmSYL/qb8zhOkfIdry/nJ5LabMX4/FtkNGt3Z1OBmL2ip/ZofZvxqc/iJa2r4tSOuSzyT9Rsi67HCSKN20K/ggnv33F/S/8qaHm2+6Ro9Hs/v5X+G5bS/5hz31/+1/w0Vj46mgMhn+8pePdZn4+ONP2pRLEOQ3J9/yT+/9+SttmmqI//71cd13RHsdbvhfVD0RuAJL1sXQoZ/XQYef/HS3nUtEREREqaphzX26fwLTK4ER3HfCNtzt6g8iumjLO+V2UmmpX+Kv9DesedJV1oKmQAJughzB6nuXYIP7AHR/EUsw1eNtQUayfyYiikZaCni93SLckEgZg3Kntq2tx2j1yjm4eeI1+pWTt35jMd588z1bknwkO+Nf/vlOfbyhTTMikSYVU25bgtPvvq+nzz67NzY/fb9uMiLBlL//9iqdgZEon3y8344FXNS/vx0jIkpub79jXkHsxmsYEXU3XpvaS161KdkQe7H42tTqGLWkpNyOEVEiVFcvt2NteV1jK9f9EFdddZVuzeAMHQo+DPtCJv5t470477xzUL/315gx859tSXL69KfPxQP/dAcmf3W0nROZNAO56zs/RFPT63paghYL7/lb/N30m/R08W2L8d+ufiASgcEHIkplvMEnomTEa1M7FC7HgUVjzLj08RA2G4KIerpYgw/tbnYhXvufZjz08I90pXxs3lWYP+8bMff/0B3+9KcP8Z1/XIevFX9PN9N4//0/2ZIAyWJ47bVmlH37B7j1tsX+wIOY++1iTP3bG3XTjg0btyc88EBE1JO89eYbcQ3te5UhUft5nYeRBp6jlJ5aUP8kAw9E1HEdynwQEmyQbIJbb8nT/TdIvwtld/1A98eQ7D53aT9cckkf3YeDaPnfN9Hc/AZ+e+pt/OUvn+h5Qjq6nP+P38Bff8N0rrnlP/fh3u89oYMZicbMh06io/cDsWGax2vrIpV1htw7UbOhBE1LrkNl9lPYOHYPnyY4UvW7sceN6ukolk7JYhFpHfu0SV6blmqvJ4vn6aJU1pqbGu1UZF++5iu6Yhf/qwyJ2o/naPpg5gMRUefpkswHIZ0u3rfoSax7dIuumN8w9irs/Nk/45aiMfq1mMns9TdO49evnMDGH+/UgzQdkT4enMCDHL+8SnTnzyp0xkOvXhl47mcvYd78Rzsl8NAR8noof4/DFRPtXGBShZredCdi6SoknmU7hVS4nJ6PpWLmfB6Pz5XSGk6439zVlv0e2nxeZ74dgnqIDiqL0jt0uO0r+hzwbyfQe3fQ+aWGmjLzytxg0i7Uvb4awp1P4T5LtO+G0tKg3KlRhx7D/m7o3wn3OHUrr3MydCAiIqLIEtJGQt5EsWr1M1h8/wZ88MGH+NylfbF86Uxs3fIQFi74WwwfnqVfnSmdNSYzCTbIcUpfFn8/+/9h238+jCcem4dLL+mrAxIPL/83HXhIuldrqhvUjSU+/ZRU3rM8tbkgbV5N1FI93Xym6hYgb1GYSm8qMj08+9+XbelKvtO+0k2CMfZJuHwfi+vl67BBBinLrzPv2Z5Wrbbsw7QHvCv9YbevSOBhcZ50KOW8s9t2LKW2/5D7/FI/C1/J/WHPMWc5PXhlLUT6LJr3d0MUVrIFK72OpzsDu5QcQs6LsH/PgoKzfNUgERGlj4R10CAV8o0/2oG8grn4+b5XdbOLgb5Lcfv0iXj26X/CS/t+iP0vrNX/Juuw3/7778/cj3+461ZcccXF+ORMK37+wquYNHkBHn/yuaRsTpKbPdCOGQ1ryrG6wbwjebG8rNm+i9k8PQt5Oq1viMMsG/rUTU87N0LOO5jN0N4nc7FmWzTs2KOqpF68Po/hflq/It/OtMKXme2tqDCf3X9zGPam0et7iPbdbMPd19omHrXlrgr6EEwYK5X8JeYd2S6548fCZyvlYuvuver/PmQOUv80rEXxvG16fuTMgfDbl893h/r5t1RXte3JelCm2hOQmZ2YwE/EzxL2u3GJdF7qn5MaLzPL6MFfCY33ZxvbuRVUgRhYGthWyH69tqONvT9QFq7CHGulpYdLtmClczyjrlW/c3JtjeFaF0R+B9T6qdb0hryo64BtZuWco55BXPldjzGYTERElMzOnDmjB+kv0Rk63OeDl169euGyy/pjSvFY/WrLz19xSdJnPbhJIOX110/j3//jBWyt3Y9jx092WbZD+/p8kMqNvAZJtAT1XaCfZme6eijOHYLchiNmXCptrnblbZYNKTfTpm+E7eOfwsaS5g6/dilon+79HVc3YK728FLZc7I7gm7Ew32eoPWBOZvWY5rPfjeIUNbgfJeuV0rJzaBaXvoh0Pt2Tet+CUK+B3OsHflu7DHUL8EoJ6gQ+rOwx9Cmv4Bw84OE334QV8/WzvfvaPNz0NznoSGVr6j9GcR0zC6h6+tp22eH/dn67LFDHzfa9bO9+3iYcwvu/UugqRQn7m3CHeH2i8jnaPA69hx378Mu53mMbX4G3a89fT7EkrLe98Jj4dvTh55DodP2e3c452Ug20fOB3t++M97+dmqa0OT/T2x23R+CwLntlkP9XuRlzfGzN9xY/D+Reh5G257nufadDTdro4FIcfmTMd8bEvw/NhF4bdjVieXhJ2j+ufq6lso9Bz1FHpOUkdEuzbt3G7/HhIRUVQ3Tgh+YOZ1jX3kh6t1nw+9e/f29/nQKcGHUBdc8GmcddZZGJxzuZ2TnM60tqKl5Q2d3fC73/3Rzu1aHelw0l1BDLq5dgcUPCqIzs1wPMGH1YNMmfCXd5R7f07FzBaJwA21m/fnMUEBp9KpZrqO3QROvMucCmqme1/2uELp4zlR2vZ7cC3fvu/GfiZ3cMCpJLi/ECV4+7HeqHps3/3dy/aCboydAI1ZVIvhZthU7IKDYUYsnyWC0GN1//yCAkshFbnaOH+2a7LN92TnCdlOXb67wmqFViQ89tvmdy4kwBa0DXte6eVsBTSU9+9D90uG4ENQsDLkew4q099t8Lnjc4JT7m3aYIJ3AMj5+bYNavl/tqHzIm3PHXhyjQdf01zncpzHZj6/x3aS8FxKBok6R4O/d5nhcY6EimUZilkswYfBueZV6kRE5O3ee+djeklBu4MPXfJezN///k84ffr32P/S/yT1cODAYbzxxrvdFnjoqIY1t5n0XjXuG2je4BFqUoVzI3odRi2RdPd20unA07FBZzd3Xhq4VLBM2vJ1njdfCfs8MZAKgHMs/uPx+h465bs5gtVTXPvXnzXQdMFU6O13kYgnZA2B5hu5ZffbzBDXvn0leCjK5zrWLA1lnOYUbtE+S9fz+tkm6txK1HY8zz8K4itZr5ulSHBBrh1SGXea+Ty/w3xfThMu3YzoeJMa9+GG8WpcmhfV71XXzzEokCY9urmRXc82PZLfZ930RVUIZdrdFMmzyVI4MWwvlDlue6yFBeqcat+xNax5Un1GH6aVqpsG93YoyUzUzTQkM+q7/F3vUhf0GcyBAwcOHMIMHdUlwQfqXPJExd/+PTcbmeqfluYTZlr4MpFjR91C+4rQ3MvqG3PnJlZVbm8PPH3NLVuOOblSiYwc7IhGno7H0udDLNyfx3RWaG/UQ449Upkn+z3k5bdtj+/1PSTquwnPHnPLHmzXUQYJPEgmgVRwXU/jhTw5kwpJtM73auv0sfo/o66UAE0nwt/06rKw2zf9S0BVuuucp7Fhlgv+LDGIcF7GLcLP1s19bpmgiq2gKpMqAm8Ficbrd8439kZ9/ptKssd3HuMxklSyIwcr22jYiefVlyu/o5Pyx6B+dznq1C+CnFsyHXpedigAZIME7p9vXNtzjlWdL3M6dGzb9GdEXgFWeGyHkoFc0xMYTCYiIkoSDD6kAXmSBfdTr/ol/htP05nfGCxWZRKg2FolHViZ6Y1j1X2nXsoIXVY6MnxC3aSap4nrkblH1jUa1tQhc4Ps094g+ZsHdK2wn6e2XL9FwevYI5Z5kQ4d5Yl13iLzHevBdHDo9T20/7uRG05nPcXuT/8snMq7HkLaaBeW2iYM5ntwH1+wCNuXjh7dn3GRabsuT44b1tyHDS0+TNOfyZSpmo5J8XaTpgb+/YcJhohInyUWEc7LuEX42YY7tyTDyLyhwyx/R3PkJ96RfudkasOeTN3Jq/tpfZAIx0jROcFGJwMnOBPiCLbvUT+RzAIUZJrsGwku+caWqmn109mz05yXHQ4ATcQK+b1pqUal/HzbtT17rL4STDORwXYfm3Otz1Pb8X9G6lRBmStK0Hlor4kmS06u0xGun0RERCmsS/p8oNh1pM8HIqLulgx9PoRy+nlwSJaAP8hj1w3t60Eqhv72+aJN/yDBndQG9Zvg34ZLUB8uSrjt2f509DG6+3+Q43VtN+gzxHNsmlPBDfmM1EbCzlER8nPy/wztfPfPPBh/TokQa58PiUgrJiJKV98uu6VDfT4w+JBkGHwgolQWb/Dh4ksutVPRRazYURxs8IFvuYiqK85RExxrZqZDJ4s1+LD/9V8gy84LOIWqBQcwbunk4LLd65Azex8yhk3B9hrvMi+ey2th9tO0BUUTN+EVOxlJRtFcHF060nP/4cpCj6fx8YUYXyE5Va51rLoFJZi52U4okfYXTnvWIaLkwOBDmmHwgYhSWTzBB6moxYvBhwSwT9qlmU/4viFIdP45arJT4M5koU4Ra/BBMh8y4MP8bQ+iFIFKv1NBh62Yj5i3HJtnDNAV9Qm113qWhVbUQ8WynwyMxqOHZ6MghgCEs18tpGIfrszZflbQsQNVxeVYBnUsZScxXi3rP9bMg5g/dCVq1LqR9hdOe9YhouTR0eAD+3wgIqJuIZW0eAdKAP1GHr4xJRZe52C0IT7bcLf6WTDwkHperT2ARjvu7RQi9Nkcs1bsw6wFB4HMyZhTZGd6kODApHES8FiHOjvPEakMRdegQB3rrlqT6WA+1wCMK/Sh9dAmHXgwrkC29GjedBLysSJuM4z2rENE6YXBByIiIiKiOAwvHKWbKTQeM5V2kTXjQRw7XO3PHHj4kC3oqCMndaAjKyeoJ5kgrWjBwxNLMMsj0yJS2fCcy+yYt+J11fozHQ3Jvoi0zXDasw4RpRcGH4iIiIiIYhAIMJgmF+5mFTI9uHiLzhwoLRtt56a2mtklyBlagsFDF6IKk7H58HLcM8wWEhHFicEHIiIiIqIYSIBBKuMyOJ0yuklThUd2q5H8a1BsZnXckMvbZFl0Ncla2LrrlBobgGzzxlgiorgx+EBERERElCDPbD+o/j8SN0XooyFWukNIeTNE0xas7oTmCu4+HoRpTmL6gJDOIXfMCzT1GJItHUUmpi8LIuqZGHwgIiIiIkqUzS/pDhULJrS/6YXTvEP3tSBvhYjypgvpzPGebXZ5mZE/W69fWRS5TDI1Jiw4GNScpG6B6a/ilYpyPJJt5suwLP+Uvy+LSNsMpz3rEFF64as2kwxftUlEqSyeV22+9eYbdiw2CxcubMfbBIjaj+do+ojnVZtEROStPa/adF6zqV+5acuIiIi6XHNTY0zDxZdcatcg6lpe56PXwHOUQkmTiUqbNRA6uJszxCrR2+sMqXCMRNR9mPmQZFIm86FwOQ4sGogN027D6gY7j4h6vHgzH6TSpv4O2Tnh9b3wGGZ+s5RPlalL8RxNH8x8ICLqOGY+EJB7J2r2v4gDrqGmrCu7Ip6IFR77zS17Ss1bjkl2OrHi2KcESvSyT2FOrp1HROnDfQ2sCP5jOKnCznd+/z2ul/51IpU515yQ7RPFzP+3SIYIf49CzsOu/XtORETUeRh8SCMt1dMx6trrsLge8JWUdlKlP7Lu2G+0fU7KHwPU70U9fLhhPG/iiNJVS0sLkHe7q1I3EQV5dn4I53o5tVrWWRRUwYtURtQuElDIr9Pn1ahp1WhRf4+mPXAn2sYfJmLFhhLAdQ76Su5n4JyIiNICgw89QdDTFvdTlED2gB42OTdCZv6KCrOes7zJKjDLrsjXs4LUqwo+MAZ3hLtRD3scsdFPMP3HaETdp6181O8uR50EZcbe6HGzR0RpYc+e4CBjYQHysBfP7zGTXhp27FEVQW+RyoKEfVI9BHM2BebrQV/Dwl17g6+zNWUTzfr+cru9kOsgpYCGtSiet82On0CTGWtLn7MteH6HeZehOQcZOCciovTA4EMa8ZWs1zesi+VJX3UVtspMuSleNCboSZ4st6JQyk6gUp7CyLBEVeJ9JZgp8608tZ3Fqqx4jboJUtt5qMRntzMdTZlj7FIBmc112KDu1D2f0kQ6jg6IuE9hb+SajgNbd8tnHIsJvGsnSlM7g4KMJuupDttNoafc8WNV1Q5o8nhxfaQyP7m2bShB0xJ7LZ1WDTjXtsJSTPPt1ddR87S7BRvuXYuGcNfewuXYqK6z9Xpb0/H82AJgj1zgnOtWNjLVAbXs2Ql2tZPCctXPUf3j9XPMzR5ox4iIiNIPgw9pxKnYy82sU7E3N8+hT1FUpT17iJrIxkznyduitsEEfwBDCd7OEax+UjIOQp3A6nttOmlpcLvoiMcRo63z1Gebom7c7bQRfp9CVz5a9mC7rHS8SS/HJ0hE6etYs1NZd7Ke7NPmEE6wVir7cu28u9YWKJHK2hiUqa4q0jrDXks3lOjpNtc2u5wW5tqrr1fYizq9P3WdnVKO1Wue1Nkc+voW8lScUpFpVuFrqcZ3JbBPRETUgzD4kI50JTt6xX5SxSKdkqyfysnTt0RoWIvv2nbSD4218zpbuH3m3ok7VOVDnipudFUKuqs/DCLqfE6a+rQN5vpmKvJt+YO1atDZXS6RysIx2QqBQa+nr8VjsNgGGVqq79NvB4rv2rtNZ3MgrwAr3MFUSkHSbMb+7NsE0ilZ7PB4ReSxw8txT9GUtmXrRut1MoaFL/Piubwewuxn2xSMsOtGk1E016zjsf9wZaHH434lpn8dO1QW2QIr0v68BG9Pfd5htoCIegQGH9KRfcImqcINJ5rVmA+Zg3RJmwwER7RUT2c7JmtA3UDd3jZTwtGgn9SppX2BP16xHkckXn0+OLz26exjw7RAhUB3IKcqAwUdbO5BREmqYSeel19zUV/nz97qNDbYm5ffNvNKX4NaqjHVHZAI4b726qwN1/VpUoV5c49uMqbmS1M4NrlIVRJ4WG+b4ZQHn5fSdGe/6SsktI+H9vytpI4ZP7QEg4cuRJV0zNG0BUVqOmdoOZbZH0Hj4wvVdAmKHj8F5M8OqqiHloVW1B2thzbFvJ/BQ9ehLnMyNscQgBgxbzmOLh1pp4KFK8vAaDxaMxlwHXvWjDIdFJCgxPYJL9njMMdasHQuiu26kfbnJWh7xVvQiAEoXRF7YIWIUh+DD2nESRU2T9hsqnBtua5wOynBpj3xbfrp29Yqaa5gnsptHKtuas1mvKntmLdoyD7WI3OPrBvONtwd+jQvwnEkRug+h2DCWHVDEPKU0Gnu4VVRIKJ0cATbpZ8EJVyTiw7JW2Sus2rQHUtKR4Jy7XHNd16jqIOuTuaVHaQ5XLhrb8Oa2/R11rlO3tFsm77VVum+bWRJVkJTlO7/Q0ZsJowe7Os2XQ8MnPPJ3fQnsX8rKVFerT2gKs+RnEKk7mJi1Yp9mLXgIJA5GXPCBDNEhjqLJo0bgLoF61Bn5zkilaHoGhSoY91Va65E5nMNwLhCnwmSzN6n5wNXIFs6K2k6qa6yUbYZRtD2Dp2M8v0RUTrKGJQ7tdWOUxL45OP9dizgov797RgRUXJ7+5137FhAuGvYW2++gYsvudRORTfzm6WofKzKTiU7+6S7aQlG6bcc2GlUY2rcKfcdWZc6oivOUXnDycaS5rYZEZRQ0a5NO7dvw+Dcm3BBn8G6Yj1/24MoxRYUTdyEV1S5fmpvMwTGV7Top/6bZ0jluwSzjpiyLLMp5RSqisvx8CE7GUYs+9HLecwLR2cyHJ6Ngt3rkOMPHBheZeZzwH+8ofsqXleNZc4bziRDwx6nI9L+IonnMxFR8vh22S2YXlKAGycEP8j1usY+8sPVuOqqq9CrVy899O7dm5kPRETUPRYuXKgra7EOqcV2zOvPiJCUe/u2C7tEzOxTcza56Hqdf45OxEyd3cDAQ6rImvGg7q9AAg/SNGLmZlugyLS/OUFZbH0gJLua2dIcxDa7wGRsTkA/DU5Tj6ymLfgOAw9EPQqDD0RE1C3kCXG8Q0qpLff3N2OGdqbP2+3E2vklJY7XORhtiM823K1+thHfqEJJxemLQQavJ/bStOCR3Wok/xp/3wgdNuRynVXReKz7KuqtaMHWXafU2ADE8aKyNky2x2wU4CDmh2RREFH6Y/CBiIiIiChBntl+UP1/JG6K0EdDrHSWgHTq2LQFq11ZFoni7uNBDC8chSzbB4Q0yXB3qDkke4D6f/v7svA3M8k8iPlDV6LGzieinoPBByIiIiKiRNn8ku6EsWBC+5teOM07jjr9KUTJEpCK/T3b7PIyI3+2Xl/euBGpTDI1Jiw4GNScpG6B6f/hlYpyPJJt5suwLD/Ql0WkbYZVdAtKpdNKjMQyu02+bpOoZ2GHk0mGHU4SUSqLp8NJIqKuEk+Hk0RE5K0jHU7qwZYREREREVGCSJOJSv8T/uDB3ZwhVoneXmdIhWMkou7DzIckw8wHIkplzHwgomTEzAcioo5j5gMREaWkt958I66hfa8yJGo/r/Mw0sBzlIiIKDwGH4iIqNs0NzXGNFx8yaV2DaKu5XU+eg08R4mIiCJj8IGIiLrVoNypUYceoXA5Dux/ESsK7XRHJHJbXnLvRI3afk1ZB174L9p7nJ39+UJ4nZOhAxEREUXG4AN1rS6+YSSinmNSxYv6+qKHTXci187vCfRnT/RntgEG/3cqQ0VwG0+Kg/37Z4anMCfcDyvW5YiIiFIMgw9pIrfsqcDNir05NDfi7huXiVihl1mOSXaOf17FnZizKbRMOOUpdMMZ641byI11xCd4zjajfA9BlZ823yURdY4h+vq1OK8FG6Zdh1HXquHJTDzU0afyXa22XB/73bV2uiMSuK2W6ul6W1OrW4C8RR3PdnBL5GdOZvL3Jr/OnJvTqtECH6Y94BEsinU5IiKiFMTgQzpQFeONJT7ULzE33VObC3SFe+vuvarQh8xBZjEUFiBPjwxEtnMnk5uNTPVPS/NObN+jbiwxBgXurAS7Tv3ubWa6ozr7RjPmG7eJWLGhBHDdVPtK7vcMVOjAzqIxdio8CTwsztuLxbJvPZRjqy0jok6UeyNu8Ekl+T6sbrDz1LWmeM0RMx4UkHQFGm0AckWFq3zTnZjkCua2a1m7P3+Gl562gVC9HTVe5tqOE9QMWc8dVDbbdgLIdtCZDk7gRRX7SrBRzdfrex5DYN3gzxXmeEI07NijrqkhBpYGgrh6PXM8gSwM97Qdt8t7HWdsnzkFNaxF8Tz7d7ThBJrMWFuxLkedZofHKyKPHV6Oe4qmtC1bN1qvkzEsfJkXz+X1EGY/26ZghF03moyiuWYdj/2HKws9HvcrMf3r2KGyyBYowWXq2IfZAiKiMBh8SAO52QPtmNGwptzcgB9v0jeKmdnmJjOwnA83jLfzxo9VUy14fscR/41lXn7gxnNSvlS696LOCRbYG/Dgm0NhbhCdG3MzP/qNZiJuiIPSjWO9cdNBFfO5hfnsge8lYAgmjJXAzhLU2zme1PHeoW7+W6qrGHAg6mLmOgY0nbDBBje5liwaE/T03leyPnANUvIymzDVlkkFfvHAJ/Wyi9UvfWhQMp5lw/Nh2ljXdvJub7ueujYGgsrT8fzYUkzKPYFKtY4Obi7Zq/c/s/AIVk8x+1cfUm+zTXA36ncQw/EoXt+zT30f3w1a74gJZPvGYoLeRjYyJTC0ZydQdj+m+QIB2jbHGfNntsunKifor74TJ1bmKdblKKHGDy3B4KELUSU3EE1bUKSmc4aWY5k97RsfX6imS1D0+Ckgf3ZQRT20zF1Rd2s9tCnm/Qweug51mZOxOYYAxIh5y3F06Ug7FSxcWQZG49GayYDr2LNmlOlAggQltk94yR6HOdaCpXNRLOu5y4q3oBEDULoi9iAJEfVMDD6kgYY1T+qKcd4iqaS7mhk07MTz+h7wRv3ESSrRqK/GBv88IGegvivEdrmzURX3J/SGCmxzgYko0GkPdaZCLTewG0rQZDMsJLMAoTfxanm5sZQnjrnRbjQTdEMcVoQbt9CATXjmxj5qpsagTH1TLsfvD5ak6hM6ojTiDrAKJ8jqBGWFc41oONGsp51Mr2PNsmSweJaNJHg7rgw1KzjwK9ehcmxtyMZM5/oSQzaWI/7vIPh4nOuaBAbkeu2+HnqtZ/4mqet36cSgQK9ZZgwWq225/244EvmZk5fJuvO1VOO7TmaOp1iXo+7yau0BVeGO5BS84qHxasU+zFpwUP3CTsacMMEMkaF+5yaNG4C6BetQZ+c5IpWh6BoUqGPdVWuuYeZzDcC4Qp8Jkszep+cDVyBbbqqaTqrfThtAccoOnYzyXRARGQw+pIVtuNupoMsN3wYng+AITkhE3ZeJHPv0qX73Wtc8E1xwbh6Faaphm17Ym8YNVTaTwFawTZBDDXJjpKaDbmBdT/6j3Wh29IbYsXXedRg1Za3/Mxjdc+PmNH3RTT58JanX5pwoBZnrQ/C1Ix1Nqlikrsk2oCtZAF3ECRDL4G/KEtE21NlA9goJKDgBbt3sbroOgMvfkUDmXHjd9Zk7h2QD2s/T5m+WW6zLUXcaXjgKWerfxmOm0i6yZjyomyBsngFUFZfj4UO2oKOOmMp9Vo7cdXlrVXdQD08swazNdoZLpLLhOZfZMW/F60yziqOHZ6NAMjQmbsIrtsxv2OXmu9i1v20ZEZELgw9ppGHNberGzjQP8A3M1vP8wYQKE0hoOu6aV2YyA4JSlWvrTBZF/p2Yc7vrptHFX8GOdjPajhvNxEiCGze21SXqOrVVJqOrpDTQyatkVlVMbBO4DA16doqgJm/qeiTX0jiZTIpAHzyTKpajwIxqntlbOqjcVnd8B87fGcmGc4LIuWXLdbOM1VOC/0452vWZU4b8XVpvswFD+gOSc3W/u7limOUoKQQCDAN004iZrgq9TPubIJSF7/MhldTMluYgttkFJmNzSN8OTrONrKYt+E6F/A4TEYXH4EMakA66/JkF/g4kT5hpJ5iQ5376ZOeVSOaCqz8HzXliVaJufgI3jZq9oXb3CRFJtBvNRN0QB79iLvoNnvQdEdrHQ9C+XctF5F7OH7Sx69iOOj3boBNRgsl1RgKdJtPKZGZl4gnp/6W2XGeFORlbpk+B2wIdU3YG24TNNFdYj8w90vltfCSYLP04OMd9R3MV7q6S7ZjPuHGsuj7bZYVT2ffMNOuO78AGhOQo/dlta+qQuUGOwQaHnf55rHg/c0opLNV/U52fkT5HnWaSNqtQ/72ItBwlBacvBhnGe1S2pTnCI7vVSP41um+EhBhiMwtcWRZdTbIntu46pcYGwEkyk+Yc87fNRgEOYr5XRgQRUYiMQblTW+04JYFPPt5vxwIu6t/fjoUjnT3KzZxVvwSj/Dd1TmVcjfrne81zkU4gddtaeW1dyA2qv8zhLGOOIbN6uisTwn1cNhhg15fsCWk3LIETuRF2OPN1xX6DeRuF3l7Iem76LROZ1ZgqWQ5tjk/YY4TZps/5zCHLhu7bLHci8F256GWPR96epCrHlqJMlD7efucdOxYQ7hr21ptv4OJLLrVT0c38ZikqH6uyU5Tc7N8Z2GuznZtquuIcNX8Hm5np0MmiXZt2bt+Gwbk34YI+g22l+kGUItDMQHewaDtmDA06hJbJWyCkc8e6BSVBmRGhYtmPziyI1OQhhH/53euQ4++vwfAqC92fdEzpNBuRe7bvY43/80oTjGX5p3TZskP22DMPYv7QlajRSxBRuvt22S2YXlKAGycEP6T1usY+8sPVuOqqq9CrVy//wOBDkmlf8IGIKDnEE3yQilq8GHxIETYYm+pB2M4/R02QHh6BdUqsLg0+RAgAuEXaj2Q6+EXZjvBvS9JfXSQAMmtz+DIJjjjBEoc7aGICDmZcOtF0+rIIXccIlBNReoo3+HDllVeid+/eDD4kKwYfiCiVxRN8ICLqKvEEH4iIyFtHgw/s84GIiIiIKMEkA6LysHlbROiwY15Ie84YJHp7RERdjZkPSYaZD0SUypj5QETJiJkPREQdx8wHIiIiIiIiIkpqDD4QERERERERUadi8IGIiIiIiIiIOhWDD0RE1C3eevONuIb2vPaQqCO8zsNIA89RIiKi8Bh8ICKibtPc1BjTcPEll9o1iLqW1/noNfAcJSIiioxvu0gyfNsFEaWyeN52IU+KpdKm/g7ZOeH1vfCYfqpc+ViVnZNCCpfjwKIxqF9yHe6utfMoJfSYc7QHiPVtF/tf/wWy7LyAU6hacADjlk4OLtu9Djmz9yFj2BRsr/Eu8+K5vBZmP01bUDRxE16xk5FkFM3F0aUjPfcfriz0eBofX4jxFS163L+OVbegBDM3m/FIZUSUnvi2CyIiImVSxYs4sN81VAT/YUwmQce66U7k2vmUxiQI5To/VxTa+aFiXY46xfihJRg8dCGqmtSEVPrVdM7Qciw7YsqlYp6j5hU9fgrIn40d83ymQAktqyyyBSFaD22KeT+Dh65DXeZkbN42BSNMUVgj5i0PCga4hSvLwGg8WjMZcB171owy3DPMBiUmvGSPwxxrwdK5KJb1IpQREYXD4AN1DXszxZsoIkq8IZiz6UUszmvBhmnXYdS1ZliMRUl4zfE41icz8VDZEFtOaSn3TtTk19lzczo2tAB5i5Zjki32i3U56nav1h5Aox33dgonbCChI1qxD7MWHAQyJ2NOmGCGyIAPk8YNQN2Cdaiz8xyRylB0DQrUse6qNZkO5nMNwLhCnwmS+DMkrkB2pvqn6STkY0UqIyIKh8GHdCA3K66nJDLUqBtZ82TtKczxP1KbiBW63H0jY+cl8RPC2DifzXx2R27ZUyGfV/E/VXJ/N0SUsgpLMc0HtFTfh9UNdp6ydZ6rmUPIddJ/ndDz1bWgzPW02X09DLeeveasqDDrmfmB65AevDIacm/EDaHHWluO4jX2lj3kqXfwcQb252x/kr7GdWBZGwxx5jNA3Eka1qJ43jY7kY1MeVje0oRjZkZArMtRtxteOEo3U2g8ZirtImvGgzh2uBqbZwBVxeV4+JAt6KgjJ3WgIysnkGURqhUteHhiCWZ5NHuIVDY85zI75q14XbX+TEcPz0ZBSPOPSGVERF4YfEgjLdXT7dOS6/SN7Nbde9VcHzIHmXIUFiBPjwxEtnNHnKtubtQ/Lc0nzHRnUTfXclxd0d7ZV1Ia8SnRpPwxQP1e1Kvv5obxzg04EaWq3OyB6v8teH6HVOCDAwC6Mi2V8Q0laFpiMw2mVQMl610VbR+mjW3CVFU2tVoeNd9uApNR11OLqovqYnvNRe4JVMpyMixR119fCWaGVOZzx49VewOavB6Jyv4WjfFfy+VYfKH7y3Qdp9r+4oFP6mUX18vk/UEB1ViWzS27H9N8e/VnkDL2SdF5Ak1tFiGvpRpTp6yFK1bmF+ty1D0CAYYBummEu48DmR5cvEVnDpSWjbZzU1vNbGkOYptWYDI2H16um2REKyMi8sLgQzo73qRux4HMbFPBNjfoIlDpNjfCctMO8/TL/6TOPg1zpu2TNOeGPvLTP48naaHNLiI+3YvwFNJF36CFPFmsr5eAyxjc4T++UBNRoCoL9bvLUSc34GNvZFtrorSyDXdLRVoq/45BmbrCn7fIXlM2lOhp59ooWvbs1BW8hhPN6v82aBvLetVV2GrH0ZCNmc51a9EYOzN2geuxCUw07NgTdA0Xwccp1zLzlPxYsywZLJZlTdkYLFbH7A5yUOJJJo4OTElzCpRgY5jsu1iXo+7h9MUgg9Mpo5s0R3hktxrJvyZx/R8MubxNlkVXk+yJrbtOqbEBcF2StEhlRERuDD6ks4adeF79nTIV7CGYMFbdNtdX6zakTqU7Z6Ca17IH2xuOYPseXYAJ+ibHpHvqm9c4n/5FfZIW9elemKeQMchsrjOfL+QJoJ/O/mhB03F1gyeZIf7PS0SpKihgEIG8bcJU6szgb+oQRazrTapYpK4v9trnDn64OIEAd0ChW+msNKdvAXdgmTqP/Xsb9ZyNdTlKNs9sP6j+PxI3ReijIVa6Q0jpKLJpC1Z3wpsk3H08CNOcxPQBIZ1UujvUHJI9QP3f9GURqYyIKBwGH9KIVOCdbAFTkT+CE9KLsi8TOTaYUL97rWueyQLwPx3TT9lsVoStpOsncHE+/Yv2JC3+p3veN1766VCbdNQTWH1vtf4c00rbZkzoJhc62KImdGYIm14QpbzaKlt5DvOE2GaB5eXH2bdNe9dTAplmIeyxBjUPk4BsxcQ217vQa2VnyC1brr6zI1g9ZQnq1bRvYLYpoISS/ofcgR0d+Fc/WwmEO5mFUh5xOUodm1/SHTsWTGh/0wuneYfuT0FejRmlPwXpVPKebXZ5mZE/W68vb9yIVCaZGhMWHAxqTlK3wPRX8UpFOR7JNvNlWJZ/yt+XRaQyIiK31tZWPQgGH9KIu88HJ9vA9PswBgUVIU/8ZV6Z6e/B3/bYlSkxx11Jt2J+atjdT9Ia1uK7OmNiER4aa+cJdYN3h3R64ZM01kAQJVofEUSU7KTyLH0Z+DBtgw2S6mYPe1En10LpxE8yEdQ1wQnQxtThbJzrba2SwKcJvG5U1x4JXLQlxyrXR7Oc3uaGTDwhnQyqa6dkezmB3o0lPnXdvS2oE81Ea1hTh0z9ndmsDX9nh5RIDWtuwxMDAw8IzNtO7M/WBvjlb3HE5ajLOB00uiv8zusxwzW1cJfJGypmStMM/9sgvEXaj9O0Qw9RtiP82wpZV/qkiFSm19280nO+cPp1MENwcCFSGRGRl4xBuVNNGIKSwicf77djARf172/HwrDNIlA93SMgIH0yyE2l4u+4yjVPpwiX+7MW5KmL3PBq9UswSm5E7fZ9znQQs61M177lSdqEHeXqZsnuR9bbXaArAxLAuBvLA+OqYmD2CXODhZDPIn1DuJZ1kz4fFmcGf6bAcbT9jMfc+7E3cs7n9do+EcXv7XfesWMB4a5hb735Bi6+5FI7Fd3Mb5ai8rEqO0XU+briHDV/h5qD/hZT4kW7Nu3cvg2Dc2/CBX0G2zkdp5tMONkGIaTvCK9ARiSJ3h4RUby+XXYLppcU4MYJwVmhXtfYR364GldeeSV69eqlh969ezPzIf2dQJPzt6jphG2i4JpXXxd0s+M0gRBO52TxPv2L+iStS57ubcPdQW2ubZ8XIdkczudtT1o1EXXMwoULdWUt1oGoq3X+OToRM/XfQAYe0pE/A8JjaE+gINHbIyLqasx8SDLtynwgIkoS8WQ+EBF1le7IfCAiSjfMfCAiIiIiIiKipMbgAxERERERERF1KgYfiIiIiIiIiKhTMfhARERERERERJ2KwQciIiIiImXH4WocazMsxz1FU9qWrRut18kYFr7Mi+fyegizn21TMMKuG01G0Vyzjsf+w5WFHs+OefaV64p/HTtUFtkCy72uez0iIi8MPhARUbd468034hra9ypDovbzOg8jDTxHU9/4oSUYPHQhqprURNMWFOlXWZZj2RFT3vj4Qv1qy6LHTwH5s4Mq3KFloRV1R+uhTTHvZ/DQdajLnIzNMQQgRsxbjqNLR9qpYOHKMjAaj9ZMBlzHnjWjDPcMM4GF7RNessdhjrVg6VwU23XFLWVq3d0H0WiniYgiYfCBiIi6TXNTY0zDxZdcatcg6lpe56PXwHO0Z3m19kCUCvcpnLCBhI5oxT7MWnAQyJyMOWGCGSIDPkwaNwB1C9ahzs5zRCpD0TUoUMe6q7ZFT5rPNQDjCn0mSDJ7n54PXIHsTPVP00k4H0uyIpblH8Qja07aOUREkaVE8OG2KTdgy+YHcPc/TMGll/S1c4mIKB0Myp0adWi3wuU4sP9FrCi000Tt4HVOhg7UswwvHIUs9W/jMVNpF1kzHtTNDzbPAKqKy/HwIVvQUUdO6kBHVk74Zg2taMHDE0swa7Od4RKpbHjOZXbMW/E606Ti6OHZKJAMjYmb8IqaLwGN+bNGovHxZ/CMWZSIKKqUCD7063c+PvOZT2HAgP64+OIL0bs3EzaIiMjKvRM1+1/UQQb/UDHRFibGpArXtjfdiVw9dyJW2Hk1ZUP0HJFb9pSatxyT9ETbY3MvSz2IDYQ5Q8SAmOu84fmSXAIBhgG6acRMV4VepgcXb9GZA6Vl4ft8SCU1s6U5iG12gcnYLP1SDAOGzytDaeZBPFIRCL4QEUWTMSh3aqsdT1r/+ng5Rl83DH/5y8d48Rev4SdP7cYvf3UM7777Plpbk/7w4/LJx/vtGBFReriof387FkzayEu6eixPjfteeEy3p698rMrOcZGK2oYSoHo6itcc0ZX/jSU+tNjpjhmCOZvWY5qvBRum3YbVDWqWqkTWZFepbWdjxf5FyNPL7cXia8uxVY2Z/Teb6ZBjo9SS0HO09ASK521TE845FThnQkmw6w51TiFvDM+dBHn7nXfsWID72rRz+zYMzr0JF/QZbJ7qb3sQpXA96Zf+D2zfCONDKtyhZZItIM0R5g9diRq7jJdY9yPNG6S/hroFJUHBDi+6DwfJUti9Djn+JhOGV5n0BeHO1Ij0Oc2y0nyjBD+bIJ/RFrhIACZ0PSJKH98uuwXTSwpw44Tghzxe19hHfrgaV155JXr16qWH3r17p0bmwznnnK0P+Nxzz8ENY7+IJYv+Dv/w7WIMH5aJs87qbZciIiICGnbsgf/W193sQj9NfgpzylxPoP0ZElIhDDyV1oNkOOTeiBt8QEv1fSbwIGrLgyqD9fWqkogxuINPqCmchrU28CCykSnZ8y1NOGZmBFPn7OK8vXhC90RIqeiZ7QfV/0fipgh9NMRKBwyko8imLVgdJfDQHu4+HoRpTmL6gJBgg7tDzSHZA9T/TV8WTkaEzorQ2R4MPBBRZJI0kBLBh169MuyYIU0vvvrV6zB/3l/r/iDOP//TtoSIiHq63PFjIbfLTZ69vfkwbWwTpl57HaZWq5vkvNsxR9pQFJbaJ9HXYdS0arSo/zbcuxaIuC0js7kOG9SmfCX3m20ReQg03VmEvJZqTJ2yFk48K2AI5tw+Bi3VVZ4ZEZQiNr+kO3YsmND+phdO8w7d14JkKtjMiHAki+KebXZ5mZE/W68vb9yIVCadSk5YcDCoOUndApMF8UpFOR7JNvNlWJZ/KrF9WRBRj5OSnSdIFsT5nz0PX7n2/+Ce8r/GXWW34EtXD8anPnWOXYKIiHoaX8l6XblzmlzcXWsLQrTs2akrfQ0nmtX/fcgcpGcHDMrUAYfYncDqeyVg4cO0Uu++Jpxjk4GdX/ZMW+ddh1ES3Lp2OjagBBslCyckWJVbdr8Ogj3BZhbdyumg0V3hd16P6fVkP7RM3lAxU7ICQpo9hIq0HyerQA9RtiP82wpZV5ppRCrT625e6TlfuDMc5FWgXoGHSN8NEZFbSgQfzpwJ36/Deeedi7/+Rj4eemAGvvH1fFxySR9bQkREPYkEHEzl7rr428gfb1K352OwWAIEi+TJs2lmYQIUQGZ2lCYVDWvxXZ1JsQgPjbXzXNzHFi4oQj3FEWzfI5W0toGvnIES9rLn4YYSHQSTwBU7nUxN0mSi0mYNhA7u5gyxSvT2iIi6Wkp0OPnj6oW4ZtRQOxXe6Xffx69/fRyPPb4Vv36lER988KEtSR1eHU4uKP9HO0ZElNyWLv9nOxbQ1R1OBpE+HxaNQf0SVek/HrKcq6wy+ylsHLvHIxXeo3NAf+eB0B1OZvr3K2+/COmAkh1OprREnaPSCelDuM9/DkgTjMV5thNThDlHeO4kVDwdThIRkbeOdDipB1uWFvr1PR95Y67E9yvuxMMPfRMDfZfaEiIiovB0hoNPUuGddvlO84gjWD1lOja02KfR+ol0Jp7wdx7otg13L5HOJ4mCNay5DU8MDDS98QceJNJlm/lE6leEiIgoHaRV5oPbmTNn8NZbv8OPf7ILP/q3XXjvvT/YkuTGzAciSmXxZj5cfEnsQeKwmQ8dZrMbmpZglPtViAjXKSD1FF1xjga9mtXOo8Rj5gMRUcd1NPMhbYMPjg8//Aj/8Z8v4gc/3IxTp07rV3wkMwYfiCiVxRN8kIpavDon+KDYJhgBrifT1GN1/jlqmupAmgWxL5BOxeADEVHHMfgQg48//gSv/U8zap6px39sfRG///2fbEnyYfCBiFJZPMEHIqKuwuADEVHHsc+HGJx1Vm8MH5aJO7/1/3D3P0xBzqDLcPbZvW0pEREREREREXWmHhF8EBJpufTSvvjbv74R1f+6APd+dyoGD76CQQjqfIPGY+bMmRgf8kq1TmP3N3PmFIwa1cX7DtXVn52IiKgDdni8xvLY4eW4p2hK27J1o/U6GcPCl3nxXF4PYfazbQpG2HWjySiaa9bx2H+4stDjcb+207+OHSqL7Hyv137GeJyRjpGI0luPCT64XXxxH9w2JR/3zPsGbpowCp/97HnIyMiwpUTxGzReKvuuYcoo9LNl0QStG8d63vph1JeygHdfxtOVm3DgtJ3dRfRn6fBnICIi6h7jh5Zg8NCFqGpSE01bUKSmc4aWY5l9GUnj4wvVdAmKHj8F5M8OqqiHljkV9VCthzbFvJ/BQ9ehLnMyNsdQsR8xbzmOLh1pp4KFK5MgwqM1kwHXsWfNKMM9w0xQYvuEl+xxmGMtWDoXxXZdUbdAjtsOEzfhFTs/nEjHSETpr0cGH4Q0xRjzVyOw+L7pmPP3RRg2LBO9e/fYr4PaTVX2p8zEuKxG7KqsRKUMT7+Md/tejVudSvjxHXr+juN6BRdn3Xfx8tN23V/2wbhRHam690Wfvuqf905Dxx3C7ruLdPf+iYiIOsGrtQfQaMe9nUIi3p7ain2YteAgkDkZc8IEM0QGfJg0bgDqFqxDnZ3niFSGomtQoI51V22LnjSfawDGFfpMkGT2Pj0fuALZmeqfppNo78eKeBxE1COkRG27V6/OyUqQphh9+nwWX59yA8rvvg3/b/L1+NylUnMjitGgkbhanTLvvnwQ/vr16QPY9fK7QN9MDJI4QrimB/0GIVOvuyuQoaAq65ucCX/zCTNMcYIS/UZhiqtJhR70xiWYMQ5ZskzWODV/PAYF7dsEO/zryCABktDj09Nq+3p3gzBeysabZcwxmHlB2/AHUlSxBF5kHdme57YD60b/TLow6Lj9s4mIiLrJ8MJR+u9t4zFTaRdZMx7UzQk2zwCqisvx8CFb0FFHTupAR1ZOIMsiVCta8PDEEszabGe4RCobnnOZHfNWvM40qTh6eDYKJEMjJLuhYGmg2YU7C8RLpOMgop6Bj/qV8z97HkZfNwz3LSzBgnv+Fl+8ahDOPfdsW0oUXr9+ffS/750Obt9w+vR76v82CyGMfoMy1RJt19WkMq5q8u++/LTOHHj65XdVnf5WV8W7L67OfA9P2zJkfQmj+p3GgU27zJOYxl1qvR2BgIjQgRKboSHZGeq/l3cdMBkSUWSpOyxZTwdG+r2Lg7INGXapvfW9GiMHyb4rIZOmyYdHtkO7PpOsNi5w3F7bpZT11ptvxDW057WHRB3hdR5GGniOpr9AgGGAbhox01WRlunBxVt05kBpWXr0Z1Az2zSp0M0uMBmbpV+KYSYjY6bT3EIN83fLd2OaaxARhZMSwYczZ7rmbaAShBg/biQWf+/vcEvRGPTvf4EtIepaJjDxLpqOm9DA6eNNagro089mCijvNh3XgYNYAh1t9O2jAx+xCs7s6IuRTnaCTnWITXs/kxnPwjhmPaSl5qbGmIaLL7nUrkHUtbzOR6+B52jP4PTFIMP4ikDWg0OaKjyiKuLIvyaob4QOGXJ5myyLriZZC1t3nVJjA5A9xMxzO3IifBkRkYOZDyHOOecsfOH/+FA2+2v47vy/wQ1jr2IWBIVlKsbBFWhhMiLexXtSuw4j3Lqd5t331BGZSrwEDYKae8Rh0Hhp2mEzEXSqQyfT/UY8DZ0MMc7VVIPSxqDcqVGHlFC4HAf2v4gVhXY6Vu1dj7qM1zkZOhA5ntl+UP1/JG6K0EdDrHSHkNJBY9MWrO6E5gruPh6EaU5i+oCQziHdTSmGZA9Q/2/bl4XTlwNwED9jkwoiiqBH9/kQjvNazpsnXotlD30T9y+5HQN9fKJBHo6f0M0c+l49Ev6H8v1GYZx0BNH4y8iV++MHdYU6dN0p4we1yWYIzRpoD70N2yRCmi/4+5bQQQknCNLPvC0jRk6zkyBhsira+5n6jRof1KSkb1wpHtQzTMQKVXmXCnxNWeCxW27ZU2reckyy04k2qULtc9OdyLXTsWrvepTicu9EjT1PQ8/VNlzLRlyOktPml3SHigUT2t/0wmneofta2L0u6pskJABwzza7vMzIn63XlzduRCqTTI0JCw4GNSepW2D6q3ilohyPZJv5MizLP+Xvy8L9Cs6jhx9EaeZBzB+6EjWy/TAiHQcR9QxsdhGBZEH0738hvjb5evz03+7D7dMnqsrWBary81m7BNFx7KiUSrHNKJDh1qtN5buPdMMYiVSo5Ym+e90++KV0anB8h+73QJ70y/xbr+6Lxl0de3WmrvzbziD1vtSgmzGcPoBf6q4bblXzbkWfJukPIrzjB6XcHPOtmZLfEXD8hIQHwjSRaOdnOn3gBPrcKuvYjAt2+kAR+EpKOy3YEFVtOUZdex3urrXTsWrvepRCJmLFhhKgerr+WU+tblHn6v2YEyYCNalULVu/F92XZN+zOR0juiv8zusxwzW1cJf5+0PwvynCW6T9OE079BBlO8K/rZB1pU+KSGV63c0rPecLp88HMwQ60QxdJydK4EFEOw4iSn8Zg3Kndk/NPg4/rl6Ia0YNtVPd56OPPsYzm+vx8SdnsPif1tu5ifXJx/vtWMCC8n+0Y5RKBo13XqPZsaBBYsgbI27F1e/tQqWuvNtpvIynN8XW6SRRLJYu/2c7FnBR//52LJh00Cdt5WNJWe974THdmV/lY1V2jptkPizSlbW8vDFoURW84jVHdObDxpJmLL62HFtlMXmarCqAThKxsxwwBHM2rcc0d0ftLdWYOmUtGqRJxKIxdqazDtosX7/kOtwNs6werzXHlGfLzfZ2YkLU9dRMz32q49THPxbPVzdjWoktr1+CUfO2mXFKuISdo/pnOhAbpt2G1Q1q2p6LEoww56CLXhZYPK0Jd4RbhuL29jvv2LEA97Vp5/ZtGJx7Ey7oM9jO6TjdZMJ5yh9C+o7wCmREkujtdYZUOEYiar9vl92C6SUFuHHCRDvH8LrGPvLD1bjyyit1qwL/YMsoBq2tZ3DZZRfhissvsnOIwju+Q5o3JEPgQZzGAUlv0K/glCyCW3F139jfdkGUCjKb67BB3dd6PlG2lb0mVcGXJ8+jplUDJetNPwuFpZjm24vFdn6L+m/DvWvRIOssMsGMwNNqWecIVk+5Dovr1boSVPDKWsg9gUrZngxL9spBYWZM64Xbpy2HD9PGNul1pQx5t4d9ek7JIzd7oB2LZgjm3C4//yoTMKOUFvpGCPfQnkp4orfXGVLhGImo+7DPhxi8/4cPcOTob1D1xHN4cOmP8ODDP7IlRClEd9xo+nswQ7IERogS5QRW3yvBA1VBLw2OyGNQps54yFtk29zbDIjM0K7Z7XIid/xYNd6C53eYp84NO/aoKY91vDRkY6Zts+/OYogmln227NkJeXjecKJZ/d+HTL4FJm3klt2vA2FPMNOBiIjSEDMfIjhz5gzeeus9PF2zB+ULKrFqdQ2On/gtGhtft0sQEVFSaViL7+qMgEV4aKyd5yJNG3Q2gh10OvvxJlXBH4PFNlDQUn2fSY3vgEkV0uTCZlNI5gNRDHIGSujLnos2QCaZL+x0koiI0gE7nAzjvff+gJ+/8CqWr3gK6x79D7z6amO3dXxJRESxa1jzJKRlg8/n5DAoOsAA5OWHZEQoOtvANoPwBySU0MyC0KwEzZeJHDsajmfKfZj1YtonpRyTweLDDeNNECHo5ypNbfabt1psnecKjukmQK4+P4iIiFIcMx88/Pa3b+PfnqrD0uX/hv/4zxdx+vTvbQkRESW/bbg7NNugYS2KZV7eIv+rDg/sf0r3l6Ar/L4SbPTPf9H0sVBbrvtVcJpqbCzxoX6J7TBQ2bpb9mGeUgf6ZDC2VknF0ZRtHKsqkHa+iLRetH1SirLnn2QxtPm52qY+TScYYCAiovSWEm+7+MmP7sWXR3Z+j1rSzOJww/9izdpnse/FQ/jDHz6wJV3H620X4XqKJyJKNtF6lHeTNwlcfMmldiq68G+76Aj7posm560Rdhr2bRdmIeqhuuIcbfNWFuoU3fG2CyKidNPRt10w+KB8/PEnONF4Cj/d9Dzq9/4aTc2vd1sTCwYfiCiVxRN8kIpavBIffFBCXm0peQr+VyJSj9b556h9TazzmlXqNLEGH/a//gtk2XkBp1C14ADGLZ0cXLZ7HXJm70PGsCnYXuNd5sVzeS3Mfpq2oGjiJrxiJyPJKJqLo0tHeu4/XFno8bhfielfx6pbUIKZm9V8r1dqxnCcwdtTn7e4HA8fspNElPR6RPDhx9ULcc2ooXYqsSTbYeeuX2LLf+7D7ud/hQ8//Ist6R4MPhBRKosn+EBE1FViDT5I5kMGfJi/7UGUIlCZdirosBXzEfOWY/OMAbqiPqH2Ws8yp6IeTiz78VfyY6jYO/vVQgIM4cqc7WcFHTt0UGAZ1LGUncR4taz/WDMPYv7QlXjGrocon9FNfzZne07AI47AChF1v44GH3p0nw9vvPEuqp6oxXfvexzbd/xXtwceiIiIiCj5vVp7AI123NspJKIbj1bsw6wFB4HMyZhTZGd6kODApHES8FiHOjvPEakMRdegQB3rrlqT6WA+1wCMK/Sh9dAmHSgwrkB2pvqn6STa+7GCtnfoZJTvj4jSUUoEH3r1yrBjifHhhx/pbIdbb1uMihU/1W+24JssiIiIiCgWwwtH6WYKjccC3clmzXgQxw5X+zMHEtac4IipqGfluN7gE6IVLXh4YglmeWQhRCobnnOZHfNWvK5af6ajYbIvCpaachl2zAt/fG0Mu9x8f7v2M+uBqAfpUa/a/Oijj/HiLw7h77/9A8y9+4c49fpptLYy6EBERERE0QUCDKbJhbvJgUwPLt6iMwdKy0bbuamtZnYJcoaWYPDQhajCZGw+vBz3DDMZGTPVfCmTYf5u+W7KdFk0uqmHbXLxHdu3BBH1DD2i2YX06yCBhi3/8QL+6cGN2FP/a/z5zx/ZUqKeqbm5lQOHuIeSknJ7BhER9TwSYHAq3E6njG7StOARVRFH/jUoNrM6bojNEnBlWXQ1yZ7YuuuUGhuA7CFmntuRE+HL3EzfEdJR5UHMZ18PRGnN/ZDfGU/74INkO/z8hVdx97x1+N6S9Th69DfMdiCypGMtDj13ePP1X8Q1vPVG2w5xiYgo2DPbD6r/j8RNEfpoiJXOEpC3QzRtweoYO3aMh7uPB2Gak5g+IKTzSXdTiiHZ0mFl274snD4lgIP4WYRjDO20ssbOJ6KeI22DDx988CFe+59m/OjfdmLp8n/Dgf9qwEcfsUNJIiK3I0eOxDwk2ltvvhHX0J7XHhJ1hNd5GGngOUra5pd0x44FE9rf9MJp3qH7WpC3U0TJEpCK/T3b7PIyI3+2Xr+yKHKZZGpMWHAwqDlJ3QLTX8UrFeV4JNvMl2FZfuDVmPLKTGf+0cMxBhSKblHLychILLPrHrPNOIioZ0i7V21KE4s33nxP9+1Q+dh/orHpdXzyyRlbmvz4qk3qKpJCL0+/qeeSG794ggq5ublYtfoZVFcvt3PaiudVm1JZa26Krb/zL1/zFV2xq3ysys4h6nw8R9NHPK/aJCIib/G8anPdmh/gqquu0q/YzMjIQO/evdMr8+Hjjz/By786hgce2oh/Wfk0jh3/bUoFHoiIeqJBuVOjDhSDwuU4sP9FNTyFObl2HiWE1zkZOhCFkiYTlf4n/MFDXG+GsBK9vc6QCsdIRN0nbYIPp999H888uxfLKn6C7Tv+S3cwSUREPUDunajRlW7XUBEcke8yXseih84OCAzBnNvHAC3VmHrtbVjdYGdTcnGdHzVlYXrm8weRzLCi0M6nlBP6Rgj34NVZZTSJ3l5nSIVjJKLukxLBh169MuyYt5+/8Aq+u7BKBx4k84EdSiYxe1MV8WbK3px53pjFsn5X0seTHk8Z/e031wXaqHo+wdg2BSNsOVEyaamejlHXXoep1eoGN29R+MpdZ2pYi2J1DKOunY4Ncp+tgwEy3dkBgWxkykPFphNg3CF5TSotAer3ImwVTP7+5dfp89g5h/IWLcckW0xERJTKUjbzQd5iIR1KSvvj7973OHbtfhm/+90fGXgIayJW2Kco7hvy3LKn1LzOu7GZVKH2uelOdG/d3H72rnwSmkxPYmMgPVofld60w6hb4Hp6wVdjUZJr2LEnuHIX8iTZuQbq65P/+mevE/7r1RDM2eT6vQ35nQ5cR816KyrMPiIHPLyWDVyb9eDsX+/vKcwpcx27/xpij83OX1Eo04uQJ0V5i9Q8+5kScsyUMOo8XJy3F09UNdkZHiR4NW+bnbABpZYmHDMziIiIUlpKBB/OnAkOKEgTi5pn6nXQobLqP/Hb377DoEMcfCWl3fcUpbZcP9G5u9ZOp7mkeBIbhfOKrLoF63Tv3ESpLnf8WHVWSxLAEVMBXzQm6HfRV7JeZ09t3b1XLTUQ2VLbz1UVPVnZl4kc+Tf3RtygNtLSfMJsY0MJmpbI02g1TKsG7DYcearmv1iVFa+J3oFn0LK5J1Ap25RhiToeXwlm+rfrw7SxTTpzwlxDbtdZVrll92Oab6/ehrmeHsHqKUtQL6vUL1HzyrE1wcdMHWWaxbRUV2GrnROOCYrJsAh5kjkzZS2zWYiIKC2kXObDG2+8q99isWrNMzh0qAkffsjXZ8ajvl5utsfgjnCV4LBPyoKftOnBeULn+VTRLL9YHsWpm+mNar6+6Q1qNhHmiZ9j7P2BsnBZA2GPN0ZhnohGOjaTLWLmr8i3M6NI3iex0j6zBQ9PLMGsCO/mLlgaaHbBDqMoWUlQQc75jSU+HWyQIKcJRLTg+R2mgu38LmZmq9+L401q3IcbxqvxQZnwqetjvbo+Fsj1Saad9fS4xA/t75uq1Mu03oYVS6XSEbRsQzZmyjZlWDTGzgxo2bNTVzwbTjSr//uQOcgZH4PFah13MCFIgo+ZOsYJGD0RQ6Bn6zwbMJJmF5C/n+xAlIiI0kNKBB9ee60ZH374Ef7rYANmzl6Bqidq8fbbv2O2QztkNtfpNqS+kvvb3sxEelJWWBp40qbmt6j/Nty7Fg2yjudTRXkSdx0Wy6M42+a5TbZDxCd+cpu9x/XEb1Hbm+xIxxuLsMcuZWGOTa3zkK3YyI1hU2bbyoKXZH8SG05ox1Hzd8u7x8v4Tm5KSs7vlAwxnfcNO/G8XA8HZmNS/hjU7y5HnbpmSQVdplXNH9tdj5zrnd+3ePYRxaQKaS5hr61yrYmFziBz+gOIHGDsjGOm+OUMlL8AJmDkBILkuh85OHwE2/dIqMwEnYiIiFJdSgQfHli6EVeP+hb+dtpDOPSaPPGh9juB1fdK8MCHaaUh2QQxPCnT7HIi4lPFaGJ94hdum7EebxgRjz3MsQWvcwSrn4xcWUiVJ7GxOnLilPr/AMT4FVMKyc3NDTukMnfGgAj9HdaVu8wCFGS2oOk4cKxZ/QaOLVXTgWuQ+b1Uv2/5YTKwEiQ3e6Adiyy3bDnm5AaaWkjwpI0uOmaKTSCbQQ06gG+CZToYJMFkdR2XQIRk1rkDEiZoYc5N6ho73B0s+4fluKdoStsy20FzxrDwZV48l9dDmP3E0dGzV+fRjnBlocfjznD0r2OHyiJbYBWvC5QdOzwXxXZ+JJGOkYjSW8o0uzhz5kybvh+onRrW4rs2m+ChsXaei+eTMn0ja5/a6Kf293W45/Z2PfHzkDRPIz2k4pPYcJy+IYCD+FmEJhqUmhoavH+hw81PGbXlOrvICdRJILB+SeDNEzr45xuDPF8zTqh5gelAgFB3AijXAd2Zow34JSgVfmuVVETNtXWjuh5LpTSahjV1yNwgx2CvU/4OCl068ZgpwWwwWTLjGtbchicGmqC1DIvzWrBhGl+d2pXGDy3B4KELofsFbdqCIp35V45l9nLQ+PhCnQlY9PgpIH92UEU9tCy0ou5oPbQp5v0MHroOdZmTsTmGAESkzqPDlclbrR6tmQy4jt3JcJSgxPYJL9njMMdasDQQYJDAw7L8g5ivj12GlaixZeFE6+CaiNJbygQfPv74EzazSKCGNU+aJ2a+wB/NSE/K9NNC/yvjApXcyE8VLafZQAReT/x8Y2/UfR2YbdomC24dfLIX07Er7mNz1tGZCbYDsXgl25NYCSrcs60aRw/PRoHMUDdMztMN9xOPo4cfRGmm3GREv7mg1BQaaOiKwMOXr/kK+l54LOoQkX29Zbjgm1To3EG6oCZgdl3dSWPQdEiFz3aWGxic8m24W0233bdpejYqqLNAj2X9+5Nlb9Pj+vhCP1NQZ71mO+Y47HE789yBiLiPmbwk5Bx1C/nZmr8xe1Fnz8ugLIlOf0UrtdertQfQaMe9nULobUt7SPPHWQsOqvuCyZgTJpghInUeHbFj6aJr1N/+U9hVa0Kf5nMNwLhCnwmSzN6n5wNXIFvagjadVFc3E5j4Vr4ESZ6J+Z6AHVwTUcp1OEmJom4+Q5/oyw1RmCdlusJsO450ynT/AlGeKpo+DLw7Rov8xK8FG/Zk6v25mywEiXC8nlzL6bTWCMce9tjUOtKPhWlOsR6Ze0z6bFyifGdd/STW6XDSPLUIDDM3q7LNK0PmM/CQ7pyAQ1cEHhYuXIiZ3yyNeSDqap1/jk7ETP03wAkiUaoYXjgKWerfxmOBu4CsGQ/qYP3mGUBVcTkePmQLOurISR3oyMpxPTAKEanz6Ehlw3Mus2PenGYV+gGFZGg4r9secrn+/M5n1kOU7IxYOrgmovSWMSh3KtMJksgnH++3YwEX9e9vx7qLvGVhPaY1LbFP1ew0+AqwVNbc3IoL+gy2U9QTyc3ikSOxP5qT/h9WrX4G1dXL7Zy23n7nHTsW0P3XMCLq6aJdm3Zu34bBuTfpv4vyhH7+tgdRikBlWzdBqJmsK9wOaRoxvqLFXyZNFybUXmuW270OOf6sAW+R9iPbkm3r5TzmhaObUUigwGP/XmXSDMIdLAm3L/+xZp7Syy4bMlc3n6hbYB5WJOoYiSi5fbvsFkwvKcCNE4Kzr72usevW/ABXXnklevfujYyMDPTq1YuZDxQL27Gi/yn7ekzz2bdd2CWIiIiI0p3TF4MMXpVsaarwyG41kn9NTJ0vxsRmGbizLLqaZC1s3RWh0+lDJjuDiCgSBh8oNmHbDhNRqpIodOibLSINREQU3TPbD6r/j8RNEfpoiJXOEpAOGpu2YHUnNFdw9/EgTHMS0weEZEW4O9Qcki2dTtu+LDa/pPttKJhg31ih+47o3gAJESU/NrtIMsnZ7ILSUUlJuR0jig+bXRBRqklUswuvZgWhZbE2K4i1eQfiacIhnUK6SLOIWZvDl+kmE0WmCYXDmS/MGy3MuAQe3H1ZhK7nNEMJJ9IxOvsjouTW0WYXDD4kGQYfiCiVMfhARMkonuADERF5Y58PRERERERJRjIgKp03QYQM7uYMsUr09jpDKhwjEXUfZj4kGWY+UFeRpzxE7RUa8XbEk/nw1ptv2LHYyGsPKx+rslNEnY/naPpg5gMRUcex2UWaYfCBuopzo0UUj3vvne/5R8cRb/ChuSm2/tG/fM1XMPObpazYUZfiOZo+GHwgIuo4Bh/SDIMP1FWcG623bv9XO4coulWX/0/Cgw/q75CdE17fC4+1r2JXuBwHFo1B/ZLrcHetnRePjq5PKa1LzlHqEgw+EBF1HPt8ICIiUiZVvIgD++2w6U7w5aCUdHLvRI09R2vKhtiZHmJdjoiIKIUw+EBERCluCOZsehGL81qwYdp1GHWtGp7MxEOstFGSmVRaAtTvRfiXERqxLkdERJRKGHwgou73xcvRunQoar9op0NFK08EvY8srPycnabUkXsjbvABLdX3YXWDnVdbjuI1R+yEizSjsE+Ug58qT8QK13zPzAnnaXSFd5MToojUubc4by+eqGqyM8KIdTkiIqIUw+ADJR9bOVhRaKfjFW79jm43XX3uYhxVFXup3PuHqRdEL4tFO4MGM6eq/XznYoy207Fq73qU2nLHj4W8wK3phEewwU2CB4vGoKV6us6OmFrdAl/JenNNyD2BSsmYkGHJXqgCzAy6VkzEig0l8LVUY+o8vimG4jUEc26Xc68KW+0cb7EuR51lh8crIo8dXo57iqa0LVtn/tpkDAtf5sVzeT2E2c+2KRhh140mo2iuWcdj/+HKQo/H/UpM/zp2qCyyBVbxukDZscNzUWznhxO8PfV5h9kCIuoRGHygbpXKbbRzy54KHHuSPQnV32uc3+ex3Y3IWHAY1+/+EBh2GY5OONeWtC1LeAbCr07q7Rf+yk6HilZOFAMTpGjB8ztMkKJhxx6d1p6ZPURNZGOm8/u8aIwud8tbtAh52IvFU9bCSa4gilVu2f2Y5tuLJ7yycVxiXY46z/ihJRg8dCF04knTFhSp6Zyh5VhmfySNjy9U0yUoevwUkD87qKIeWhZaUXe0HtoU834GD12HuszJ2BxDAGLEvOU4unSknQoWriwDo/FozWTAdexZM8p0UECCEtsnvGSPwxxrwdJAgEECD8vyD2K+PnYZVqLGlnkJ2l7xFjRiAEpXxB5YIaLUx+ADdZNuaKNdW673k5Ae6wuXY2OJT/eAr5+gNhdgTpr0brfv13/AMTvu7UMceR0YPSELgWYKF6B26dCggEUbOotCLT/BZEMEZVH4MyTOxcrvDMWj8iTk4v54wcmaCMqgMPvyb0NnOoRZT4Rkb7iP0XwGM792uJ1JKafhRLP+VwcR2mlShQ0uOJkPIeqrq9GCMVjMJhfUDjkDpYKqzh8JbkkGjZqSrJvQziRjXY6636u1B1TlOZJTiJaMFYtW7MOsBQfVBW4y5oQJZogMdbZMGjcAdQvWoc7Oc0QqQ9E1KFDHuqvW9DBiPtcAjCv0mSDJ7H16PnAFsjPVP00nIR9LAgnfypcgyTMRAw5uQds7dDLK90dE6YjBB+oe3dFG293sQs9/CnPKXNv2VypMYMQ/X4aQbedmD7RjRsOacvM5Qpt26Gm1H1k50j4jHo8S5TtYUWHKa8om2qCOKvKVYKOUxdnMZPSVn0WO+vfomx+aGUpOvqmkv6BuNFatasTc14F929/Bc6rSf9ffXIyVUy/DzXgfFdsD63hTyw//CNf7syj6h/Sx8CHmfv8wZh1So2+9o5drk+3wuQ/xgJovmRAZT72vgw33fjHMehJ4uKs/jj5ll1/1DqA+iw5MqLL1+efarI5GHLnkfNk6paLaKmxQ982+klJMsrP071RIoMAEKXzIHGSmQzMhHKG/39qJtXiiXv2bd3vaBBqp62ydZ4PsMkyTQJb8/Ztu/ubZv1NyXY+4HCWV4YWjkKX+bTxmKu0ia8aDujnB5hlAVXE5Hpa/SYlwxFTUs3IkHOWtVZ0tD08swazNdoZLpLLhOZfZMW9Os4qjh2ejQDI0Jm7CK1Iw5HL9+Z3PrIc4modgmFm/cdd+sz0i6hEYfKBukRxttH2YNrYJU+12/ZWKwlKd9qqfgOqbvxZsuDc41bphzZPQ9ZBFEgywwYWYhO5zkSs4EKYs0ndg5eVBH2/xmm1YPeU6LJaDk8+t5sWa6REIMJgKubvSryvoquJ+TIIHNzp9PvweD0gAQVX+7xoGPPfUSVTakkiOvfp7yHOPfW9+pP5/LobE28Hj6+fiXput0HpblIDB587RgZSbb7PL39VfTw++5FwbZPkQW38tAZMPMbfufVmDUtIRdd5Px4YW+8RYhg2ZeCL09762XP/+mN/bF2320m06cLi1ymY2yPyx6tfHruK2dd4S9Xuvfk8fSK0mYpTkBmXG9veQkkIgwDBAN42Y6arQy7S/OUFZevQ+VDPbNKnQzS4wGZtD+mmoW2DL5XNnTsb3Xc1QwnGaemQ1bcF3KryutkSUTlpbW+0Ygw+U5Dq7jXbLnp26LPSJqJ+9KWxrG+52ggRSGdngzkaIzL9P92exvMoifgdWIjonc/p1kGGwVwbD62+hQp7iDDsfM82cIFKh7wozbZbFLCfzIQbPOZkPkT4fdYsvX/MV9L3wWNQhOglA2GCkHsrN70RIc6uGNbe5lnEF5xrWotiZP+U2Pa7LgtY3v/ej2O9Dj5K4c9Sy55qTzWAybfaiLjRQHLIcJQenLwYZxntUnKVpwSO71Uj+NVE7X4yZzTJwZ1l0Ncme2LrrlBobAM8WbjE2o5AmIPO3zUYBDmK+k0VBRD0Ggw/ULZK6jfbxJrOeDWoENQ0JYSoy8jQU8A3MNjPTWOWrUtk/H18LabYgzR1y8i9L7GsqLz4H0bphGH3JOXbMxb3e6x/p/ituHt72DR1O5sWkKyVoci5WFrDZRVdbuHAhZn6zNOaBqKt1/jk6ETN1Bo4NllFaeGb7QfX/kbgpQh8NsdJZAtJRZNMWrPZoNtFR7j4ehGlOYvqAkE4q3R1qDskeoP5v+7LY/JLuP6Jggs3w0H1HRA6QmMDDgyjNlE4qI3dOSUTpicEH6h5J3EZb78M2WZAnnl5PneRNF/5mD7nZkD6YWppP2MCFE1Qxr0wL5Rt7o07Z9mp64lUW63fQhi9TNzFIqF+9j+fUP1KZn3mjNGEw/TxU7gxtktExTpDj0aWujiMtsy9T9sJwBHWO2Wa919/CYMmOGHaZaXahB9tJ5q9O2qCJ6ThzyKuyXepKlY9VxT0QdSWvczDaEB+TTRNr8zhKEaEV83ZwmnfovhZ2r0NOlCwBqdjfs80uLzPyZ+v15Y0bkcokU2PCgoNBzUnqFpj+Kl6pKMcj2YE+HZbln/L3ZeHvCNNuS96kEdoMpY2iW1AqN0wYiWV2m3zdJlHPkjEod2qgEQZ1u08+3m/HAi7q39+OpRvp2HE9pvmD6pLFUI6t0rniojH6TRJyQyYVfWmb7XDm62CF7Q0cLS1o8fnQJGVwry8dMi5CngQTnszERmf+cbMunI683Pu067v59+lnt2un1AIYZduXy2sudYePimRfZJaMxfPTbsNq2H2qY/WpYzUL2PXsZ/EsU8J+B/Y4MkM7JLOfR7Q9dmPn9m0YnHsT3rr9X+0couhWXf4/mF5SgBsneGcUvf3OO3YsIH2vYUSUKqJdm5y/iRf0GWznEBFRqG+X3eJ5H+h1jV235ge48sor0atXL//A4EOS6VnBh2RkAyJNTsXfTqMaUzvaztsJMHj1XB6prJMw+EDtweADEaWi7gg+6CYTTrZBCMkS8OozIpJEb68zpMIxElH7dTT4wGYXREGOYPWTe/WbJnRHlvslM6Pt2y6IiIiIIpGmCTNt55ShQ3sq4YneXmdIhWMkou7D4ANRKNu7fWAwr+LrsEg9l7NXcyIiIiIiSmMMPhARERERERFRp2LwgYiIusVbb74R19C+VxkSERERUTJg8IGIiLpNc1NjTMPFl1xq1yAiIiKiVJR0b7u44vKLMftbk3HzTaPwqU+da+d2n7/85WO8+IvXsPqHz+DQa812bufh2y6oqyTN2y6+eDlabzsfzz11GIW/svPcopUngt7HOVi1qhFzX7fzyFMi33Yh2QwSWFB/h+yc8PpeeExnPlQ+VmXnEBHFrjvedkFElG7S6m0XEnhYsmg6iovG4IILPoNzzjmr24fPfOZTKMj/Ih5Ycge+PHKIPVKiNPK5i3F06VC0uoepF3jP10MWVn7OrhuJVOjV8rVftNMxmjlV7eM7F2O0nY5Ve9ejNCCvqtVvp3ENm+5Ebrj5djWRW/ZUoKzCO6BCRD3HjsPVONZmWI57iqa0LVtn/uJkDAtf5sVzeT2E2c+2KRhh140mo2iuWcdj/+HKQo9nxzyfLXGtY4fKIjN/xLzlQfNDyyOJdIxElN6SKvjwrZlfxfWjh+Oss3rbOclBojQjRmRj8fem2zlE6efY7kZkLDiM63d/CAy7DEev/D0Gq+mMBY1Y9ZZa4K13cL2dTmh2wK9O6v2GzWqIVk5ktVRPD7ylZkrg9biB+UtQ7yvBRicAUbgcG0t8qF9i1pnaXIA57sgEEfU444eWYPDQhahqUhNNW1CkXxNZjmX2ZVSNjy/Ur40sevwUkD87qKIeWhauIt56aFPM+xk8dB3qMidjcwwBCAkIHF060k4FC1eWgdF4tGYy4Dr2rBlluGeYCUpsn/CSPQ5zrAVL56JYrfdKRbme7wzzd8vWDuJnm+Xf8CIdIxGlv6QKPkyYMMofeGhueQOVVf+JH659tvuGdf+OV145oY9HDM0N/IEhSlf7fv0HHLPj4YyekOXKgLgAtUuH4uiECM2kdBaFWn6CyYbQg2RXCH+GxLlY+Z2heFTd8ODi/njByZoIyqAw+/JvQ2c6hFlPhGRvuI/RfAYzv3a4nUlpbhvuXrIX8JVgZiGQmz3Qzjca1pQn5rW6RJT2Xq09gEY77u0UTiTg7dmt2IdZCw4CmZMxJ0JWQQZ8mDRuAOoWrEOdneeIVIaia1CgjnVXbYueNJ9rAMYV+kyQZPY+PR+4AtmZ6p+mkwj9WBLAuClfjex+CTVmlqeIx0FEPUJSBR/O+9Q5dgzYU//fWP7PT+FfflDTfcOqp/HTmj32iIh6htFXfhY56t+jb35oZnjYt/0dPKcq/Xf9zcVYOfUy3Iz3UbE9/PKGWn74Rzp7wmRX9A9pvvEh5n7/MGYdUqM2y6JNtsPnPsQDOvtCDU+9r4MN934xzHoSeLirP44+ZZdf9Q6Qn2UCE6psff65NtujEUcuOV+2TinOV7Le34RiRaGdGep4E+QWOzN7CBrWPIl6NZ63SNZ5ilkPRBSz4YWjkKX+bTxmKu0ia8aDujnB5hlAVXE5Hpa/S4lw5KQOdGTlhH8I1qqubA9PLMEsj8yDSGXDcy6zY96K15nmFEcPz0aBZGhM3IRXbJlj+Lyv6QBG1RonUOEt0nEQUXpqbTXdSzr/Ju3bLj755Iwd614f/+UTO0aU3nJUxVyyAF6wlfLIzRx+jwckgKAq/3cNA5576iQqbUkkx179PeTWZN+bH6n/n4shsfQd4fb6ubjXZitIJ5QRfe4cHUS5+Ta7/F399fTgS861AZYPsfXXEjD5EHPr3pc1KMW5m13cXWtnRrQNd0tzi2qpPPgwbcOLqClj3z5EFF4gwDBAN42Y6apIy/Tg4i06c6C0LD36M6iZbZpV6GYXmIzN0i+FZBpakvUwR30XaDqArYkKthBR2kra4AMRdS2nzwcZBkfNYggmFfquMNNmWcxyMh9iIG/JcD5Xez4bpZlBmZBnh02ufOiGNbeZ/iDUuG9gtplJROTB6YtBhvEVgawHhzRVeET6P8i/RveNkBBDLm+TZdHVJGth665TamwAsl0xWpP1ANQ92jYjgogoFIMPRBQ/V7MFae6Qk39ZbG/AiNXF5yBaNwyjLwk00/Jzr/f6R7rvipuH274lXJzMi0lXStDkXKwsYLOLnmEiViwaIykSqKw1b7rwN8/IzYY0Z25pDvTzQ0TUHs9sP6j+PxI3xfDmh2h0h5DSQWPTFqzuhOYK7j4ehGlOYvqAkM4h3R1qDskeoP4f6MvC6cOhs46NiNIPgw9EFLeZN0oTBtPPQ+XOd1Ql/1zcdWPbSn57VL4qGQ3nq5stV8eRltmXKXthOII6xmyz3utvYbBkRwy7zN+xpL+TzF+dtEET03HmkFdlu5Tq3H0+uF+pGZi/CHn1S/xvwpA+H6D7e1DDhhL4VFnxmgT0EEdEPdvml3SHigUT2t/0wmneofta2L0OOR59LbhJIOCebXZ5mZE/W68vb9yIVCaZGhMWHAxqTlK3wPRXIW+0eCTbzJdhWf6p4L4sim5BaSbQuGt/TFkPkY6DiHqGjEG5U03vD0nglZercN55Jn37yfXb8ODSH+nxeJ1z9ln45MyZhPQbMaV4LJY+WGqnVGVlaIkd6xyffLzfjgVc1L+/HSNKnJ3bt2Fw7k146/Z/tXOIolt1+f9gekkBbpww0c4J9vY779ixgHDXsLfefAMXX3KpnYpu5jdLUflYlZ0iIopdtGuT8zfxgj6D7RwiIgr17bJbPO8Dva6x69b8ACNGjEDv3r2RkZGh/03LzIe+fc/HN2dMwtlnm9d2EhFR8lm4cKEOKMQ6EBGlEmkyUWmzBkIHd3OGWCV6e50hFY6RiLpPUmU+nHPO2cjIMOOStfDxx+1708Sll/TFC/U/wCOV/4GVP6hp93YEMx8oXTHzgdojkZkPRERdhZkPREQdl1aZDx999Bd8+KEZOhIwcEwvmYCHH/qmvykHEREREREREXW9pMp8SBQn88HxH//5Iubd82i7AhrMfKB0JU951ldLl1hE8WHmAxGlGmY+EBF1XEczH5Iq+CB9NGSo/zoqJ+dybNn8gJ0yVq1+Buse3RJ3AILBB0pXcqNF1F4MPhBRKmHwgYio49Iq+PBszf341KfOtlPt95nPnIcBn+tnp4yPPvoYP9t+AP/wj2vtnNgw+EBEFDsGH4goGTH4QETUcWnV58Og7AHIGXR5h4fQwIM455yz8H+/eh2+d2+J/vBERERERERE1DXS8lWb4bzzzu/w71v2obU17bq5ICJKOW+9+UZcA1+3SUSdbYfHKyKPHV6Oe4qmtC1bN1qvkzEsfJkXz+X1EGY/26ZghF03moyiuWYdj/2HKws9HvcrMf3r2KGyyMwfMW950PzQ8nCCt6c+7zBbQEQ9QlI1uyjIvxq9e3U8HjJ0qA93zbnFThknTpzCd+atxauHmuyc2LDZBRFR7OJpdiEBheamRjsV2Zev+YoOPlQ+VmXnEBHFLp5mFxnwYf62B1GKLSiauAmvqHKpoG+vmQw8vhDjK1p05XvzjAFoVNMTaq/1LKtbUIKZm832vcSynwyMxqOHZ6OgKbBMOM5+td3rkDN7nxlXwpU5288KOnagqrgcy6COpewkxqtl/ceaeRDzh65EjV47oHhdNZble5c59Gdztmc/Z1YMn4uIkkdaNbuo2/0yduw62OHhp5uet1s03njjXdz+zeVxBx6IiKjzDcqdGnXoFLl3omb/i6gpG2JnEBHF5tXaA4gcOj2FE0fsaAe0Yh9mLTgIZE7GnAhZBRIcmDROAh7rEPoeq0hlKLoGBepYd9W26EnzuQZgXKEPrYc26UCBcQWyM9U/TScR+rEkgHFTvhrZ/VLYwIMI2t6hk1G+PyJKF06rA/k37ZtdSODh2/+wBidPvm3nEBFROppU8SIO7HcNm+5Eri0TujxkXsLYQIbeb0Xw04DAcT2FOe3duXv7QUP7ttmp3wVRDzC8cBSy1L+Nx0ylXWTNeFA3J3AyBx4+ZAs66oipqGflBJpDhGpFCx6eWIJZHpkWkcqG51xmx7xJRoN8pqMRsi+Gz/uaDmBUrQlkWkQ17HLz/e3az6wHoh4krYMPp14/jfsWP4mDv0xA6JmIiJLUEMzZ9CIW57Vgw7TrMOpaGZag3leCjfuXY5Jdqiu0tKiKSN7troDARBTk2fkd0bAWxfpzTccG2VRLNabq6duwusEsQkSdLxBgME0u3M0qZHpw8RadOVBaFr7Ph1RSM7tENzkePHQhqjAZm0P6aZCshznSnKPpALbGGGzRTT1sk4vvVHTw2khEKSWpgg9FX/srfP3WsXr44lWD7Nz2eeut9/D3c1bpphxERJTGCksxzSf18ftcFfFtqKyWm9oxKCh0ghNqUgckXsSKQr2QMbDUO2shJNsg0DxjIlao6RUVy0PmK3v2oB4+3DDezissQB724vk9ZlLT230Kc8rM+kH7jVQWSdhjNZ/dmb8i2ndBRBFJgEEq4zJIHwmhpGnBI7vVSP41KDazOm6IzRJwZVl0Ncme2LrrlBobgGzXJc9kPQB1j8bWb4PpO2K2Wucg5rOvB6IeJ6mCD/+06O/w0AOlephU+BU7N35//vAj3PY39+PXr5ywc4iIKF3lZg/U/zaFNLBuONGs/83MBlZPuQ6L69WEzRi4u1YXab7MJnxXzZsqwQona0Eq8xtK0LTEZlJMqwZK1gdV1PNUBX6xKite497vTtSp/fjG3qibNEzKHwPU12G7KXTxYdrYJn0sZr+LXNuOVOYhwrHmlt2Pab69+jil7O7aIxG/CyLquGe2H1T/H4mborz5IRY6S2DpSHWB24LVETqvbC93Hw/CNCcxfUBI55PuN18MyZYOKwN9WTh9ScR6bNE6rSSi9JeWzS5+97s/ouV/37RTRERE4bXs2QlJmDDBCh8yJfFuUKYak3q/zRpQlXuZznQ98muprsJWO+52rLlFog+YkGuaXNTv3mZLgvn3u2MP5Hlm0LYjlLUR4VjNZxqDxcxwIOo6m1/SHTsWTGh/0wuneYfua0HeThElS0Aq9vdss8vLjPzZen159WWkMsnUmLDgYFBzkroFpr+KVyrK8Ui2mS/DsvxTwX1ZFN2C0sw4+m2wy0tgZpndJl+3SdSzpH2Hk0RElN4CGQ7BFfRwGRHxqHeyCewQnOXgzQQMfJi2YZFuclHXRZkFnsdaW67GTT8REpzgmz2IonM6aHRX+PWbGiI0tXCXyRsqZkrTDP+bIrxF2o/TtEMPUbYj/NsKWVf6pIhUptfdvNJzvnD6fDBDcCeaznpe34mX0P14bZOI0huDD0RElNpq6yCtCHwlpa7OJSdiZolPNy2odFf+fZnIsaMRHW9St+uqwp4fQ38LoRp24nnnXry+zjM7QjhNM3LHj9WZCu4gSaSyNiIca27ZcszJlaYWS8x3NDDbFIhYvwsiahdpMlHpf8IfPLibM8Qq0dvrDKlwjETUfRh8ICKiFLcNd+un+6Z5gelccRHy6pdg1JS1uvmC2Lp7r/p/jE0Q5O0SS9TyeYvs9mSI9bWWR7B9j4k+hGtyIVowVnf4uFGCJOpY3X0vRCprI8KxNqypQ+YG+31gLxbPM8cT13dBRO3iz4DwGGLNFnBL9PY6QyocIxF1n4xBuVNb7Xi3e+XlKpx33rl6/Mn12/Dg0h/p8e40pXgslj5YaqegL56d6ZOP99uxgIv697djRETJ7e133rFjAeGuYW+9+QYuvuRSOxXdzG+WovKxKjuVwmwHkaie3rYZR6QyImq3aNemndu3YXDuTbigz2A7h4iIQn277BZMLynAjROCsy29rrHr1vwAI0aMQK9evQKDLUs6/fqej/PP/7QORnTX8JnPfAqf+1w/e0RERJRICxcu1AGFWAciIiIiSl1JlfnwbM39GD5Md4OblD744EOMuLpzb4CZ+UBdpbk5aX71KYXce+98VFcvt1NtxZP5QETUVZj5QETUcR3NfEiq4MPk/zsa9353qs56SDYSePjRv+3Cw8v/zc7pHAw+UFeR4ANvsno26QAsHhkZGVi1+hkGH4go5TD4QETUcWnV7KL2uf1Y98gWvP+HD+yc5PDxx5/gJz/djdU/dL17iIgoDRw5ciTmgYiIiIiovZIq88Hx2c98Cj7fpTjrrN52Tvc5c+YMTp58G+++9wc7p3Mx84G6CjMfSDIf4gkq5ObmMvOBiFJSrJkP+1//BbLsvIBTqFpwAOOWTg4u270OObP3IWPYFGyv8S7z4rm8FmY/TVtQNHETXrGTkWQUzcXRpSM99x+uLPR4Gh9f6H8zhX8dq25BCWbaZ3Ej5i3H5hkDzITiXo+I0lNadjj5hz/+Ga/9TzN+/cqJbh9ePdTUZYEHIiIiIuo+44eWYPDQhahqUhNS6deviSzHMhunlQq2vPms6PFTQP5s7JjnMwVKaFllkS0I0XpoU8z7GTx0HeoyJ2PztikYYYrCkmCAO1DgFq4sA6PxaM1kwHXsWTPKcM8wG5SY8JI9DnOsBUvnoljWU2XfnzFAByNC1yMiCidp33ZBRERERJSMXq09gEY77u0UTiSgtVor9mHWgoNA5mTMCRPMEBnwYdI4CQasQ52d54hUhqJrUKCOdVetyVgwn2sAxhX6TJDEnyFxBbKlT/imk9Afa8jlOlMiKycQfCEicmttbdvAgsEH6jkKl+PA/qcwJ9dOdwa9jxexotBOxyvc+h3dbgTF66px7PBy/9MKeQpSeVjNi+EpC1FHvPXmG3ENfN0mESWL4YWjdOW78VigmUHWjAd1c7bNM4Cq4nI8fMgWdNSRkzrQEami34oWPDyxBLM8uieLVDY85zI75s3cI1Tj6OHZKHA1/2jdvNJmOzifWYIbCfzMRJSWGHygjrMV46CKfe6dqNHzQgdZZiJW2OmasiF2BbVK2VNq3nJMstPJblKF63NtuhOdGdPoTM+s2aKfcpSWjdbTw+d9TT8Fqbo7tvalRB3R3NQY03DxJZfaNYiIuo+7si1NI5z+D4RMDy4O/pua6mpmm2YVutkFJmOzfVjhZFO4FcziQwsiiozBB+qwSfljgPq9qFd/iG4Yb4MJDWtRfO11GHXtdGyQhwIt1Ziqp2/D6gaziPCVlKZMsCFgCOZsehGL81qwYZp8JjU8mYmHXIGUhKst1/u5u9ZOJ5CkVT6yW43kf03dUIzGHOk8avez/qcX0q5zh2RC2MFp3yo3HvdsC8wP17aVKJpBuVOjDkREycDpi0EGr84VA39Tr9F9IySEbeLgzrLoapI9sXXXKTU2ANnqdmf4vDKUZp5CVbENTtimId939YFBRBSKwQfqoIkoyAPqd5ejrh7wjb0x5gyA+vq96v9jcEe0SntokwM9bbMsdIaFGi9zsi/UUBHofdVkU5j5K/LtTEdIdkYgC8NkZqyoMNt0Z2douTfiBvW3taX6vkAgpbYcxWs8Gnf6s0K89+Ev88qccI5PPo/7O4j4mU1gxD9fhhiyMvzZDzWzTdbDGtPG0+kBu9F2KCVPdDDjQR1oMDceBzHf3oS5n/4QdSmvTCvXdYCIqCs9s11VxDESNyUgKK87hJSOIpu2YHUn/J119/EgTHMS0weEdFLp7lBzSLZkOkTuy6I7AyRElPwYfKCOKSxAHlrQdBzYunuvRB8wIcboQ2Zznc6K8JXc38F+GHyYNrZJZ1ZMrVYbzLvdH5h4qMSHlurpOgOjKXOMWVxIZWVDCZqW2MyFadVAyfqgPhXy8oDFqiw0qJA7fqzao7oPiNaTlOxj0Ri7f3NsPmcfuSdQKfuVYYl8b6ryHtSfw0SsUMfnk4yRedvsPLcwn7mwFNN8e/Vxy2dqUf9tuHctXMkmnuRJzXekd27hynpwnrYULLVtPu2ruKTd6avHfqvGRmIZsx4oSbh/15C3qG3gkIioK2x+SXfsWDCh/U0vnOYduq8FeTVmlFdtOtmIenmZkT/bn5UYqUz+/k9YcNCz74ZXKsrxSLaZL8OyfMl0MGWvVqxBVZM8tLD3B/YVnnwQQUSRMPhAHaKbXLTswXap3R5vUlVdV9OLqE5g9b1SQVYV6dKOPaVs2bNTV7AbTjSr//uQOcgJErTg+R0SJDiC1U9KpoU1KFOVSf3EPiWVir6azpRcQqulugpb7Xh7BO9fHduOPWrK7qMhGzOdJ7SLXEERK2/RIuRhLxZPCR848PrMQexnjJUJJgB129u+l9x5lZYzSKqpdDYVePVWoDkGpabc3NywQ6pxfteMMJlMIdkSwfPDZ1OFy2YyfcA4fdbYzCZ/1pHNSHK2E27f0bKuiKhLOB00uiv8+s0P9u9fqNAyeUPFTPl76X9ThLdI+3H/zY22HeHfVsi6EgyIVKbXVX/PveYLp88HMwQ6lPTcZgzHSUQ9G4MP1H7qBvqOPPWvrwQb5SbaVuDj6sehYS2+a59SPjTWzutC9U7mgx08m06EMJX94EBFvCZV2OCC7FcyH0LUV0tQZgwWx5s6rgNAaj35eeisC1fTkPawPWx7Pb0ZMW8u5g9rwbKJ5tVdWdlXmAJKSQ0N3idKuPnJzCs7KSiTSSr/ETOfQjOLFgWaPIXJZtKZXxiIbJ11lQ15Ix18mciRf52mWs0nYth3yLESUcryvz3KY2hPwD7R2yMi6moMPlC7OU/2/Z0uOjfqqvJbENSEILKGNU+iXv3r84X5w6kr1E5lfwjm3N42U8CLkxFgMjFC1rPbzMtvR8ZFbZVtLuIKskiFIiRQEJqREJoJ4cjNHmjHXE6sxRPypTjNKWKk9+Hv3LPjlRcnHdNJ0TSD6en61YqXkF3jpHEexHw+8Uh5oYGGVAs8SCBAMgY22uZW7g5agzKZYsl8cjKLXBlLEbOZ3Jlfsn3dCa+9Fur92fW6IOuKiJKDPwPCY/DKoIgm0dsjIupqDD5QOw3BhLHqltlpcmE5N+PxVeq34W6Pp/9+DaYibioW65G5R7ICYlBbjsXh1pO3ccg+8xaZCoAebCeWUR3B6inyFg+bYaArEJl4IrRvBrV/CcY4lQypENUvMW/72FplMxtk/lj1NdpV3LbOW6LfIDLtgdhf46kDHk4mih3cT1QjcdIuQ9trhqZjOmmXwTdBK1Fjl6fU5gQcUjHjwclIiDXw1p7Mp7AaduJ59YvsG5itm6M5nfBKUCGoeZqV0H0TERERpYCMQblTW+04JYFPPt5vxwIu6t/fjhFFIu3K12Na0xKM0oEQO41qTPXoO6K5uRUX9Blsp6gnkkyWI0dir/RK/w+rVj+D6urldk5bb7/zjh0LCHcNe+vNN9Dc1BjTqzT7XngMM79ZisrHquwcF9uUAdXTPSrx0o/CImS6y+zyvnrnd8XFKZMMIvV7g7KnbODwOtyN5bo5kx6vVYvqMmDDNBNU1NNjm1GPgWi69zZsH+9Mj0HmHrv/SPv2OlYiSoho16ad27dhcO5N/LtIRBTBt8tuwfSSAtw4IfhBs9c1du3qVbjyyivRq1evwGDLiCjl2U41/dkc6zHNF9vbLoh6lBgyn1owVmcQSeAB9UtME44I2UxCZ375xiDP14wTal5g2tXcqkNZV0RERESpi5kPSYaZD9RVmPlAxxs22rHYJTrz4eJLLrVT0YXNfEikiFkURJSqmPlARNRxHc18YPAhyTD4QF2lpKTcjhHFJ1HBBwkmxIvBByJqDwYfiIg6jsGHNMPgAxGlsniCD0REXSXW4MP+13+BLDsv4BSqFhzAuKWTg8t2r0PO7H3IGDYF22u8y7x4Lq+F2U/TFhRN3IRX7GQkGUVzcXTpSM/9hysLPZ7Gxxf6357hX8eqWxDomDpSWSSRjpGIkhv7fCAiIiIiSoDxQ0sweOhCVDWpCan027c8LbOJUFIxl7c8FT1+Sr+Gesc8eVmuEVpWWWQLQshrrGPdz+Ch61CXORmbt03BCFMU1oh5y4OCAW7hyjIwGo/WTAZcx541o0y/UlsHJSa8ZI/DHGvB0rkolvWkTG1PAg5SPn+3lJlXcUcS6RiJKP20tgbyHGScmQ9JhpkP1FXkKQ9Re4VGvB3MfCCiZBRr5oM0u8iAD/O3PYhSBDIOnOwAqaRLVoB7ekLttUFlUsHePAOoKjavpg4nlv3o5WymQKTMAmdb2Y+uA5bORoErqyBimd72Zf5j9dq/0EGKw2pdm4WBkM/Y0WMkotQQb+bDiBEj0Lt3b9PkIiODwYdkw+ADdRXnRosoHvfeO9/zj46DwQciSkaJDj6YAMMAXdmedcSUBZpKnIoaeBAxBx/CBAS8+IMEHhV7r7LQQEnovorXVWNZvl40qPlHaLAhUcdIRMmto8EHNrsg6uHkRosDh1gHIqKeLGvGgzh2uFoHHqRphPspv0wPLt6CRgxAadloOze11cw2zSp0swtMxubDtmnF5mdsM4xq/X0ctcGXxmORAw9E1LMx+EBEREREFAOnLwYZvJ7wS38Oj+xWI/nX6L4REmLI5d1esW9FC7buOqXGBiB7iJl+eKL5HnRwYsFBVXYKJ/iSICKKgMEHIiLqFm+9+UZcQ3tezUlE1NWe2S4V8ZG4KUyHk/HQTRSkg8amLVgdw5sk4vVq7QGdqTGu0HScObxwFLJwCrtqTdMSd4eaQ7IHqP+3DTDo5iOz5BgPYGuUpiZE1LMx+EBESUHaj0rqZrjewSk9NTc1xjRcfMmldg0ioiS3+SXUqX8KJrS/6YXTvOOo0zeC7WshHAkA3LPNLi8z8mf7/6ZGKpNMjQkLDgY1J6lbYPp/eKWiHI9km/kyLMsP9GUhfTzssPOPHg7utyKcSMdBRD0DO5xMMuxwspMULseBRWNQv+Q63F1r58Wjo+snIXfnWiKoUynRxR1BxdJTNnW/cB0NOeLpcFKyGSSwoP4O2Tnh9b3wmM58qHysys4hIopdPB1OEhGRN3Y4SRRiUsWLOLDfDpvuRK6d3+ly70SNs19nqPCuoCUT50mEeaIRaL85H+HfUd4ZWjev1Ptl4IHiJsFB9fu2otBOxypFf2eJKDVIk4lKmx0QOribM8Qq0dvrDKlwjETUfRh8oDQyBHM2vYjFeS3YMO06jLpWDU9m4qGyIba8a7RUT9f7nlrdAuQtir9C1NWKbkFppnSitSbotWDSw7UTCHCnV7pvIMz85bhnnmkyoYd1gTTTsOvZm5PKdWY9mR/a7ELamoauR9QZQn9na7r4mkFE6akV+zDTBvRDh2ivo/SS6O11hlQ4RiLqPgw+UPrIvRE3qDpqS/V9WN1g59WWo3iNR9fL9kmpMwQqGxOxwjXfM3PCeVoa0xPSFjQdt6MhT1mj79MEU5z5/iBGuGPX238Kc8pc5TEc4/Ccy9T/TedSoU8sdFtR++7uxgXm5kFeI4YZD7qyIgagdNxJFKmyosdPAflf06/hir4eUJAPzPe4IZFAhPP+dHm9165xtySu13BKb+38PRANO/ao31iXML9rJrtqOSbpKfv7G/p76+wzyu/9igqzj8B8IiIiovTEPh+SDPt8aL/csqewscTn3S+Du8+G46oysKEEqJ6uAxNB6x0fgtyGI9CxC/c6cMaXAIsWIa+lGlOnrDXLOaSSobYbeEYvGRi3mUCILWtyjs09HWafldlyXM1YfG05tkqZsOt5H7vdvz026DIEjiGE0771+gc3q4o+/J1ICXf/C7NgxkPJ68Ym1F6rAwxQ4xJAiHm9iivw6OHZyLLrCfe6P5sgzUAOYv7QlajRpZQskrLPB4/f75h+D2L4ffIs09eDgWabsPvDXvO76t7mjhv1uOfvfa0EH9S1xFnPHBERdZJY+nxYXy3dRBIRUSQd6fOBwYckw+BD+8UafDCVeldlJKgCkm0rBAGBysYYOydMZcGj0uGrX4JR87b59x9K0r1j2afzmcxnDHPsdp9OZSmoQhb6fShO8OHC23/or/T7m1l4BBHc5Q4nuyFS8MFzPYxm8CFFpUrwwev3oC5fmmXZdeR3syrb/J7aWcL8TjrBhhh+106U4kC+2lye+l31/97awMSgwO+wm/v3PtM5TiLqVLEEH4iIKDYMPqQJBh86wFYynMpDEFcFJFLw4YmB61XlxAYX3BUaJ/OhuhqZJa6ggltQEOOITs323FZIICDycpLCvR7TdHOS6fgu7k988KHPOMzf9iBKM12v0HIHEY6YAEOWx9svIgYfIq0XJfiwOme5v9mFBC6K180FZjMQkQxSOfjQ5vcg5HfWLWLwYQ3M72XTEizGIhTsNoGNO5rtNSTTZkZF/B00mQ8MPhB1jXiuTUREFJ9Ygw/s84HSR20VNqh6rK+k1LbFVqTCENLeu+FEs/q/D5mDzHTu+LFqqgXP7wipfGQPtGMuJ9biiXr1b97tmBPlNRpbd+9V/x+DAumr4XiTbkuel+9dYXO495lbtlzt4whWT1kC2aVvYHbMxx6PVrX+wxNLMH/3AJTWmL4eJAgAHMTPVMXfeQe48z5uMyzX/TpE0t71hLxbfP5uoGCpWe9bJ55h4IG6VOTftSPYvkf9RmcWoCDT9OtyrLkFvrGlahpo2bPTNKOK8feeiIiIqCdIieDDhRd+Bp+7tG/Chn59z7dbpvQiFfXp2NAyBoudDt42ZOKJ0AyF2nLdq33eIrOMaaphnm5urapWlQWz/saxqhJhV3HbOk+CAT5MeyDKazxr63TQQFc8GtaieMle3ZO+0/HcAekUT20g3D4b1tQhc4MsZ9uFy+eIcOwdJW+3cPdKneNq8uC8BjMwmAwJCTCMV9NO9kLo6zLDrmd7w3bWE6Hruo/HvRxRl4jyu6Y7p/SNQZ6vGSfUvMC0KxgY4feeiIiIqKdJ6mYXkpqx4cn5uO4rMTwqjdOChVXYVLPHTiUPNrugruI0u7igz2A7hyi6RDe7uPiSS+1UdGGbXRARRRHt2iTBQaLuIq97jgfPV+pOXuer1zX2hz9YiSuvvFI3uZCmF0nf58OE8V/G2tV32anEu3POKmzf8V92Kjkw+EBdhcEHao9EBh8kmBAvBh+IqD0YfKBkxuADpZK0DT488sN/wI3jvmSngBd/cQgrf/AMfv/+n+yc2F3U/wJU/+sCOxWQbBkQDD5QV2HwgdojkcEHIqKuwuADJTMGHyiVdCT4kDIdTm788U6U/N3DOPjLIzh69DdxDwcPenfIt/TBUnxzhr97QiIiIiIiIiJKsJQIPrz/hw/wz9//qZ1KvPnzvqGbeBARERERERFR4qVE8OGNN07jD3/4wE51DulbggEIIiIiIiIiosRLmWYXXUECEH/9jQI7RdSzZQybgh2Hq7Fjns/O6V4ZRXNxTB1PZVHweDrpjM9ltrkc9yT+pUFEREThPTdLt/Ge9Zyd7kp639dj1TE7TdRRPJ8TgsGHEPcvvp0ZENSjSIBBKrzBw3LMH2IXSCPF61yfcdsUjLDzE0nvo5O2TUREPdixVbheVX6ud2ogdjqji2pDx1ZdrytfeuiCfT43S+3n+lVg/CAJOeeee+iWWnn78XzuHgw+eGATDOpJxg8tweChC1HVpCaatqBITecMLccy7z5aU1IGfLhnWzWW5Z9CVbF8PvWZH70c30+SrA5H6+aV+thmbrYziIiIPD2HWYPnYt/olTj66M12Xid6bhYGz92HmbWtaG1txdEvPMusAsLolUfN+bByNFBZ2D1ZAe3B87nbMPgQBptgEFnZtwSyI9apPy6W0yzDySRwmmdkYDQq1XTlOtOEQOY7yzrz9LBtCornLQ+7vnu58FkEJqjgLOMEGdqsM+xajMsEGh9fg4cPmVlS0R9f0aLHneYObY5FH/dy3DPPVW6/A/++7PzKIifAoQozJ2Oznhf4PEHfR5jPGNS0JMK+RbjvX4xwfa+PTrAzk4y8JoxDag5E1P2em1WISvW3ZOX6u5Bj54U+jfZnSIhwZXr+9Vi1yqSU68GjBnnsyKt2zMi561Hc5ew40n7dIiznfgp9/arnsOr6DBRWqoJ9czFYzfMfUozbmPWsnUldaDS+4Ly9PeL5pn4+s1zn2/Wr8FzQz991/timDsFlx/T5EcgiCJmO4Xzk+dx9ekzw4ZMzZ3D63fftVGykCQZRT5eVdRLfGVqCosdPAflf030HSMV3e81kNC6wWQTFW4AZDwb1VVCgKuHzVZlTwRcFaluSWaG3pSroy7Kf1evP3632M6PM9Esw7DdYrebp7S44qJebE7YPhBZs3SXbGoVJuk+DK5AtQYZd+/GKLjeGF45Clvq38VjgWBz6sywdicbHF+p9yrFlBX2WASgd5zpu+x0Mn1eG0syD+jOabIUWPDzRfBYng8SdwRD0fcT8Gb33Hen7l7LvzxigP49ktJzIGmm3RURE6WDf3MG6IjOz9oXgCtPguRhun+S2Hl0JqOV0JSdSmbYPc3/6BRyN8AQ75657MVP9W1kolSFX2/Oo27YiLRf0FPoovv7TZzHkhVbUyg4ls0Mtr5M7onzG6Wob5kn8UXzhVanpUWeTc1Eqx+rHgpVH7fkYwzlR+arrfFMV8sLX7tXLys9839zp5vyS7agT3Z1dIfub9VwOJn1d1vspturz8Che26dOla9PQk4M+xY8n7tPzwk+fHIGdXW/tFNEFCunIv/qsd+q/w9AtvQFMeRyXZkvWGqerh9VFWGZzsoJPH1vfPwZ1NhxR/C2gLrt6q+FcuSEqlg7Dl2BOfap/dGl0SvOr1Y8izqppJepP0RF16AAp7Crtm2QIRwTmAis82rtATSqf4M+i8d3YMZHYpk6TnfQJZyg7yOOzxjv9+/+PK1owbJHD6oSIiJKF6NnzoTkwVU+66oRHX0N8hfVVKbUoCo1Mv3qEVWrilRm6Yqb+jdn0tf1tt1lxs14VFWQdGVRghWD7VPaGLatRVjuuWelYjUTX9OtR3Jw1wuPqr15iLCNY1t/qsZH4+uT9KfAXfdKTY86m64cq0rzaPXtz62w52M859uQ4Xp6pvnhY/AX5Pwygn+mweemGd+Hn0r04blndRaQXi7W85Hnc7fpUc0u7llYhWUVP8Gx4ycjDu938ms9idJFnX3y7gzuLIf2umXdbBTAZBTorIAoWtXl+WeSbZB/DR6doCryTQew1TatcDjBDndAoaOk2YbTV4YEAdzNHqKJ9zOG0xnfPxERJbkvzMP6MBkKTht2Z3jBnxoRuSxWOXe9oNat1U+N97121MxUYt12Io4hEdugBMq5C7puXPks3Kdjp/6ccibBJD9sxSqp7I/+OmyMQot13zyfu16P6/Phsce3YuKkeyIOlY/9h12aiDwdOamzAwomBCLUnWF4zmV2LLJntksFfqRu2hDa5ELb/IwOEmTNuAXFdpbuM2Hd6OCMAiU0EyKcEfPmYv6wFiybuA51ajor+wpTIDIvR6wvC4n1MwaJ8P07n2dcofQt4cP8WWx2QUSUbnLuWg8Tf5hlKnyDv6CfCgdlQzgilVlSiZNnu+aJq/rbNCS4AiTtz/2BjmNHIC3mR0sD/xi2rUVYzjztroRT9Nws+5nEvtfgrxJG2IZ5gm6fhEsfAA+w2UVXuvlrOvpgfoaxnhNROD9TJyYQmg1gml7MxVz5UQ8fojMpYt03z+fuk7LBh89d2jfi0L//BXbJ+P35z3+xY0TkpfXQJkyQJ/b5s3XavxmWmz4bOuiZNVtUxdo0Z9g8DrqSHZUNLiBM0EA3P5goWQpmu6apwuV4ZPY+ncEg/Sk4TRg2zxiAugXl/o4pw3m14iVk16jtHLZZDGpbwgmERGqO0a7P6BLp+5fPY/rQeFAd24PI3iX7IiKi9JKDu9ZLunslCqUWlXMXXpBG5ZWFJoVbD7Yte6QyazR+qjvCk7bqmFlr2qS7SBt5uNPD1TL6CW0M29YiLCdPn02Rmf/AF+bpNHWnQluo5umKYqR93fyo7S9A+iAYjNe+Lt8NdZmbv2b6UJCKdKznRDTqZyrNIpzzwvSjEOjnxGmGIZxmG7Hum+dz98kYlDu11Y4nnUd++A+4cdyXdFMIyUhwjM27Co9X/qOdCu/20uXY+/M2z0Cjun36RCxc8Ld6XFKZu9InH++3YwEX9e9vx4gSZ+f2bRicexMu6ON0TZy69BP+bQ+iFFtQNHFT28wH+v/t3Qt8VdWZNvAn4K1jiyDaFqExCQlhuHSqNFJDgRIEIbQUiGj7lcBY0lAsCK0NSKEDTFUEioXCiEnBjsROqwhxmCFEkKBQY5FS2wqWXCAhI1KrolZbL0XzrXettc/Z52SfS5KT5CR5/v622ffbuXDWu9+1VszcPm8aZuVm4YbxE+ycQK+9/rod8/P6DmOvCR1XxvDr7RhRxxHpu6nLfifZRu+wvrrTp3vHs6Z+r/LfUGpPXu9Xr+/Y//jpegwdOhTdu3dHt27dzGCXdSgXXtDdjoX30UdxG1choliaOg15Hr1cUOe1Z47zlMAOvvzJ9qfPzdcFWJSkAOC+Ht/QjKdFSrPOgYiIiKgVdcjgQ/lTz2Pa9OX4xsy7Qw5fmbIUz1QE9uFKRJ2TVDVgg4tdhenPO7soE+ur/Q00laJxw2sdiqRf6mup1vW4ne64GhpcXekREcWa/e5h1gMRtYUOGXyQjIY/vnAKh587EXL40wkWQoiIOp09ayFVkjPXPxRQKJ9YaPvNFkFZBLr7LN/8EdiwYY4/s8AdsQi1HfZgjpqeM8dsZ+abeb796CwDJzCiFlcs1PWnfbsPue8ohdzeHNOZP2dPqHMIXk/mEREREbWdLtfbBRERdVw1VbpNatvadWAAQBeopZCethBDnK6rqtcDC9Nche0KLHx0kM4q0P17F91lqjVE3E6tqgr0pc4Twpo0FMh6MphWobB2j/Tn3aAbiXIyF3RAJIp9hxVm+5oNs7CwIl+flywrnOh9Do3XM7smIiIiaisdNvggvVl49XLRnOGCKNuQICKieDIRhVKY1iVtq/pFSL8jTivTuhVrNX2syp9pkHnzJN0lV0A3XtFst960WK2lVmOtE/jQaQZhRLHvsMJsb67B1Xp2CNGuR0RERNRaOmTwYUTmEBx+5j/w66d/GpPhN7/eZPdMRETxLLjf71DynSwBO0Rbnzna7fbMyVZFeZtJ4A5+hNHcc3J4bj+xUI2bdiIkOBGyOke06xERERG1kg7Z1eakicOx4Sfz7FRsuLvUZFeb1BW0RVebCVMXonrVMDV2FltyFmH1ANf01peRN3sYypfkIr9Erx7A2TbUcmof7d/VprRdkIaFFdLgpG2Mcc8cnX0ghfPCNFNFQfrsbgiuW2CrL/i6lIt2O129IxvHXF3RSW8S2UUSfChE2oYRtv9xU53BvUzvyR7Xe9/B7PVhPaqfWaAzNMJtX7NhDnZPKlT3wZxjkV0n+BxCrdcc7GqTOqJov5uIiKjpOnVXm7v3HMb0r6307OWiOcPnvzDX7pmo65FCfs2JYhRNtTNiJAGJWDxnGFC3C1MHLsLq40HTbfTgNWdzMWrKpmOonXZLGDwd+9S1y/X7hs3S1QDFL6dNgwosTLPVEHS1h3xMkbK0tNwumQhF2WaZHqLorrKJ200sWI9MW40h7VFphcJv4hTJhHBVcWjuOTnCbJ+6YApe1PfBZmLYgELwOYRaj4iIiKitdMjMh9bGzAfqCpzMh8tu/Y9WyTBIUMWxwhNzkXVgM1LnVjSabisSfFidvAtTJ2zHC3aeQ4IPe3dMBrYu1d10Di1Yg5LZfVBrp6mx9s98oPbGzAfqiJj5QETUejp15gMRtQ6TCbAGdxaYbAh3JoBkMtxZ5s8QkEyJ4KwJM622H5yIxWVzkSUzx8zV8/YGTC9ETtC2UvB39r2vILHxvoOyFGQd//zG5+yc7+oxaqWkyShR8yNldxwrPYJaOy6ccwg+ps6mkGuQdeT5tyy32RW+++Tct1Dnbbcr2myO4cwnIiIiIuqMOmzwwavXiuYOF110od0rEQF9kDf2DKYOzMXUrWeBMVNw52BgSME85CUdxWI1XzKCwmdJ1GP1hM0ol1HJdBi4COMDptdjp4xbUsiXjAPJvkgbuBT7x07DNLtMOBkKtWq5HDstZxcw+25XMKHxOS8eXI97J+Ri8QG1WFf1iJzZMSQ7A8nqb21NvTnmqmE6C0KOKftNtsfcufeoWusqpKn7gsF99TZI6osB8nfwcIxNUvs49VIU5w1kjYG+p8y0ICIiIqLOrEMGH67/wiDPXiuaOxw68BO7ZyIStfsP6yoKx2peVv/vgxRVqjbjw7BantZHyCBoqmnjpRHKo3iiBGiABA0CgxMYYAr4WatM9kC1KtDLdHKqP1vA65yjJUEF2a9T5UKCFCYQcRb7S01QwMmK0MesOqPG+2BsthqXcztwFOXq3two90Wfq90umvPeuhM77DgRERERUWfVIYMPvXv3sGOx0bv3ZboBLyIKraFkvc5K2FJnCtPtUU1AMiMkg8AZYpUt4GQ3RL3P44exX92H5JR+OnBSvnc9njhgggo6kFJ3BLuP23WV1jpvIiIiIqKOomP2dlF62LPXiuYOI0bdrvtMJ6LQhhYs1FUZnOoUUvA2GQCm0O3r3aIZqk6dVf+3mQNKzuaFAdUunONkjW9mTxROlYgmCM6gcGdCSHbG7v3qnJOvw43JZ3GqylxD8thpatqfhdHi8yYiIiIi6iTY24UH9nZBXYFXbxdzqgJ7f5C2GHzLSmxvFXprafthva4uoHuTkEYdlfKtu5A8OwP7c6RrzfC9Xbj3LdUc3PuRTITxNdMCljvr+53FFjkOQp9z8HbOPIfTJoOzbTCn9wuHe3tn22R7L3b6ps153WszH0Ket70/ySGOHa+a09sFEREREXUtTm8X0suF0+MFgw8eGHygrsAJPvTomWbnEEXG4AMRERERReIVfOiwvV1Iuw9ePVc0Z7jggu52r0REREREREQUax0y82HokGT86hfLcPHFF9k5LfPbo5X42jfuslPMfKCugZkP1BzMfCAiIiKiSDpN5kNaWr+YBR7E54elq5vB3i6IiIiIiIiIWkOHzHyQbjE/9y/9cdFFF9g5LVNV9RLeePMdO8XMB+oamPlAzdGczIcli75vx4iIiIios1m15sd2zK/DZj706vlxXHShP9Ag3WI+//saHH7uREwGd+BB9E/xt25PRERERERERC3TIYIPvXtfhm/P+Yqdal0fv/QSfO0W05kgEREREREREbVch2nzQVJ9v7vgJlyd+CnPHitiMYz50udw6Omf2iMSUbxImLoQNSeKUTTVzggSaXlTxXp/RERERERdXVwHHw4/9yc7Znxn7lexf++P8eunf9oqw88euAOf+PjH7NGAt995144RdX45m4t1gVsPZdMx1M5vLQmDp2Ofc7zNmXau4T+XNbhzsJ3popfH8BxjvT8iIiIiIgoU18GHbQ/vxdk/n7NTbev99z/Agu9uslNEnVcCEnFnWTFWjzmLLTm5upHVtMK+uK8g0a7RumrrzgJjpviCDAnIxI1j7HyroWS9Pq/8EjsjSKTlTRXr/RERERERdXVx3duFkC4wr7jiMnRLaNuuMCXr4W9/e89OtR32dkFtxent4rIRP8DeHZOBrUsxbm29XeonVRCqVw2zU0Ctaz3JXpBtk/WUf9nQgjUomQ1syVmE1cczUXhiLpKD9u9si627UDtb7cMuN8dT2269CnnOPgaYcyhfshSn5tyNvCS7E6V8SS7mwFmuxksSsbgscB3U7cLUCWcwX52Hr0UXPe8wJgWtG7w/CUCEugfmGjKwf+vL6lzt8gObkTq3wox3QuztgoiIiIjcOk1vFx991IC//OVN/PmVN9p0aI/AA1F7GJKdoYMHtTUegQcpXKtCtxS2JRNg6tazSJ59t24LwQke1KoCus6WyNkF2GXH1j6OcvRB3rrpWLxZCvxH8YAr8BDoMJ44ACSPHa6rPUwbrwrxB57DbrMwSD3unZCLxWp9HTzwyk6YOg15SUex2J5TLc5iyx3bcWzwS9io5ulzXXIUSJqM+VMj7y/cPTDUdY49o7eVZe4sDiIiilOXZ2B6fj7y3cO4/nZhC3ntWw/TkXG5XacJ+o9T207PQDM2JSKKKx2mwUkiansmMHEW+0tN4OBY6RFVmAeSUxOBAX110CJrlWmfodpmQMiyBlRgoxTEVQE/b4xkE6zHDtlBCFWnZN0MTBpsqlyU741R5oA9R+14P8y3bUy4sxgiCXsPrNr9h/GC+nus5mX1/z5IGaBnExFRnHvj+cdQVFSEx55/Q6LgiEn84dwRbFf7LCp6DLJbdRA8pqe340j71CYmIooLDD4QdXGmwBxYmG4KqZogGQHO4K5a4Yi0b1Og74O8HSZL4omWtLVQdUbtaxhW2yBD7dZNuPc4MM1mYOiMCMl8ICIiCvAG3pRgQf9xOlPBF4jQ0zZrQWc1qPEMs44emhqxCMqMmO5Lh7gcGdP988f1N9NjJYre6xrcpOeZNYmIOiIGH4i6upKd2FIHJM+ehhw7S6oa7Nuc2ehJfkAWgC7kA1njA3uqELL9fbP76KoKUqUhefa88FURjh/GfnUO2oHnwmZJ+CT1hVeCgT5HW4UiVDBkSOpVdswlxP7C3gMiIurQel1zky7o33QN8Pxj0WYm9MI1SW/qbAaTMXFt9NUpJPCgDvbmfsmEUMNjzwPqHCSocHnGWFzTqxb7dZZEEfadPIcj24uwX/6xtdkT+06a3RARdUQMPhB1cQ2ox+oJS7GlzmQLmCoUffHA3Ard64O0Y+BUrSiZ3QflSxbpTIKG49sxXjIIxszVy8xgusacNk+qYJh2HnZuknYX+iBvXuMghUPOYfd+07tFNFUudu6VzAVzvv62FwwdLEiajBLfOZl1zHmYbUrGQgdOHOH2F+4eEBFRx6arXTz2PN6QgMKw6NMK3qg7CYlTnDv3pvp/L/TspWdH1qunWhtIHmszHG66Rk/3vPxyu69kjGWGAxF1Eg0Npm8L52/c93bR1bC3C2orTm8XPXqm2Tkdn3Qbqnu6qDU9TvimIT1bbNftMlDLsLcLIuoUbAYCnn8M24+c0406jk2WrIN9OCnVLMYmo3a/zTTQ0z1NZgQCtzPLXOsGkGoTN+EaPI/Hth/RwYrw6wu7TS8TGPGdW0/XPoiI4kyo3i6GDBni6+lC/7XLiIg6PJ3FUejPxqg+Id1omt4uGHggIqJQTp7STQkjRTIO3ngT0vSDZCPoYMC1vqaLW87uO1kfKNDlGeOQcblUtdivs/N6udMpbMYEEVFHxuADEXUqUk3C3QBm6kBWkSAioghOntIFfh0UOHcEv1MTpj2Im9CzTqplxIj0hCGNOCSP9TUs6TRmee7IKfS8SabHIlmdzX6bGuEERlgdg4g6Ola7iDOsdkFtpTNWu6DWx2oXREREROTGahdEREREREREFBcYfCAiIiIiIiKiVsXgAxERERERERG1KgYfiKhDS5i6EDUn1uDOwe7pYhRNNdOhBG9HRERERESth8EHoi4uYfB07FOFdSmw+4bNmXZpxzNt/DCgbhc2lqhrQyaKgq+tbDqGyoolz6EcfZA3r+NeKxERERFRR8HeLuIMe7ugtuL0dnHZiB9g747JwNalGLe2HkML1qBkdh+UL8lFvirAxzvJYKhedRW25CzC6uOZKDwxF1kHNiN1boUOPsg0QlxLzuZirE7ehakTtuMFO4/Ca05vF/wOIyIiIuq8vH7/sbcLIorSWZyqMmPBmRH7ChLNfCTizjL/fKeaQ+j1TRZC0WZTLWJfQabZ3mYi+PbnTIfYj5AAiTO/cLydKQb3RbL6U3vqJTMdQdWps0BSBiax6gURERERUati8IGItOTZd+vCfMls6CyCe4+bAIBkRdQuyUXqwFyk5ewC1HoSaBhSMA95SUexWM2XZZJZEG59R9YY6G3Gra3A7v3uwn8/pCQBtfsP41iY/cgx7pvdB7VblyJt4FKcSh6m96sNsMGHmnozbWWt8g5iHKt52Y4REREREVFrYvCBiDRdmFeF/Fp3Owi2MO8U3qt3TNbTyamJtuA+DKvVfF9wIcz6jtqtO7HDjh8rPaKPNzZbLZ96HbJwFvtL68PuZ0h2hho36zWgHqsLj+p9eWlABfJtcESGxQckyDIvqJHJPkgZYEeJiIiIiKhVMPhARD4Nx7fjAVVAx5jrkGNmadL+g1OAl0HahmgoWa8zD7bUmSCBO6PAa31Pxw9jv9o+eexwLNYNRR7B7uN2mRL1fqKkq1k0Cjb4q5gQEREREVHrYPCBiALs3CuZBMNwo2QzVJ1BrfqTNb5xjxBDCxZi8eB6rJ6wGeVqOjmlX9j1vUjmgql6MRl5Y9SM2jOm4ccw+zEZFyZbQtqJWDzHVe3CbufOtHDIupPG9lFjR/GEbXxySOpVZoSIiIiIiGKmocH0a+H+y+ADEQXSXVCagr9kQoxfchQYM9fXZkLNiTW62sKxtc8hZUcxqqV3CVWgXzy3Iuz6oZiqF0b53gr9N9x+JOPCVJ+4Wx37bqTsl6oi1nEbfJBAiCI9YTjby7qmjYr1vmofA1L6NMq2ICIiIiKi2GNXm3GGXW1SW3G62uzRM83O6Rx095ljAoMMXhJsN5xOt5wUHXa1SURERERuXr//Nm34CYYOHervZlP9ZeYDEXUqOzdJJoStNhKObeByyyYGHoiIiIiIWhuDD0TUqUiVjXEDTdef4Uj1jdSBpktRIiIiIiJqXax2EWdY7YLaSmetdkGti9UuKNirf3nFjkVn6dKlKPrZFjvV+nh+LcPzaxmeX8vw/Ig6Bla7ICKiTmoC1h1+FkcOr8EkO4fa1+m62qiGKz/5KbtF2/I6F6+B5+fN61y8Bp6fN69z8Rp4ft68zsVr4PkRxT9mPsQZZj5QW2HmAzVHzDIf0idg3V23YlSi7Ra1/hC2LVuEjZVmMjwJPizHKBzCiuGLsNvObW2T1j6LFaPshFWvzvtBdd67ozrvcKK9pva59nDkyZ/8sFa/J+yc0HpdVoP8b+W1+ZNJnl/z8fxahufXMjw/oo6BmQ9ERBSnVAF6mypAO4EHkTgSM++6Del2si2lz3sERw4/ix3zBtg5XgYgJcmOuiSq816x7RHMb4UTj+68Opn027BDZ7WYIeS1R7terEV73Ow1vnWOHG6d94enaI/bXvcv2vOLi/v3LNZl2/nBol0v1ppyXNdrHHefD9Ee5yeiOW57vb4i2vvSXvePqIUYfCCiDi1h6kLUnFiDOwe7p4tRFKG3i+DtqA1lZ0EnENQXY8bw65Ghhhkri1GvF8a/gyvNOWfMXImD+qQT8aVxLf3xV4Y79L2IlM0Q7XodkQSlcoHiWeY9UVyPxNwfeRQ8o10v1qI8rhQKxpTrdTJmyvs6sW0Ca1Eft53uX7TnFw/3b/gsbFOf7VHLPap2RbterDXxuJPy1Gt88FAbfq827X3V9udnRDxue72+VrT3pb3uH1FLdfjgw8UXX4jx4z6PG7KuxQUXdLdzvQ3656tRuusePHtoI757ew4+/aledglR15UweDr2qcK6FNh9w+ZMu7TjmTZ+GFC3CxtdvV3kbHZf30LkyMyS51COPsib13GvtcM6WWd+MCXm4p55E3ShorL0fuRMvx++2gvpEzB/u3nyr4fta8IXjiKuPwDz1/qX71grx1Xztj+Lh3NNBkZi7kN6WZOectnkjbpTVWZE7XOSOk7A07/tt2GS61zS563xL1fnaZapH+56nvzIDXde7vUckY5p9ndE5gUd232PvM/LbtsWT591UKoeT+0z97Jy39NqyiOwE+16sRbtcSvVe7mgzI6fQp0Za33RHre97l+05xcP9w8pSJKPX30daswMv2jXi7WmHDd7DVaMOoQHt7TZ3Wva+6o9zk9Ec9z2en1FtPelve4fUQx02OBDz54fx6Lv34LnKu7H/RsX4IH7v4vtv/w3XHTRhXaNQJdeegl2ldyFAQM+gyuv7Inv3DYFv376pyjbfS9SkvvYtYi6rtqtS5E6MBdTt54FxsyNmDkQjxKQiRvHqJHaM3jBzNKBh9VjjmKxuja5vtSB67FDzW9ABZ44oEaS+2KoXpPajPpx96BJGVAF6+V4WArLOhjgkCdoyzEzuFrGtlBPnyKtLwXohzBzlH954qjlyG9mKu2o5baALlVH9JxDKC+Vv+Y4K9RxXGeCxMRcrHDORf1ofDh3JBLrD+HgQTXgavXztiWiOKZD5smx7WRAVZeYn1fTpadcbcfCi3a9WGvWcdNV4UX9qX/6SX9grS2EOW573b8A0d6XNr5/0q6LCeCpz7ZkZrkDoi7Rrhdr0R1XfSfcOhL1xVvaNDsq+vdV+5xfU47bPq9vtOfXXvePKDY6ZPBh3NhhOHRgPfLzvqyDCo6hQ1MweuRn7VSg6zIG2rFAqf374r93/ihi1gRR13IWzoPc4MyIfQWm6JKgijB3lvnnO8GK0OtnokjW22yqRewryDTbl03XhX/f/pzpEPsRQwvW+OYXjrczxeC+SFZ/ak+9pCdlH98eI4GVnTrgEKzq1FkgKQOTWPWize0uuAUzdLUFG4QYJUEIp4AuT9AUX7WMWVhxUGaMRJZXwCDS+tl5mKnfPoewYqazXI5bhY3TTXqwqLfpwnfoQEI06lF/sFjt01aBSL8BXwo4jhrkGmWWx7mXb1mEO6bf4tHIZhPOq4nHrC9eae6RTmdXEpOQqpf4BZ6XOZeM4V7nSeGZNPRE9b78wSb7hdom2uu40Yr2/Nr+OnYX2M+QpNsjV30neWf8RLterEVz3PR5P1Lfd4fwYFy+9u13fk05bnu8vtGeX7y/vkSRdLjgwyWXXIT586biYx+72M4J9N2FN+mAhKx3+eU9cOWVl+m/3/j6WLtGY7Kvq/qwRwnq2pJn360L8yWzgS05i3DvcVN437tjMmqXmKyBtJxdgFpPAg1DCuYhL8mfUZBfEn59R9YY6G3Gra3A7v3uwn8/3aBf7f7DOBZmP3KM+2b30ZkaaQOX4lTyML1fbYANPtSYQpsz7VybHmxwQxyredmOUXuorCzThVwpLEu9Wiksf3PeAP8TtET50SdPn+TJvpnlJer1D5bbXimqdPAj+iBDIF+bD6pAnlNwv7+ni/5JJqvAdxxFXWO5iQQYpYtM4EM3VKnOVao32EXNEs0xfSQlusw8wQtOZ4/1eXV5AzB/u2TGHMKKNnoqbrTXcaMV7fm193VUYe/T8qWUiKT+Zo63aNeLtdDHTb1avhHU51i+CyV4o6ak6la8NErYXufXvOO23esb7fnF++tLFEmHCz5cdNEFAdkOwQak9cMfjv4Mx36/Fc9V/AeePbRJ//3S6M/ZNbyd/XPj7kGIuhJdmFeF/Fp3Owi28J61yhTcq3dMNoX51ERbcB+G1Wq+L7gQZn2HOwvhWOkRfbyx2Wr51OuQhbPYX6r+oQ+znyHZGWrcrNegClOrC4/qfYVT7gpi1CZNxn2uLAqo46fw3+w2Jb046GoWzpMkVRB2l4QrT502I75MBv/gFTCIev2kLF87BpPUObRaC+ajnOMo6ROQFRQIkcCHzr6QzAZV2JeAS4tFOGY0WuW8miC4jnj6uNFqytYhl0bg1I9t+YEddr1WFO35yftLV/NJVAXnNm0YNMxx4+D+RXt+7XX/9PeS6z1vCnn1qDup/rjOL+x6rSja8/M/tVeDzXCS7KmcVn5SHu3no73OL+xx4+D1jfb82uv+EcVKhws+/PWvf8fh5/5kp2Jj957D+Mc/PrRTRF1Xw/HteEDaQRhznWmU0XIK784wbq0q+Jes15kH0t6RBAnc1SK81vd0/DD2q+2Txw7HYt1Q5BHsPm6XKVHvJ1rHz6DWjvr5q5hQ29HVLOQJu/pBJZkKM3Vh2aaSlpabagO+TAZnCPE0PtL6vuUjzVN9yYywjTm6ydMj2a7ZQYnSLb4MDnMcNTjtQtQXo6hU/YaURh23r8G6tXnIGt34HLyEPa8ojhmN0OclBUHZbxuklUtDbysP+a5XGtw8uNJW97AZHrphz3DrtaZoz89Xzcc+ndRDG9y/cMeNh/sX7fm10/2r3HQLHrza3BMZVoyqx7aZjV/fsOu1omjPr91E+/mIR3Hw+oYV7/ePqAk6ZJsPD//iSXzwwXk71XKHD8c2mEHUke3cK5kEw3CjZDNUmcJ61vjGPUIMLViIxYPrsXrCZpSr6eSUfmHX9yKZC6bqxWTkuRuKDLMfk3FhsiWknYjFc1zVLux2vkwL3aOFaz86u8JfLWNI6lX6L7Wtyk0/1Cn+7lBSQNsJ0p2kqz2IyCKt7yy3k0r9wZW+gnnlpp+7lrXkCVcVNi5biW3uA6n9ybGcBssq99XpIMioUWpQb1NZFqo+e3TnFfmY0WjKeXn5/HVfQK/LaiIOEZUu8j/VU4OTuWKq1jgNeyoh1gulTc8vaB0zhC+8xOT8whw3Lu5ftOfXXvdPCXiq7Dpm8P0LtV4obX1+PhIQUOtGeirepp8Pt7Y+P0fQcePl9fWJcH4+Ud4/ovbU0NBgx4yE/ukzAud0AFdf/Sk8+l8/RO/el9k5Lbd85X/iF7/cb6faz4fnD9sxvyt6sz0Kir0n95YhLf1GXDbiB7p9BWxdqjMLEpCJwhNzkXVgM1LnViBh6kJUr3IV8HFWtwmx+rhdT8+Tth9MLxKR1k+2x3E47URItQrJdJC2I/T8EPuRtihMDxZmbvnWXUienYH97nOy5y6C9yPVS5zj6/0k78LUCdt9vWNQeLfPm4ZZuVm4YfwEOyfQa683rsLG77DOLf9beXYsekU/22LHojEB6w4vB1ZGLiR74fnx/ILx/Px4fp37/Ijaitfvv00bfoIhQ4age/fueujWrVvHCz4kJX0axf+5BH0+fbmdEzs/27Ibq3/8KzsFXHVVb1x4wQU4Xf+KndP6GHygtuIEH3r0TLNzOgd/15omGBJKcJCFosPgAxERERG5RRt86FDVLj75yZ54aOviqAMPr7zyBurq/ox3333fzgnvW3mTcNvcr2LUFz+L0v9ZhYPl67F/74/x2CPL7RpEFO92bpJGM221kXBsA5dbNjHwQERERETU2uI28+G7t+fgW3lfxnvvvY+fbd2N8gO/xw+X5uILw//ZrtHY66+/hR/d8zCePvhHvP323+1c44ILuiM5uQ9++IMZyLy+6Z36FywuRMl//9pOtR5mPlBb6ayZD9S6mPlARERERG4dOvNh3A3D8J3bpuhuNXv0uBR3fPdm7N51T9jAg7TZkDnqdvzv7t80CjyI8+c/RHX1S5h5670Ye+P38eab79gl0Vn0/VvsGBERERERERE1RVwGH2bfOtGORfb++x9gyk3/phuL/PDDj+zc8E6ffgVf+OI8/PGFU3ZOZFde2RMjvzjUThERERERERFRtOIu+NCr58fxuX9JtVORfWPmPTh2rHHP/ZFIJsT0r63Eyy+/ZudE9pUvX2/HiIiIiIiIiChacRd8mDrli7p9hmjcu/aX+P0fmt0hu86UmDo9+sYkz549Z8eIiIiIiIiIKFpxF3y44orL7Fh45954G7/6Vbmdar7XX/8rtjwYuePcM2dew39s/m87RUTxImHqQtScWIM7bTuyZroYRRF6uwjejoiIiIiIWk/cBR9+/lBZVF1jPlC4C+/87T071TKFRf9jxxqToEPOzSsweux38cEH/7BziTqPhMHTsU8V1qXA7hs2Z9qlHc+08cOAul3YWAIMLVgTeF120IGJkudQjj7Im9dxr5WIiIiIqKOIu+DDq6++hZFjFmLpD7fi2d8cVwX+83ZJoKee/oMda7k33nxHZ1J4kd4x/vDH5lftIOooarcuRerAXEzdehYYMzdi5kA8SkAmbhyjRmrP4AX154W1i/Q1OcPiA7LWUTxRAjSgAk/IdHJfsClZIiIiIqLWFXfBByHdYD6y/SnkzVmHujpVEAry0Ucf4S+vvmmnYuPJ/UftWKA+fS63Y0RdyVmcqjJjwZkR+woSzXwk4s6yoGwCmR9y/UwUyXqbTbWIfQWZZvuy6brw79ufMx1iP8Kd0VA43s4Ug/siWf2pPfWSmXbxBSYOPIcdZhaqTqnvl6QMTGLVCyIiIiKiVpXQP31Ggx2POwkJCSh57N8xZHCSnWNIcCJz1O0xrQbxzX+dgB/c+Q075TdvwU9R9sQRO9X6Pjx/2I75XdG7tx0jip0n95YhLf1GXDbiB9i7Y7IutBtnsSVnEe49bgIAsqx2SS7ySwKnN6auQcnsl7F44HpfYT7c+nNKMlF4Yi6ycNS3jQQRSmZDH2/1cbM8eetSjC8dHno/VWYcst5aYHHZ3chLMue8esBCVK8ahnK7nZv7WHJtQtp9qF51VcA8Cu/2edMwKzcLN4yfYOcEeu311+2YH7/DqDV8a/atdoyo9X3lK1/B5CnT7BR1VKdPx2exZ9myxSguXmOniDoer99/mzb8BEOGDEH37t310K1bNwYfHHmzs3FnwdftlN93bv8pntjL4AN1PsHBB12Yt4X+5AObkTq3whbOh9kt/KSKxviaab5lTmE/7Ppr+/mCC+PW1uv5TlBBH1vvzwQCnCBCMNnP9zAvIIjgDiCECj5I1oMOfNTtwtQJ23WVDD3fnq9XsIK8ddngQ/pt2LEtF4kHVyKjoMzOpPYkwYf8/Hw7RdR65Pfoyy+/zOBDJyDBhx490+xU/JB/Wxl8oI4s2uBDXFa7cDQ0NOC99xo3Ptmz58dx8cUX2qnY+Od0f0q3Wy91LPlHh6graDi+HQ9IOwhjrkOOmaVJ4dzddoIEDxpK1iNt4FJsqQOyVgVWi/Ba39Pxw9ivtk8eOxyLdUORR7DblYEQ9X4iGFIwBVnqb3mhP/Dg569iQh3FBKw7/CyOHF6DSXZOa0sfNxryDj94gIEHos6gqqoq6oGIiFpGyvUiroMP4u9/9+754tOfjm1bDFlZ19qxQP++4l+x/r7v4PovDEL37nF/u4habOdeaf9kGG6UNhyqzqBW/cka37hHiKEFC7F4cD1WT9gM6fQ2OaVf2PW9NKAeu/dLuwuTkedqKDLcfo7VvKz+3wdjsxN1OxGL57gyJOx2yan+QIisM2lsH18PGG5DUq+yY9Tm0idg3fZHcEQHEdSwfQ3mp9tlcWcC8nPlPXUI5aUDMH+7PWevYfttaK/LmLS28fnsUPd1UkxOqO0DPkQdm/d3xY61t8XoM9lOOtR3NxHFm7gtTUt2w9e/loXPDk2xcwJ9MXOIHWu5yy/vgU98/GN2KpCkh0yaOBzF/7kEK/9tlp1L1InpLihNwV8yIcYvOap7v3AaeKw5sQZ3DgaOrX0OKTuKUe204zC3Iuz6oRwrPaIDBqJ8b4X+G24/knEhvVYkz75bHftupOzf5dsex23wQQIhjqnTkJcE1O4/3CjrYUCKBCUCsy2oLagfr9uWY1SiK+MscSRm3tU+Bff0eeaH9I55A+ycINlZGCV/D5Zjt54RjwYgJbCGopao7uuKbY/EXeEg4j0n6qQSR+ViRTt914US9ecxew2OeH13b2v7oCS/Q4g6prgMPowe9S848OR9+NGKW3UQwsu/zrwRHw8RMGiqW2fdaMfC+9otkrhN1LlIQX+cq0qDdEGZL9Uc5tpAgCrsu6s+pA40bS341tODv9HJSOsHV51wji/ruttdCLUfsWOuf37+Wtnefwzdfaar2oizn+DjJgR1y0ltyCnM1xdjxvDrkaGGGSuL0bxKNa1v0piR+q+pclGFjdPNOWcMX4mDeskhrLDXkTH9flTqee3n4Ep7LjPV+embmogvjWvpD/Qy3KGvcVEcB2BiZM8cXd1yzh47TdQi9dg20/lM2u+5xNEY3+GyBSZg3XLzXai+ZAK+u833DBFRZHEXfLjowguwZtW3QmYiOPr2vQLTc0bbqea78srLMHfOZDsV3vnzH9oxIopXOzdJJoStNhLO1OuQJT17bDJBFmpDJ+vsD/Bc3DNvgn4CWFl6P3LcBff0CZjflNTeiOsPwPy1/uU71spxTVr0w7pKhZzOQ3rZumw9aU1Alo6USJULPSMip/pDwH6kwUp9XvLE06Zjq/FJ2WvMfL0s6Jybeg+82AeUdbphE/9xffdC3QdjgDrvR/znooYdcn6+43lUu4j5Pbfndzj+MjXCssGKhOBohTNfDyOwocbOFwHLGOjoek7jlPNlF/ZzFJvviknzAj/b/uXhPo9BnKCxBFsLynzf1fLdfcd0JyjZjO+RRvNc1zzP65pj+x0iDU/r7MrN0VUXJaKWibvgwwUXdsdll3lnOwT7/vem45rPpdqpppNAR+H937NTkT319B/sGBHFKyeTIlLvFSYjwp9NQW2o8n48aB+VJeYux8Pqh6MpmDpMtYyZUaf2RlpffpA+hJmj/MsTRy1HvtcP7GD2B3d98Zaon/jvPnBI/x01xt8jyKS8XB0HqH/6SX+AJTEXK5aPdOIDQefc1HvgN2q5/bEu6dF6TlDgRB3XfS+c+7NCzXPPTZTza4973oHUbBiBhOwiO+VSswEjHp+iG9hqqF6PTFRg4awN0PEH97KGaqxXZZ6i7Dlg/KGzSlSfC+czab8HfN8nUX7OW/RdMQFZqqDuWmqWN7HqR3rK1WYkZPWz5nyPhCHb5QZdc4yrq0gX3F49axFR64m74MO7736AP/zxpJ0K7+KLL8L9Gxdg6JBkOyd6l1xyEe778dyQbUp4efA/+dOAiCgWdhfcghm6WoANQqiC6cPOk69G1TJmYYWu3zASWeGeyIVaPztP/TCX6UNYodOfZbkc11ShmFFszqG+eJZOI77DVVA3VS7q8dS+JrR4X1puqmOMutU+ffNnTzy4yb2fehxcaY6pq0joec45N/EeeKpH/cFidc2Nq0octNequw1NvwFfCrg/HucTrFXuuVOl5RZsbFLdlT2Y48oiSBjhKuRLxsEGV5aBk2IQblkwva5dRw0jfCkMNdj9aAXyS0vRqMPP1AV4pnCiHR+AgFaq3MtQjRcl+SpzEOKv8z9qDfXFK5HjfA9E/TlvyXfFKRSt9FeTkKofenFiElKj+A6MWnO+RyKQe6XP21ddJdI5R/8d4jRGXb7ENJpNRG0joX/6DNPvRRz54oghePBnBbqxx2j87W/vYcWPHkLpnsN4//1/2LmhXX31p/CTH98WMvAg1SsuuKC7nTJeeeUNjByzAB991Lq368Pzh+2YX6foI5/izpN7y/BQMf/JpaablZuFG8b7n+q7efXzHPE7TFKG75Ind+aH5A/wI19KbTBpz+CO0glYd1ie6qsfucMXoWbeI+HXxxockbrKB1eawnYQabhMtpdj+woFQqpKyJNK+VHv2ZZD4Hm4C/juffqux3d8mxWQKHXB/T+SpbrGClWKkHMuSolwTY0KB84+Qy0X3sfVjch53B/3+bTZPW+Cb82+Ffn5qthfU4Oa1FRVKFGkOkN2EfJLG1CYtgEj0haiInM9qp9ZAGwYgbSFEiyIsAyN9zFExiVeIIEI97QmwY9sFOWXosE/089ug/XVeGaBydbcMycBvoQJew7Nz+Ok5mhKF5rp6el4+eWXMXnKNDsnGkGfN5uhIIEC5zPqfA68mHVi812RPm8N7hk9Eu7kCB0ksN9bUX0ene8Jj+87rRnfI2YfwfO8rrnxds39Djl9ugE9evpDfdL+U6E0nH1gs6+tq/Zw+7xpKC5eY6eIOh6v33+bNvwEQ4YMQffu3XW5Xv7GZfBBurT8n8fvxoA0V4v1ykcffRQ2IPH7P9SgsOh/8dujlXj7nXfx4Ycf6fkJCcCFF16ggw7STsSts7x/NIsPPjiP2xduxPkPP8SUr34RgwZerW7mW/jR3cX40wkTZW1NDD5QW5HgA1FztST4ID8a77n65/jBljJU6h+W6sfmWvVjU/1A1T8kT+WZH7HRFvqdH72h1vctV+svU+tXDsCkeT9C1qlbAgoAwT9iI/+49fohbfkCF/WoR6L60e/+Ie3/cX1w5Q/VOah9O+urtfV6/SNcUyPOPv0Fjsa8CzIBhQrJkpD56eraAgpKbXPPm8IXfHAK/2a25g4c+Ar97iDApN2hlw1Y6w8+2EBEsExXICF88MEuCxlgqMGGEWlYWJGpDv0MfLukVtfmwQf1IXHe977PTaTPUSy+K+wx6g+uRI4EBdT269T2TS/IO98BitrXDLUvfSz5rrgrC+U/h64aEt33iOs7yHc9zvl4fU8Fff/IZs38DmHwgah1dOjgg7j2mjSsX3cbrrrqCpw6dRbbdzytfqT+H+5c/PVGQYlgEqR48U/1qDl5Bu+9+z6uuKIn/uWzKbjyyp52DW+y3arVv8TPH/IXyj5+6SV47/1/tFljkww+EFFHFm3wQf8Ab8T5Yen6kRsgeHlT1w/kfyoYeD5mfoiCeoDGP4jdnCd+WkDBwNm3ngjkWy/SNQXz77PJwYcmnU9733M/J/hgsgjyUdpQiIkemQ+xCD7ocY+kBiNU8MEJLNhzs3ODSbsRvqyLkMegWHOCDxJYCKXSREdjFnzwf2c48yJ9jpry2Qxm9+ELLgbzf5d4fx7thEv47+4tSIl4rmGup9E1e923SOcc+TuEwQei1hFt8CHu2nxw/O75anx12g/VsAzTbl6On23djYO//iMWfHeTDiqEIxc3ZHASpkweobvHvGHstVEFHjb+x+MBgQfxzt/eYy8XREQxVLnph7r+vzuXLLBtgjLc4WoPIrJI6zvL7aQiTwGL7I/ryk0/dy2rR500O+TUXz7484iF4FCchifFwZ87gQe3ehwsPuS/DzpLwFmvqfegJaqwcdlKbHPfIHVWco/8AZNgrXDPY6Cm6pgd86t4dLduA6Jm96OQosWQAf70gnDLtLRBqmgCFD3e1DafQgceJNjgbzcCqDaNPmAQG31oF06AIVio+S1ThnLT4AJm5kn2WLSf8xZ8V5Ruse2tWGrbg6YhBp9oP4+Vm27BjJXqPNyHUvvbtlIa0Izme8Ss4z7WwWK1jXuTKLXWdwgRta64zXwI5zP9rsTqVfn4/LABYathNMUj25/C0h9utVPth5kPRNSRRZP50BE4T9VCZxFEoVE6sSPy07n40/jJY3vzt/lgshb0M8vMTGRWVJg2GZzMBzWvQs3TnOwEJ9PBa5k7e0KiBnbaz6ki4QQY7GzLnTERyF+1IqDNB9d8ajvB1S7cGRDBgYfmZT7EQkf8rohvTuaDNDi5uOxu5CXZBVb5ksi9ZbUGZj5QR9fhMx/C+b+XXsUdBZvx5z+fs3Na7p8+drEdIyKirm0C8nU6b1AXlU2UPm60+nmrhOyaroOQtG0nrbu+TmcKxBXpPUJ3W6mGZ57R4wHVF25+yHZrqYbgeg1eyyYW6mnfqnbaPziBglQseMY93wx6u0bbyOAPMEws9J5P7ccJOLROxgPFmwbU494JuUgdGDi0R+CBqCvpkMEH0aPHpejV6xN2quUmZQ9Hz54ft1NERNR1leEO6d6tRU/4B2D8aFMf+eCBztK4a32I6iNEnQMDD0REravDBh+kPYePhclWeP/9D/Qg7TVIzxen61/RXXKGIqkg2ROG2ykiIqKWcPqb96q2EX1f9HGhdJG+DjnfZldBaQ82I8LfK4VLuGVEcaODfVcQEUXQYYMP0m1mODNmrcI1Gd/Gvwz7FoZffxvGT1yEO5f+zC719tJLr9oxIiIiIuqMEhISdDsO0Q5ERNR8UsXQ+dshG5wU3/j6WCz/4UzPBidfeOEUbv5//45//COwl4oLLuiOPxwtwsUXX2TnGNLTxa7/fRbfX/SAndN+2OAkEXVknaXBSYp/ux7faceI2kbbNzhJsZabu8iOxR82OEkdWbgGJ32NTaq/HTb40K1bAmbOGI9ZM8ej71VXBAQh5i34KcqeOGKnAt2QdS02/fR2HYiQahlPlj+PtT9+BC+diY+sBwYfiKgjY/CBiIiIqGvp9MEHhwQRBqZ/BtOmjtSNUD77mxdR8vghfPRR6Mu6/PIeGJDWFycq/w9vvvmOnRsfGHwgoo6MwQciIiKirqXLBB86GwYfqK08ubeztMBP7eGG8RPsWCAGH4iIiIi6FgYfOigGH6itSPAhLf1GO0UUnWXLFmNWbhaDD0RERESkMfjQQTH4QG3FCT706Jlm5xBFdvu8aQw+EBEREZFPtMGHDtvVJhERERERERF1DAw+EBEREREREVGrYvCBiLqkhKkLUXOiGEVT7YxOoDNeExERERF1Dgw+UOeTvQZHDj+C+el2Oh7oc3oW67LtdJxJGDwd+1ShVQquMuwrSLRLwnMKuzWbM+0cv5zN/v3VlE3HUDvfLfi4ofbV3vS1hLiGWGjv+9Da10dERERExOBDF5Y+7xFdINbDWu/G49rLpLXqnLbfhpjGD9Jvww7neuP0ukWrXHsYCchE4Y7JwNalSB2Yi6lbzyJ59jzcOdiuEMLQgjWoXjXMTvklIBF3lhVj9Ziz2JKTq/eZVtgX94UJaNS6jo0xc6MOfrREQ8l6fcz8EjsjDrTHfSAiIiIiagsMPnRV2WvwcG4iDq68HhnDr8eM01nxlSnQiuqLZ5lrLq4HRi3HjnkD7JJWVLpIH/OOUjsdT6Zehyycxf5SdT+UY6VHUIs+GJudqAMMNSfW6ECEBCmKTpisCAkwTBrbB+VLNqNcb+UyeDjGJklBehPuPW5mSUF/3Fqz/3DMsQ3neEWbTXaFUxD3ZVvYwTdfZw+ocy1wLbfZA177Cq6i4JX94Q+kqBWSJqPEru/sz1nXyRpofJxMvb1/udlfpCwDr/sQfCxhXh8z37kPDt/1OPegCddHRERERBRr7GozzrRVV5uS9eAEHwIKxFI9YPlI/3w9fTW2zbwFG3EbdmwbjaeKT2Nm7kiz/sGVyCgoM1kFoZYJu1+HBAByNlWpsQlYd3i5WvcQRo0aqeavxFOjl2OmqxzlOxd9jFxVXDL8+/Bfjzio92XPuVLPMuz2cLYLmE4JOg+7TqjzDnu9wdektjmVF3hfPa8FmL/9IY9rN/sbZeeplTFj+v2oDHXv4CwfYPbnmw7kdLU54u4SlMwGtuQs0sECKaTutZkQ49f2Q+GJuciq24UttZORN+YoFg9cjx12H1Iw1ssPbEbq3Ao9TwrEJbMlMBE5q8B9LAlOuLedU2L3Df8xw65fZZYlq3OdOmE7EGlfUxfqzA33trX2nJ3jONNSLWF1stnvC/o8EjHkeL0Zd+/H4zjmHM39XX3cLE+25+8If10hjgX3cROxuGwaqguB1XreZmCVed3knI8FXU+k6wuHXW0SdS2nT/NnIrWdZcsWo7h4jZ2KnmSzUsckD+ci4esb/5JTGz/MZVeb5FO56ec4qP6OWi7VD5rSPkIiZo6uwwxX5oC/HYMQy6SgrQreUsB2Mg4Scx8KaP9glCpZr1DLcjaVYeP067FCTk4K2Wqeu7Bepwrjso+MmcWAsw+17J7cRLv/WahL8gcLwkkfN1oX/utOmQCG8J+HDTCEPe9w9yJoX24hr6UqxLWfQpGsJ8PKQ+qwqsAY4t7tfVqdR+JojNevZwqS1AXWP/1ko8BDtBpQgY1SBSBJAg9QhVp/4KE5AtqBcLVpkDz7bj1PCtxS9cAdtKjdutN3zCHZGUhulKUhX3j+iE3t/sO6AO25zLWvAAP6qv0CWavMuVWrgrlMu7cNcLwf5tvr8Kp64j7OsbWPoxx9kDdPXW9Qlkkwz/sQ4ljTxsv4UTyh1mlAPe6dsB47zSJ1HTYA4gQTmnp9REQuPXqmceDQ5OEvf/5Nk4ZXX2n8AI6IOhcGH7qsMtyhCqy60CyF6G3PRl39wCnMVu57WhV5VLk0xb+d1zJTyK/HU/tMIdxzu+It2G3HPfVP0oECEyxRg80aaLx/VYD/uSqghyEBBNmHZEpIYEEX8C33eUR13uHuRahrCnMtnipTkC/ryeDKwnC4j2OCSur1zJsAZGdhlOv8YyGawuqxmpf1X691d8w1bUDowWZKCKetAxmiqZ7RWiSLwHd+Yc5l2mYnuyEXaUuO2rneJIDzxAE1MuY6FErAoO4IdtvqKMG87kNTjuUo37oLtRiG1UGNVkZ7fURERLFQVVUV9UBEnR+DD11c5aZbkDF8pc6CSLw6xcyMY1INQWcA2KFRVkEUnEyG5m4fK9Fey6S1UuXikM5u0JkPYZWhXKe0ZGHdmJESHcHeCGkP7jYehDu7QNLz77NP4RerAnQ0DVGiZCe21Mm605BjZ8l+9sWg9wYT2OgDJ04TnAkhkscO120imGWqQF8TRQG76ozOksgaH+Yck/rCKzw0JPUqOxbazr0SNBiGrDHqfGxmRnO4j1V16qz6/zDcaNtoyNm8ENPMKFCzHQ/ogMcU83q14Ppa06t/eaVJQ/638uyWRERERBTvGhpM1T3nL4MPXZS0keCrIpCegiT1p/70KeBknesJ/gDMv7Xxk/bE0Tfonhi8qi14Las8dVqWIKm/rNE4oyCkxCSk2lHnvEaNaVzP3Nn/l8aFPufmiOa8w92LkMJci4/72l3SU662Y6HtPiABipG6OkY0VS4ajm/H+CVHA1L+y5eY9h+mzZP0/KN4YG09dm6Sp+mm+oDTUGG1bt9AGTNXbyuNFUoVgNUTlmJL3TCsdqoL7OiLB1yZDs0lDVdKTxBO9QH3uTpqkaEbTpRlOLA5oApHKM49cK7DDKahTeEED+R65BrNvTDTJWPlmBHYgAzCVLkIJdSxXli7SAeEnHvx7VM7fdUuxM650hioer3WTceQJl5fWzpdVxvVcOUnP2W3aE/SjopkIYWrqiZtscg6azDJziEiIiIisMHJeNNWDU46jSKq8qnhahxSunpcYRccLC5GUu5oPOVrcDJXlWjrkZhoU+oDGpwMsUxxNwgpfA0v2vNIKrYNOTpcDT361g1q/FEdzNeoZMhzdpe8nXMMPpbmfR4hzzvs9Xrsy557NNfS6NpPmmPpo6jj1avjSXsRTkOUje6dLiBJw5WufXpwGpyUepmdQXCjjfFEgjWLy+5GHqJr1DGexbLBSclmkMCC+nfIzgmt12U1OvOh6Gdb7JxgzvveTvpI1tCi8NW6ohbNZ8v5bm3OcUNdg+VrbDa+BTQA7HznNZn3vaivP4QHl23B7krnO8+538Gvift12IKUuLivLXlvtB9pcLLT/DvharQ3msA0tYwEuptSnSI9PR0bNu5kg5NdjGT/RsLXN/6FanBy8ODBvsYm9V+7jLoc0+aDL+3fBgnE7gL//Ds23Y+c4UE/sp/+oed2WohlpnqHna8G/49Rcx6NggG2a8qAdV3zzOA/r4jnLCplfqjqDd7nEfq8Lc/r9dhXcFebYa6l0bXb89bzpt+ix81+Qtw7RxRVLqiNTJ2GPOl+tAVVLohaSoIC8gOudbsXnoB8V8A2bIZXMyQmjsSKbYENFrcvCSjYNnncw1q5bmdZ58qCcbopdmdPRUM3OByhm+FYa81j6uqEvkwy99C0++Joj/tDRNTWGHwg6myy8/QTvpb0ctERSdWJcXHaiKJUF2EDj21FnoA7QT0ZOs4TZt1g7nTnvE1bPCZzw87rAFkPpqFbSSZYiW26fllWCwve7tdzFlYcNJ+hUcubUqCP3/vaNgGh2NI97Rw4qqt1OW0FdRTOd3Essh6cf3PSBko1QzVDujZW06kDA6sCUgdQswEjEhKQ4B7m7LELW8hr33oYgQ01dp0m2DNHbTtiA5qxaWh75nifU7j7YreJ1W2KGx7XPKI5L1QL1WwY4T8H101ulde/jTH4QNELlzkQNqugE4rn67WZE13mtSCKiqTxP4sj22/DpHlrsMN5Qr19TUD7DZNUYdC3zGO5I2lc6H00kj5BHdsUMqNaP5II+0sPur5J6ebanaoQTo8//nZ/wu3Pf9/mr7Xr6Kf63iZJQ7eQtnHKcKpO5oxEVlCWQuPzswsiqsLugh+aoIbHfttXUNBLZ8I5GYYdKQAWXgIycaN0u7x3ve7Fx2ngVy+zGRFOuzFmWrIATBtBq9V20m2ztMkTuI4/a2BfgXmPOlkFRZtdy8umI6dgTeN11TkVOevY9YbadomCj+l9jv5tA4+vzr3AtbyJjSYHZ0b4z9ecmzO/aGqIc220nt6cWlHm+mrdKF71evVaF2XHpmCdugDPqH02NFRDdqsOgmo9/QwWeDXu1Q72PF4E5OcjHxV4dHfjYm3wfWmPwnhbc65Zhmfa+oXaMwdpCyuQX2qOXz3o8WYFquIVgw9ERNSJmK6DnYJ0oyfKiblYkTtSrWUljsTMu27TDcdKmnyWKqD7lomA5Y5EjArex7ZQT+InYN225ZjptA0jwq4fSYT9Za/Bw3Ju9Ydw8KAacDXC92MU5fmp+zZzVMCd8aDun057MFW+TOO3QVUvmnx+wapsUMNpGDmehat20ToBIe/Ajl0/bEOpUZp6HbJwFtK2sm6oNikDkyJWMajHvRNyIQ3kOtkBknmg2+lZNczXxbA0JiwNH7sL2VnJZ/T6skwK5qtTHtfrBvS+NPglbNQZB7Y7YrXe/Knex3SLfPw+yBvrOr7Te1AU9L53TEat7d44LWcXYPc9pGAe8pJM98myLL/E+1wbr2f2TW0lE4OkqZPgJ/x62mYI6KfkanyDkzkQ+JQ6KkFP2v0F+xpsGOGfP2ePmc4uUosqFiJNz/NaT+Y1xR7o2MOUQkzJV7t+dHfIp+qpk25Wd6UL82WImMH/Wu3BHLn3c8xyZ747e8G3bsjX26+m6pgdM1IXFGJBaqjXXwl1XrF4f7YCBh+IiKhLkSoBM+SJ9MxiVSxSfL3LnELRSrvMLtcp+o16n6nHwZW2y96ZThq/KkR7FexsNQTdqKHer1QdkBnNfHLfhP2Vb1mEO6ZLezKm2sGMYlNlweluWLcd04T9HbTbNWrrx+FUuXCqfJWWm3sz6lbPQq///OyMDi1C0KtJmhkQanFgJzJd5aLuCHZLtQLdhW/zq14Ed5Vsun2WRsv8+3PayTHdLKv3zF7Ta5Lpatg63g/zbXaANCYZraYf39/Nc0QD+uqunp3eiKp3SM9RZt9mX5F7F4p2PYqdioVpuoCWthBYXx1tZkIFFj46SGczmMyAu6J/Si2FQ3WwIfYJd0P1ekCdg5QPazbMwsKKfJTap++FE1Ox4JkGlOar7Wz2ROFEr/XMrqO253EU2UDLRBN9gEfyg1az+1F1teqzMyBOUjbakrxWquTvzgKR94u7LF9UpP7ZU8t0pkRA9kI1bn50LfaEeb3dUhcsg7zMRdkSMHCqwni//pHPK/j9GaOMnhZg8IGIiDqRwPT3xtWPTJUAXd6tPAX7EN1S66Zk4R79lFgN23JNwdxD3Um738oylOsStr9bXjdf97iqoPiwLpg+5OuZpzki7q90kWkXQRVWV0hhWJ5+20Veoj+/etRF6B7ZVLmQXZmn+Ed0zw56ju0KWWni+TU2ACnSN7QStmtj24V0/GrdgFBgYMdp86JlgR55mv9tV9UAX4F69jTk6DXax7TN0uWzyRDQmQ9xRHrVkKwFZ5B2f6TdCaedCAlOONUxgkW7XkchPVmEGuKFLsCpAqEqvmHh2uhLaJk3T9IB6tQBQ9T/K/BitZ4dWfWLujBvCplqUAVTmT5WVWP3VYRsNT9cYTHSerqNANm3DB4r6CoXmTdjklxA2iB97cFVL/xBmQp9j5oc4OiAnGuWQW6bCbxk4mZ9o9R9t1kg8lo5MtcXwLk1+r4iH1P0DAkcFGJimNc70EQUOsECtcbCNO8MCRHVeTnvT49l7YHBByLqsoLr/3YGnfGa2ox9coy6laZA52Q+eEjqbwvT6bfhm6akiLqTek6AylOnzYivIOkffL3fNEE0+9tdIL30qAKrFGxVIf+bYZ7Cx+78bJWLEBJH3+CrutKU8ws0AJPW/kg3qCsNRpbr8zuFOl1+T8TMvAn2GGq9PKd74ro2apgrUtAres0OCLU4sBOekymwJcdfmNbVETAMN8r3jc6EME/3dffCczyyEJL6qlfHCM4mCM5EaI4hqVfZMRfXMd1a4/g+9l5kjZef+oGGFizE4sH1WD1hM8rVdHJKP7NAuM417HodUGWld+Qr1Px2k7oAy/Rj58cRffihZZy6/c6gn5xPLFTjpp0IKayGKnxGWm9ioWvfwVGDmg24y5XG7xSGKxauDbj2dm3/oJ24rznWwRbP19tD6oJn1PJSnQVREXVEK/4x+EBEIRvGisTXWJerIa7gfekhTPdhnus3sWGvttDa3aC1933oPN28Baa/N6eee+Ko5WbbkJkPiRi13D7dV+uYQm6Irm2dqge+gqQzNLNgGGF/us6/KnSuW5uHrNHen+OA9gVidX7O0/qDNnDjG2y1lMTRGK9eh2jOL5D79ZRCuNnm4EqnEccqbPy5aVtCvSiNCusHf94BeggJ0pKAUPMDO5FNGtvHX+XCcqoqSCFben94QLfFcDeqT9yNlP279DKHbiPCVY1AnuxL8MKpmlAyuw/KlzS9p4idm+Q4Zr8lYxH2mG6xOr4XuRfjJQtjzFzXd7rpgvPY2ueQsqNY3SObsTFXinuNzzXUeh1ZcKAh7gIPlq5+gCI8LiVwnQ2gXg/9tLgGG3RpPUbsvov0gQLVbJiDDTXyxNyj8FnxIpypsOtF4Dw1X1/tLwibp+322sknOKslOOMgWNqgwPu4Z84c7AnzertJWxG+JJWaKkgLEJm6ARLL9fpHc15OOx5mWftXm2HwgaiLS1BfUoU7JgMBjW7ZhrzCGFqwJmz9WqcRr7SBm1EuaboRCrbuRr/kB1tbpJjGstu1WGmP+9CePn/dF9DrspqIQ5so3WKeHDt03Xk77qYKhSuKD8G3plpvxbJQhdwy3CHtQtTH4GmqFn5/lfvqdKFz1Cg1qLdO/cGV+IF9Cl+56edqOz2qOJkasTk/p8rFwQPB7UH4q6VI1Ytw5xdZPerlXs8MKoSXLsKMler1cF+CmpB2OZqTXdIeYhEQCh3YiU2Dk9IoYuqE7boNBIfT3WSqLRjvmOvPishfK8v8hXnn+9b9nfvC2kW+ee75wV0nB39Xm+3Mvn3nIMOERXrct5+gY3rvp+nHd2tQ70vPe+M6thns+aqf//m+eeuxw2N9fa4h1uvonIBDvAYetIlTTJ17KSTaTAiThp+GF2+WahkxIj1hSCX+omxfir9Txz91wRS8mCbT2aoIm49S+/jdCYw41SxCrRdZDXY/qj63TpULy0nNj1RA7nImFurAjFNlwrTnELpdEMlaMC+tWf+uQQWYGOb1dpM2H9QLbJZLNkp+qS87Ivj1j+a8MvGozmyRZWphu1ebSeifPqPBjlMc+PD8YTvmd0Xv3naMKHae3FuGtPQbcdmt/4HqVVdhS475YSRP4KWVbglGfA/zUDIbetnq45koPDEXyWr++LXA4rK7kVK4GVg1F1kHNvt+fLq3d364SYaEBCqk/mvwj7fg9d3T49f208eUPuWzxphWyfU6dn8O33y9bQb2b30ZebPtcntuOsgStK/xNdMCzss5ttRjFnode615rgrksv6cErO/LDtPt1Kufnwea3Sczdg/di7y4CxPNPuz07z8HGYAAFkjSURBVM6P1WjuQ/CxZFsJAskTOxF8TXOq7PU496AJ1+f1I1vcPm8aZuVm4Ybx3t0tvvb663bML9R3WP638uxY9Ip+tsWOEcUD6dFC2raQahfBbSo4yw5hhe5uM3jarrNdzdOxAtc+0tX8u25V891BBGc7CSY8hJmJQcdMvw07nEwcRQd2CqR9kxDrR+n06Qb06Ol66kYUJcn4qKqKvgqStP+wYeNOFBevsXOiJwE66pgkqysSvr7NYBu4xPrqNqkuk5zaONNu04afYPDgwejevTu6detm/tplRNRFedaRtY6tfRzl0t3YuulYbBv1ekAVjJ0nPXNCFFAbcdUFjsTUu1UF4xr/Y8ysMaqAPNA8hdIFaFW4loKzPBEymRrhukebG5Bu696Xm1MwD+4arTBUl22e3bvpXWn+41Rg9351Hr4u6frpBvOcVtRDCbgPIY4lQRiTKiwZJkuxf+w0TDObKyajJVnO2RV4iPr62oAEEpo6EMWXMtyhq0R4FeqdZU6gIXhaqHm6McigfVTKfKlC4SxzbxeiAcnK+5HjWj9HBx5EbBqcJCIiaikGH4goJEn73CgFeFXYzVOF6fIlLU/91G0LOHVgXW0aSABB5klhWgIL7gJw7dadvuMGNwoWtns0r2WufQUI0zWapwjdu7mP4wvizFPXa/vJD9Womed9CHEs3e0djuIJtY4JCK3HTrNIXYetJ+xkVzT1+oiIiFpA0sCDe7YINxBRDEk1jzANWrYXVruIM6x2QW3FqXYx4u4SX9WK4GoXkh0QnNbvzhhwqjLEstqFm7N/qerhLDPn432+40uHB+wrYJmtuuDel/u85iD0OQoJmqxO9ld30NNjpHs3VeB378dWx3AfRzjrlx8YhizXfhzh7kOoYz0x3j/fCXT4rmnrLiTPnuyvchHmNRDB1xdKLKtdEFH8y81dZMeI2garXXQtkqkVCV/f+OdV7WLj+vswZMgQX5ULGRh8iDMMPlBb8bX5MOIHAYVed+F+NfwF4gdS7lYFXelmzRT6RTTBB986rnYK3JoafAguRHudr65qoI4FGzgJFRQICD4EtY8QzB0AkIK+e7oqwnGEcywRHMQR0QYf3MfamOofl3uRs3khsBdYba/JBCfMa+a7N1FeXygMPhARUbxh4bTjYvChc4g2+MBqF0RdnNMlmDvd3+lubNo8Sc037TyY7sxM1QHpw/3OMqcLMMV2J+ZuW8HZn15HCrwRnqhHS1oEl7YcwnWPVosMlNhl0uCk15P+YM598OoaTQR3gxauezdPJTuxpU5Gmt6PfKhjSUvt0laDcy++fWqnr9qF2DlX+oc3bXYMaeL1ERERERHFEjMf4gwzH6itOJkPnakV83DZA+1NAjZevVx0NMx8ICKieMMn4x0XMx86B1a76KAYfKC2wuBD23KqXXhVuehIGHwgIiIiIjev33+sdkFEnZpUnRinu7eMv8K9VBeRLi47cuCBiIiIiKi5GHwgIiIiIiIiolbFahdxhtUuqK10xmoX1PqaU+2CiIiIiLoWVrsgIiIiIiIiojbH4AMRERERERERtSoGH4ioS5LeJ2pOFKNoqp3RCXTGayIiIiKizoHBByLSXVTuU4VWKbjKsK8g0S4JzSnommEN7hxsF1g5m/37qymbjqF2vlvwcfWwOdMujR/6WkJcQyy0931o7esjIiIiImKDk3GGDU5SW3EanLys5ywUnpiL5K1LdTeQQwvWoGQ2sCVnEe49blcOIoXlvfPOYNzcCjO+YzKS63Zh6oTtOIZELC67G3lJZ337kEDF3tSdjbqZdLZFwLH7oNZOxwspnK9ONtf3gp0XS7G6D3Kfq1cNQ/mSXOSX2JlRaMr1NafBySWLvm/HiIiIiKizWbXmx3bMjw1OElFjU69DFs5if6kp5B4rPYJa9MHY7ERdCHayGhKQiaITJiui4fh2HXjQjp9R67sMHo6xSVAF502+4EVDyfqoCtHm2IZzvKLNJsPCycYIzLhwzdfZA+pcC1zLbfaA176CqyiY7QP3m4BE3FmmCuZj1ApJk1Fi13f256zrZA00Pk6m3t6/3OwvUpaB130IPpYwr4+Z79wHh+96nHvQhOsjIiIiIoo1Bh+IurghqVfZscaOrX0c5eiDvHXTsXjzXGThKB4IDiIM7otk9ad2/2H91HxIdoaZrml65oLXtlmqYLx4YK4OXugMgVXDdEZAqpo3detZJM++21VgVuc69gym2mUYMzegMO3el5ve747JqF2Sq/eblrMLUPstnFqPeyfkYvEBtZJkdqhlOqNg8EvYqMb1ukuO6oL7fM/jVGD3fnUeSRmYpKul9EOKBGbsvQol4D6EOJYETyQ7QrIc0gYuxf6x0zDNbK5kotDJRnFlp0R9fUREREREMcbgAxGF1IAKbJRCvCrw5qkCdfmS9dhhlwl5Ku8Ucr8XRWZDQDsQrjYNJIAg85yqBu4CcO3Wnb5jmkJ5cJaG2j7V/9TfKdh7LnPtK8AAE0DJWmXOrVquSU27tw1wvB/m2+uQag7B3MfxBXDmqesNyjIJ5nkfQhxr2ngZP4on1DoNkCDCeuw0i9R1mEDRYqcaRVOvj4iIiIgoxhh8IKKouQurkrK/uCyokKscq3lZ//Uq2O6Ya56868GptqE4mQwyNKWNg1iTLALf+YU5l2k2C0SyG3Q2QhgSwHlCMgvGXIdCCRjUHcHuEG1peN2HphzLUb51F2oxDKuDGq2M9vqIiIiIiFqqocHfvKSMM/hA1MW523gQ7uwCSde/zz6Fl9T85NnzbPsPTqOSUigOzIZAyU5sqZN1pyHHztLtDcSg9wYT2OiDlAFmOjgTQiSPHa7bRPCqwhFSlWm3Imt8mHNM6gt72ADhqq04du6VoMEwXR0jUpWLcNzHqjp1Vv1/GG601T1yNi/0V7uo2Y4HdMBjiumFpAXXR0REREQUCww+EHVx0njk+CVHA1L+y5eYXiqmzZP0fNPOw85N8jTdqT4wDXlJsvUwrLZVApyGKaUKwOoJS7Glzr+sekdfPODKdGguabhS2nJwqg+4z9VRiwzdcKIsw4HNUbVh4NwDaSPCXIv/eoQTPJDrkTYkzL0w0yVj5ZgR2IAMwlS5CCXUsV5Yu0gHhJx78e1TO33VLsTOuZt97XUMaeL1ERF1GP3HIT8/Xw3TkXF50HSGGR/X3z9fj7cn93mEOye9zF5TU8TLdRIReWBXm3GGXW1SW3G62uzRM83O6dicRhWd7irjiS9TBK3XXWdbYVebRNSW+o/Lx1hJY3O88Twe234E5/TE5ciYfhOugTMvaFoK4mrj2v1F2AfX+Em9cQvY4/Sqxf6iffDvrj/G5Y9Fcu1+FIU6SLTnpNfriecf244j5mI96fvT03VP3Ptv8XUSEUUnVFebgwcP9nez2a0bMx+IiFqdzRRpSZULIqKuRQr4Enh4QxXAi1BUJMN+1Pa6Bjflj1PFfNELPXupP2+es8GI4GmXk/v0PmJTID+Hk3VvqL/JSHFnGPRPMdX9TkV5kJiek9Ua+yQiihFmPsQZZj5QW+lsmQ/UNpj5QERtwj7Bf+P5x7Dd9ej/8ozpuOmaXqjd/xjevFayD+wCvIE33uiFXr7pWuzfD4z1yjJ4IwPTb0pC3fNv4pprbFqFO1vhcll+DZxdBZ+D5qzj2s5kaTjZEDYLQi9RnIyNMJkPzrWJ2tpaJCc7mQ9e+1JH0NkXdp7itU/nPjp816LPP8w9ICJqAmY+EBEREVGHdPnlPfXfN88FFvrPnXtT/+15OXBk+37TDo4Umou2Y3vAtLs6hJdeuCbpTTxWVITHnn8DSL7WtK9ggwpvqsK7zrZ47Hngmpsat6Fw7gh+JwdLTrFZGP2RImX42lPmuJe/gaOyvQz71Yq9rsGwcO0wqOOOvaaXDg4UFT2GN3v6Awbe+zqnrr8IMqmDEWpZo7iBXMtYE8CRbeU6ewVcS4h7QETUShh8ICIiIqIu5426k7p6hglo2CobvXrqjIfksdJopRpsBkTPyxuXyk+e0tEHU/VCV7l4A88ftRGAc70wTLaXwZV5EMrl/ZPUcd5A3Ul9RjiiIxtWE/flCNyn2s3JOjUVeC2e94CIqJUw+EBEREREccWf4RBY6A+VERFrUm1BZxrYoVG1C3HylM60SE7JQMa1yVKShy3no/84qSYhVTBstkILxHJfRETticEHIiIiIoovtmDf65phtlqD6I9h0sjBG8/DSTCIuTfe1NkByQEtSYZyEib54Rrd9oKTRRDMCZiE42QeJPXXdT9MMMOD575stkaw4GyG4EwIIqK2xuADEXVZCVMXouZEMYqm2hmdQGe8JiLqik5iX9FjeP6NZIx1qhw43Vj6utpsBeeOYLtkFySPtceUYXrIthBM1QsRWKg/efR5Ncec+01JsjSCk/t0+w3SJkN+/k3oWSfb20Vh9uVU/ZBljdqlUPuUthycKiSmoc7wXXcSEbUm9nYRZ9jbBbUVd28XCYOnY++Oyerni1G7dSnGra23U96kkFu9apidOostOYtw73E1P2hfWt0uTJ2w3bObSc/1D2xG6twKO9F6nGsoX5KL/BI7M4SczcVYnRz6OloqVvehKdfkFu31sbcLIiIiInJjbxdEFJUEZKJQFXqxdSlSB+Zi6tazSJ49D3cOtit40AXl8c/p9dNydqEWfZC3bjqG2uVCAhh6+cDNKE+ajJKywOXBnPXl+BgzF/sKEu2S1tNQsl4fsymF9NbWHveBiIiIiKi1MfhA1NVNvQ5ZOIv9pSbT4VjpER1MGJudiKEFa1BzYo0OREiQouhEsS4MNxzfjnHOE/njZ3S93FAaUIE5S44CSZMxP4qqAOb4hnPMos2mKoFTEHeqFjiDb/7g6dgn51vgWr450yzz2FdwFQWzfeB+E5CIO8uKsXqMWkGCKHZ9Z3/OujU2uNL4OJl6e/9ysz9nOhSv+xB8LGFeIzPfuQ8O3/U496AJ10dEREREFEsMPhB1cUNSr7JjjR1b+zjKbVbD4s1zkYWjeCC4OsbgvrqqQO3+w6HT9atMgCI5NfJT/CHZGWZ/Nf7jZKmC8eKBuboqiM66WDUsIEMgefbdrgKzOt+xZzDVlT3gLky79+Wm97tjMmqX5JqMjZxdgNpv4dR63DshF4sPqJWk+ohapjMlBr+EjWpcr+sRXPEfpwK796vzSMrAJJ1N0g8pSRHulxJwH0IcS4InJbP76CoWaQOXYv/YaZhmNldMRkuynPPciqZfHxERERFRDDH4QEQhSdbCRinAq8JunipMly9Zjx12mZAn8k4B93sR2ohwSNsCzpN354m8kACCzJPCtAQW3AXg2q07fcc1hfLgTI3AwIZTsPdc5tpXgAEmiJK1ypxbtVyXmg4ZMDneD/PtdfjbvvBzH8cXxJmnrjco0ySY530Icaxp42X8KJ5Q6zRAggjrsdMsUtdhgkWLnTYcmnp9RERERETN1NDgb1rSGWfwgYii5i6oSrr+4rKgAm4otuArT/F3zDVP3vXgakzRyWSQIVJjl61Jsgh85xfmXKbZTBDJbtDZCGFIEOcJySwYcx0KJWBQdwS7j5tlwbzuQ1OO5SjfKm1xDMNqV4BHRHt9RERERESxxN4u4gx7u6C24vR2cdmIH+h0fGlwUgqi0oZAyWzo3itWw6Tqy7IHUu7G6jGmV4vVxyXwcDfykqRAHJQNYdP7nf3p7IgTqvAcoseL4PXdnG2TXcuCe3PwOl9d1UAdC3qZqZYwpyT8vuZU2W1D9DChe4MY479e93RVhOMI51hCAgyNrjXMfQh1rI2p/nG5FzmbFwJ7gdX2mp4YL9vZ18y5N1FeXyjN6e2C32FEREREnZfX77+f/mQdhgwZ4uvpQv+1y4ioi5LGI8cvORqQ7l++xHSbOW2eKqzCtPOwc5Pt1UJXHZiGvCTZehhW2+oATsOUDmd/1RJ4kAJvpOyIKEkPFdKWg1N9wH2+jlpk6IYTZZl0VxlNGwbOfZA2Isz1BF7Tzr2ScWCuV9qQMPfDTJeMlWNGULITW+pkJHSVi1BCHeuFtYt0Ww3Ovfj2qZ2+ahdi59zNvjY7hjTx+oiIiIiIYomZD3GGmQ/UVpzMhx490+ycji9c9kB7M9VU7kYevDNAOgpmPhARERGRGzMfiIjiic0WidTLBRERERFRZ8TMhzjDzAdqK50x84FaX3MzH44cftZOEVGsZQy/3o6BnzWiVuT+rAl+3oiM5NQBdsyPmQ9ERERERERE1OaY+RBnmPlAbUUyHx4qLrdTRNFj5gNRfGHmA1HbYOYDkbdoMx8YfIgzDD5QW5HgA1FzMfhAFD8YfCBqGww+EHlj8KGDYvCBiDoyBh+I2h6DD0Rtg8EHIm9s84GIiIiIiIiI4gKDD0RERBTZnjlISBiBDTV22i3csljRx0jAnD12mqiras/PQlt81olCae9/B9zH579JzcLgAxERkZeaDRihfljIjwtnGBH3v7j3YE7AOc9RcyKwP6BapUDhcQ8T2umX2p456tgjNoBlpk4mjt5jzVWzYUSbnjs/C9QR6Pep87lo6/dra/672MUx+EBERBRG5vpqNDQ0oDQfqFi4NnJhvh3tmZONIuSjVJ1vQ/V6ZKqpuyL8ctrzeBGQn6+2qsCju1vnV5ZzD6vXZwJF2c0L4kws1PsonGiniVyC32MdJv6gCjlpCyuQX6o+s3L+gx5nYYe6uBpsGJGA7KJMrK82n4uGZS9iVht+MNri38WuisEHIiKiJjMZBnPmmKcjvsK072mJGZz55gmOk4VgsxN8T3LMDy3zxNOO2+19Baigp7vhC+/HUKUW1+x+VP1sAoYMSDWzPe2B/o01pRBTJLjy6O6Ap0vuJ7JzHrczrXDLQkmddDNU0dBq2j107kE098R9biM27LE/ZNWCioVIU/PMPkLca+oEMjEozY6Gep847yf7/tOD+kzuCXjvuD4Nnu9L+x4K/iw701F8bmuqjtkxI3VBIRY4H9kottda/FlQotxHtJ91omar2Y1H1T9emesf8n8WJhbiGd+ES8j3bVAWoO8zGuLfnQDh/12kppMAkvOXwQciIqIwKham6R8p8oM9c30B3A/ei9Q8yTLQP4rkR5Bayf0EVraVH/cT5ReMDQqo0oYaUypeRLX8dX5oqdJSzYZZWFhhMxfUoJ/yy37TFmKIfTIqGQ2w+w02sbBUP6lZmJYAtYl+ahQ2U2DP41BnrAtq+hwrHoXvIY867qyFFfZ6qjHomJRYrHDLwvAKiER7DwOEuycBT5KrcfOjj2PAMyZzRe0Y1fa+et5r6rCcz6l53z9jCi1RfHaKjg3S7wmdMaEK5NkvLtPrmkynWSYLIeT7MhWTbpbtnM9NNV6Uz/LNk5AaxbFF6oJl6jMryRpSSHKleEe5fSw+C2H3oZY157NO1FzRBc6VsO/bNBTIPBnMhxlrXZ+dgH93goX7d5FajMEHIiKiMJwCh/yACS4Iu4MR5gdTJm6eZH7MOE/5j0nEIW2QGrfpm9UvokKncxbhcdmXTNvtUgcMUTOKkC1PZpzj6OVO4UQN6seWTOv9BpAnOlLtIpB5aund9oNOLc28GfqU3eeoBF5PKhYskxKLEW6ZF3/B0BRi3AX9qO+hW5h7oq9J3d0peqfq3J4pDAgYOTzvNXVY+nOqCh/yHl7olDKi+OzoQIH6a94P8rTTvFvSBsk7zwj3vjTj9nNjCy16vag/txNRqL5fdPBDrSGBQ/00NtrtY/BZCLePpn7WidpMuM9IajXWyjwZdKpPoOAHCW7h/l2klmPwgYiIKBr6R4hX4SEKqZOgH5C+WK1/2DjpnL4CgvNDR7drUA0ph8gPKndKqFMn3BmCn9jUbLhLF3xMHVl3BoT6OZY5CE4Wuk/NBtwlv8ls+rXzw6012rXwBXA8zrslIt2TsMLca+qgUhdAl42LHg94D7fofRKJ89l+dDc2uD/LVrTHTl3wjFoun1vzPeGIdvtYXGOr3ieiKDmBwGj/rfV63wa0f6RTfaLUhv8udlUMPhAREUXDPmUJlQpqfjBVwCk3BD8x1OnZxx7H48dMOqc8Wa14dK2alvKKefpas2EONtTIE0pXIcQGPYp0mkRogceXp6lmH9qQAXr/bs75+Rr0UoN5+moyMpz9mSc+Ndigf5EZ4Za1RPh76BLmnpgn1jarRNkzx5X14VR1UTzvNXV4poqTff2j/OxEEtVnWxVWFsrHwPmsRXlsyUzyZd7YKllSBSvqc4/BZyHcPlrrs04U0sQCHRQOKPBLFYvgFLVoP2NB7aqEE+nfRWo5Bh+IiIjCcKoMSOpmcJWBABML9Y8UJwXU1LW2dc8VnZ5dUYSiiiGQ+IV/2l+4Tl0wBS+myfb2qY0cLHUBnpEnN0XZ5jz04NH9V9Dx9T6kXrekosu2AT/carBbNzQR+JTWSSfXP+bU/kxVWbn+NLx4s6S0W+GWtUSEe+gT5p7IE2SzyMy/a5BJr3UKpU41C897TR3fxCk6mKTfw9F+diKJ5rNtRn3VNqI9trT5oN6UZrk8Zc0vNRkH0Z57DD4LYY/VWp91opAkKCxZaeY9qt+PaS9iWfB3dJj37cQCeZ+a7dMeVf/U2U3Ci+LfRWqxhP7pM0zzkxQXPjx/2I75XdG7tx0jIopvr73+uh3zk++wI4eftVNEzSS9DWQX6RRbxgkCZQy/3o6BnzWiVuT+rAl+3oiM5NQBdszvpz9ZhyFDhqBbt27o3r27/svMByIiIoprutFM3WiY03geERERdTTMfIgzzHygtnL6ND/61DzLli1GcfEaOxWImQ9EbY+ZD0Rtg5kPRN6izXxg8CHOMPhAbUWCDz16Nmr/niii2+dNY/CBKI4w+EDUNhh8IPLGahdEREREREREFBcYfCAiIiIiIiKiVsXgAxERERERERG1Krb5EGfY5gO1Fbb5QM3VnDYfiIiIiKhz8vr9xzYfiOJV9hrdaNGRw49gfrrHdCtLGDwd+04Uo8YO+woS7RIiIiIiIqKWY/CBOp/027BDF9zVsHaCnWlMWmvnO4V697qNtpmAdQHTQZoQIPAf1w7bb4N/kwGYf+tIoL4YM4bfgo2VwdN2tSbQxws4RmgJyEThjsnA1qVIHZiLqVvPInn2PNw52K5ARERERETUQqx2EWdY7SIGJKCwLVcV3uuRmAhsm+kU4CWYsBxJ7vmw6xbPQs6mKqTPewQP5yaqcr9Mp+j1Rx1ciYyCMr1rNyngr8AhHBw1Ekl2+8YGYP72hzAzsb7ReYxS264Yvgi7nWnfcYKnm06fW1IxZky/H6FiF061i4SpC1G96ipsyVmEe4+bLIi9Nhgxbm29XZvIrznVLp7c27z3MhERERHFt88Ny7BjflLtYvDgwb4qF/KXwYc4w+BDDDjBh+Ji1OXm+gMDkqmwHNhWfDVmqsVewQf/tpGCDyZAgJXXo3xMmIK+PuZIG8zwByecIMfBlbNQd6sEJ+wC1KO+PlEHRwwJUGxBig5gmDkH1THvKFUj9lydVc0xYIMddqbiWz+IE3wYWrAGJbPB4ANFrbnBh7T0G+0cIiIiIuroli1bjFm5WQw+dFQMPsSAK4Dw4NUP+QIDqTpTYSVmnL5VFfzDZz6YAnuYDAQdVLja7KO/azwo+hC4PztTBAQlgoMcgcc1+zhtsyQse411QYEIZ7opmQ8MPlBTtST4wEZOiYiIiDoH+U3YlOAD23ygTq3mtCo8J47G+PQJyBoFHDzgnfqdmPuQbovBqXLhlSngNmmMtMnwNPZKyf5kHeqRiC+NG2AWxljlqdPq/yOxQp3fumwzD/2TdMbDqOW2DQmbAZGU0jrnQERERERE1BIMPlCnVrnvaR0YmLltuW5joTxEUEECDhnDr9eDd9sNLum34Zuj1N/EXDzsKvgn5uZhkl7BzwQOGgcF0lOu1n/rTkU4lihdpM5rFrbVm2DDjnn+fUlGhXPeUZ27h2OlR1CLPhibbepqDMnOQDLOYn8psx6IiIiIiCg2GHygzq3ySTzllKEPlvurLbRA+rjRSIQ0IOkv9M8oloOMRJaTmeAoLcdB9ScwMDEB+bmqoF9fjKIIGRYifd4azE+vwsbpK82+rk6x2RbAqDEheuIQiUlItaPhNBzfjvFLjiJ59t26m82S2X1QvsRUwSBqTzmbpevXhcix0+2tuecjjbrKZ6toqp0RI04XuV5d48bbvXPE+l6Y/a0J2TtPvN6HeNFa700iL/w8EhGDD9TJVWHv0yb6EKrKRUSjlvu6yNwxbwLGj5bAga1yYZkMC69gQBnu0FkLptqE2Y9tzyFMewxulZvKkbTNbicNUEq7EJX3I2floYBzc3f5ufuAWhZcVSOMhpL1uptNZ8gvsQuIWon5EWqHsukYaue77dx7VP1/GG4MKhh5Fbql7ZJwhdBYiHQ+vusJc01tpSOda2sKdR9E8L1wv5/CLQvmFOCb+v7Tn4E2vvdtdUzP91mEexSwzeZMO9fwf1+Y7T33b7cJtywS32sZtL75fvHvrynvlVD79L9vZGh8X9z7Dff+c4vuWIHBptZYJrzOpUnfS1G+ZpF4nQcRtR8GH6jzkYK5qwpC5aZbdHaC046DmbaNQwatG0gCB8HVGsqwcboaDw4c2P14d40pWQuB+wlczx7HNy/EtB5cjU7q6hjOfBlcDV66lkVqv4KoLSUgEXeWFWP1mLPYkmOCXWmFfXGf14/rkp3YUgdkzYmTwnGE86ndutRcz8DNKE+ajBJbyHOCe20a1GvmuXY6Ie5DAjJRaBvWlfswdetZJM+eZwq2YZZ5mTZ+GHDgKMpd1dc6itZ6b0pG3Tj9/lqq7z/qdmGqmk4dGDmrrrbuLDBmiu9+y+tx4xg7P4jzPpbXCGPmBhTSwy3zIgGG6lXqtQwiBeP7dEag+b5qynsl3D73jn9Ob5OWs0tXfcxbF/genTZP7Ve9r2rtdCRRHcu+HlmrTPZBaywToc4l2u8l5zVraUZOyPMgonbD4AMREbWdwcMxNkl+ZG7yFUKkAOT0rOJ+MtuAeuzer36EJmVgUoiCnxcnwOE8QXN+wMoPZq8nlFKAKJL1NpsnZDLfax/Rnk8DKjBnyVG13mTMV9s5T95kH+Yc1uDOAtdTQ9cTudDn6H1NWso0/zZ2X809VxH8RNM5B/P02RY+7D1zXivf+anjR7pGt1DH8u3fGVzBESlQOPMLx9uZSpNes6nXIcvVtk1A2zfhlgVxCsble9fjiQNA8tjhvvN0v+7+aXnCbc5ztdpO7ntJo3X81+C7H/Z94bxH9aDuSY7rXoS/d97H9D5H/7aBx4/uNW2x/UcCAzn69TiK/fvNpBfzGnkLt8wh751JYyXAsFkdO8iAvkhWf5JTG7/+4d4r4fapgzNzK8zE8TONzk9eh9VjjuKBTWfsnPCiPhb6IUV9/6LuDOSRS2ssC3suTfpOPwtpFsv7PWoyRcK9L8O+pkTUbhh8ICKiNmMaNAVqa8yP9UjCFfxCGVIwD3lJR7F4YK5+iiZPdeVHqnQhW2ufXsrTRsy+2/eDVmSpgplsI4EQr32IqM+nyhQoPAssavu8sWf0k2DzhM885Q13jqHORyQnn8H3gvYlmnOu+hxWDQt4Aintwcg5mJTpq5Am+x9sCmRI6gvdBK4TVDr1kkwp3tfoFu5YGPwSNqp5+j64AzlqG3kKLdvIE9dTyf6nmk15zYakXmXHGgu3rBFb+JRCkr4/URWq6nHvhFwsPqBGbUaA7z0a6n5YWeq19t1TdU9Wpzyu15V9+Z64e94772O6RT5+5Nc0Ng4HBHJMZslzYdtsCve9Es13jhSK5f7MCbonQoKjzr2Qwq27XaRw75Vw+wxgP0u1+w/jBfVXCs2L58jrsBM79QqRRTqWU22l+sRcZMnrP2G7PlZrLIt0LuG+l/z32N/9d2Te78uo7z8RtakL7F8i6mKWLVtsx4jix465udhhx4U8YXvggCpkzZ6GnLXrA5aFcqzmZfX/YVitfsTeqAryupDlPL1cpX4wr5K1LFdwQH7sO/v33IfSnPPx4ito2OOYDnFCn2Oo8xGe+1I/2ptzrk5vN1vcT3JnTzZBlFIJUgzThYbVNepcparBGFN/e6c+d2e74Xpb72v0C3uskn6Yf+JuVbAP5N6mQU2vLjyKvFWmANjar5kXXTBWBa/dupDkvz/3Hg9d0A0l7P2QR8pK4D1VheC95ulz1SkpdOlR9dp737tImn58/3st1sz1SCDnDFIks2SJus7UKXapny6sqoKqkKCJvOYJNiDitaw5nCfobrraQMl2O9V8CTDVNpKl8G6zv3xBNJkebD5LLeV8r+rARtndKDmR4Svct8aycMJ9HuV1Gl86XAdh8+Zl4l5fdkV4bfW+JKKWY+YDURdVXLyGA4dmD81lCoiqYCAFmiiFazTQizyp9NdD9qeOC6fetjM41T2ChdtHVOdjgx3RZni4eZ1juPMJJ6bnevww9qvjJ6f004VuX1UD9VqaQvgRWwhvuWmb5+pUe8li0E/vo9Di16yJJFPg265qDNVSiFSTyVKo0mu0j+bcu3jjPB3P22Gu5YkQgQMnS8PrsxxuWVOYYMBZVbA2+3KySTzbqWkCU2i3r5Uro2BAigQ6TBDN/566O+rPfDgNsNUe1L0NDga2xrJQwn0eTXBCjYy5rl0/R0TUOhh8ICKitmMbHHMX0KQQt8/W09WpvK76/VrJc7rObtZ4W8fc1pF20rLlR/wkeTJpC79DCxZi8eB6rJ5g6vpKYdmpWuDbRwSe+3AEn08Q/TRTGjmr24WNTXnaGuYcw55POE08VxMc8hcinKfhUqfdV8hIvg43JpuqBvKEOnnsNDXtf/oYrXDHcnOntjvbSHaBLrzNUeduNeU1cwq3Tuq3+9jhlrn5MgVsoVQGnfbtFKrc1VmCztXHqbaiRHs/msKzWoDrmG6tcfxms4Eu7cBzAU/H44UE66J9rwRzsgVMNaHAp/+SUeC8n0xjlCaQ0twAirSR4g5cmOCG+fy2xrKoRPheCghORPM5IqIOg8EHoi7q9OkGDhyaNeTmLrLvoqaTAuzqCfJ02jzZ03WGd/TFA2HSa6VRxI0BdXkrMMfppUG2P2F/xNunh8fWPoeUHbYusjxVVPuWp2nj5YnlmLn6mGYwjZZ58dqHI/h8HE59Zb3Ngc1IdT3NjEa4cwx3PuE09Vyd+u2SOSDL3fXbhS5sJQ1DVtLLqFbz/NNNL6SGO9bOTVLoMu+RkrGq8OXaxrRvcLc697uRst8UzkRTXjPnXjv3wX3scMscwQEvhymMmkKV8wTX61yFU8CSa5R2FSLd+2iFunci+JhusTp+LPifpsNXtaQ1yespDXKa945iP4Nyj46t3aS+ryQLw9wX3XuC+sxINY5w75Vw+8TUaeo7S2b6vwfDfR9FEu5YL6xdhAdSzPnJYHoaMufYGsvCXrcV6nvJxxWciPQ5CiWa8yCitpfQP32GVJukOPHh+cN2zO+K3r3tGFHsSCGyR880O0UUvdvnTQtZ9eK111+3Y37yHfbk3jKkpd/Y7Pecbgxvh+nSriUp1LESb+cTTkc619bE+0AUP/h5JOoc5DfhrNwsfG5Yhp3j99OfrMPgwYPRvXt3dOvWzfy1y4iIiOKX096AqyvDdhVv5xNORzrX1sT7EHNSbSegW0/X4NVGQVPXj6X2PHYsdPTzb4SfR6Iuo6HBn+vAzIc4w8wHaivMfKDmao/MByIiIiKKL9FkPjhZD8x8ICIiIiIiIqJWx+ADEbWKhKkLdTooG3ciIiIiIiIGH4hIc4IFLWlxm4iIiIiIyAuDD9S1pd+GHYefxRH3sP02pNvFzvId8/y9oqfPe0St9wjmZ3tsqwe1zLcDMQHr7LLG+1mDSXa6vU0bL92HHUW5q89yIiIiIiKiWGDwgUipL56FjOHXq2ElDibm4mF3ACKUk/cjR28zC9ukl6j6YszQ07dgY6VZJVhibl7cBBvcpBXtG8cA5XvX4wnpT9vV+rR0h7VPsiEKnMwINWzOjLgsmFnXrqOGDtk6NxERERERNQuDD0QBynDHykMSJUB+tp0VIwcPqv1iJL7pyn7w82dH6MEJftjMi3Vr1wQsm6SzJsy0O5siOJMjYFk4U69DFs7iVBWwc+9RICkDkwKqXvRB3tgzmDowF1O3ngXGzHW15RBumeH05127JBepar20nF3A7LvZHgQRERERURfB4ANRsJN1kESGpJQoC+5RSjpdrjMkEnN/FFQtQ0k/hSKdNaEGj+DHqKQ6nVUxo1jvACuu/rled8VB1/4k8LAtF3Ur7X5mFgO5D2FdFEEUXeWi7gh2H1cTVWdQ61H1onb/Ybyg/h4rPaKWA8mp/uXhlmkD+iJZ/claZbIeqndM1tON1iMiIiIiok6JwQeiNnMKG5cVox6JmJk3wc6zKlOQ72QsLB9pZ/rVP/0kpCZH5anTevrggTL9t+a0hEms/klqz8Co5XY/23L1dKQgimQlfHuMGkmajBJ3YGD2NOToNWKn3GY+OMO4ta7zJyIiIiKiTovBB6JgthBfJ3UQYq3yfvxAshdGLcc9o+08ZdLa5RiFQ1jhZD60wEEn88EOOZvCX8eQ7Awk4yy25PiDArr6BIbhRle1CKcdCLM+UFvjDxyEW6bpbAoga7x3exBERERERNS5MfhAFGAC1knmQX0xikrVZOUp1Kk/iaNvsA1QDsD40YmSioC9IRqVjKRy089xUP1NTPSucpCecrUdayJbXWTUmKCsijASkIhJY/v4q1xYTvUJd7CgFhk6M6Jktlr/wGbkl9gFSrhlouH4doxfclS3B+FrmJJdehIRERERdRkMPhApibkP2UYal2PUwZXImH6/ruagG6B0esDQyx/CzMRDWOFb3hy2UUuX3VukOsZIrFDHeHg0dBChySrvR47sd9Ryey0yBHf7GahBHeneCblInbBdt9ngkGDBOMmCmFth5yj7N/mrTLjnC49lDSXr9bQTiHCm/cMi3OsKeBARERERUeeV0D99RoMdpzjw4fnDdszvit697RhR7Jw+3YAePdPsVGhOTxXYurRRGw3hllHndfu8aSguXmOnAr32+ut2zE++w57cW4a09Bujes8RERERUfyT34SzcrPwuWEZdo7fT3+yDoMHD0a3bt3QvXt3PTDzgYjCcrIgvIIL4ZYRERERERE5GHwgIiIiIiIiolbFahdxhtUuqK3k5i6yY0RNx2oXRERERF1bpGoXgwYN8lW5kIHBhzjD4AMRdWQMPhARERF1DU0NPrDaBRERERERERG1KmY+xBlmPlBbkd4uiJpj2bLFrHZBRERE1MWx2kUHx+ADtZVou9okCsauNomIiIiI1S6IiIiIiIiIKK4w+EBERERERERErYrBByIiIiIiIiJqVQw+EBEREREREVGrYvCBqKPJXoMjhx/B/HQ7HYpe71msy7bTESRMXYiaE8Wo2Zxp5xAREREREcUGgw/UNaXfhh2qYC6Fc9+w/Tb4yvN2+Y55A+wMNWveI6bQn+2xrR6CAgLuY6ydYGcak9aG2KadDC1Yg+pVw+wUERERERFRbDH4QF1affEsZAy/Xg0rcTAxFw+7AxChnLwfOXqbWdhWr6brizFDT9+CjZVmFbf6erXSqFtdQYYJyBpl58eBBCRi0tg+KF+yGeV2HhERERERUSwx+ECkleGOlYeAxFzkR1lNIWpPP42DqoD/pXE2iyI7C6NwCE89bSZ9bDUJZ2icdWHmrxtjZzqCsjjc20WjAfW4d0Iu5pTYGURERERERDHG4AOR42SdKoYDSSlNK7xH9iTKDwKJo2/QWRWTxowEDpZjr1loSABh+UhfJsaM4nok5j5k2mtQy+7JTbTLZqEuSW3vkO225aJupWReqGFmMeBsR0REREREFCcYfCBqAzWn6yX6gPHppsrFwQNldomRPm40ElGPp/ZV6enKfU/7AiGBy6qw8eeH9Dpa/yS1DBi13GY+bMvV07EPoBARERERETUfgw9EDluQrztlAgCxZIIJiZi5bbmuclFeahfEyEEn88EOOZtifw1ERERERETN0dDQwOADkTEB65aP1I1HFklgoPIU6tQfp6oEMADjRyeq5U9jr0ejkhFVPomnnPYlD5Zjtx11VJ46rf6fiKT+Ztqd7eAsM21GDMD8W13VLmxVkVFjAnvTaAppcPLOsmJUn5iLLJkxZq7ucrNoql5MRERERETUYgw+UJcm7SqYhhqXY9TBlciYfj9MbKEMdzg9YOjlD2Fm4iGs8C1vqirsfdpEH4KrXGili3Q7D071iYdzE3Fwpe09Qy1bIW1G6HN9CElPF+uAg1Z5P3KkocxRy+11yNC07judBidTBwYO+WyAkoiIiIiIYiShf/qMBjtOceDD84ftmN8VvXvbMaLYOX26AT16ptkpoujdPm8aiovX2KlAr73+uh3zk++wJ/eWIS39Rr7niIiIiDoJ+U04KzcLnxuWYef4/fQn6zBo0CB0795dD926dWPmAxERERERERG1LgYfiIiIiIiIiKhVsdpFnGG1C2orubmL7BhR07HaBREREVHX1tRqFww+xBkGH4ioI2PwgYiIiKhrYJsPRERERERERBRXmPkQZ5j5QG1Fersgao5lyxaz2gURERFRF8dqFx0cgw/UVtjVJjUXu9okIiIiIla7ICIiIiIiIqK4wuADEREREREREbUqBh+IiIiIiIiIqFUx+EBERERERERErYrBByLSEqYuRM2JYtRszrRziIiIiIiImq6hwd+vhTPO4ANRsPTbsOPwszjiHrbfhnS72Fm+Y94AO0PNmveIWu8RzM/22FYPaplvB4bZxi5fO8HOnYB1AdMOO18NjY+7BpPsdHMNLViD6lXD7BQREREREVFsMfhAFEJ98SxkDL9eDStxMDEXD7sDEKGcvB85eptZ2FavpuuLMUNP34KNlWYVLXsNHs5NxMGVsux6zDid1Sg4EUpibl6Lgw1uCUjEpLF9UL5kM8rtPCIiIiIiolhi8IEoojLcsfKQlPqRn21ntVB6ytV2zKjctCgwOBHCwYPqPDAS33RlPwTIXuPPpgjKkgilAfW4d0Iu5pTYGURERERERDHG4ANRNE7WqSI6kJQSuTAfjcpNP8dB9XfUcgkSNK6SEUrS6XKdUZGY+6PG20h1kOUjfRkbM4rr1XoPYV2MAiZERERERETNxeADUbsowx02QAAkYua26LIUgFPYuKwY9bJNXmC7EOnjRqu59XhqX5Wertz3dEwDJkRERERERM3F4ANRNPonqYI9UHfKFOxjpXLTLaZNCTWeeHWKmRlJ5f34gQQtRi3HPaPtPCIiIiIiojjG4ANRRBOwbvlI3XhkUamarDyFOvUncfQNtgHKARg/OlEtfxp7o2i3QUgvFb7qEOkpSFJ/6k+fMtNRcKptJCZKSMSoPHVa/T8RSf3NdHAmRCjS4OSdZcWoPjEXWTJjzFzd5WbRVL2YiIiIiIioxRh8IApB2kswDTcux6iDK5Ex/X6Y2IJUmbA9YOjlD2Fm4iGs8C2PTIIH0O09qGFbLhLV/nM2uYIEo5bbY4eqjmEbwXQrXaSrcZh2JJ61vWkE9bLhwWlwMnVg4JDPBiiJiIiIiChGEvqnz2iw4xQHPjx/2I75XdG7tx0jip3TpxvQo2eanSKK3u3zpqG4eI2dCvTa66/bMT/5DntybxnS0m/ke46IiIiok5DfhLNys/C5YRl2jt+G+36MwYMHo3v37ujWrZv5a5cREREREREREbUKBh+IiIiIiIiIqFWx2kWcYbULaiu5uYvsGFHTsdoFERERUdfW1GoXDD7EGQYfiKgjY/CBiIiIqGtgmw9EREREREREFFeY+RBnmPlAbUV6uyBqjmXLFrPaBREREVEXx2oXHRyDD9RW2NUmNRe72iQiIiKiaIIPTuCB1S6IiIiIiIiIqNUx+EBERERERERErYrBByIiIiIiIiJqVQw+EBEREREREVGrYvCBiIiIiIiIiFoVgw9EcWDS2mdx5LBr2H4b0u0yZK/R89Zl22mHe376bdjh3l4G9z6IiIiIiIjaEYMPRO1qAOZvfxYrRh3CiuHXI0OGmcWoT8zFw80IHtQXzzL7GL4SB5u5DyIiIiIiolhj8IGoPWXnYWaiBA22YLedhcr78YPieiBxNMY3O3JQhjtWHlL7yEV+cMYEERERERFRG2Pwgagdpadcrf/WnarSfx2Vp06r/yciqb+ZbpaTdahXf5JSBphpIiIiIiKidsLgAxERERERERG1KgYfiNqRyXBonJ1gMiLqUXfSTDdL/yQkqj/BWRVERERERERtjcEHovZUWo6D6k9ibh4mmTm654p7chOBgz/Hxko7r8kmYN3ykdKYBIpK7SwiIiIiIqJ2wuADUbsqwx3SMwVGYoXTRea2XJ2xgKSUJvdUkZj7kO1qczlGHVyJjOn3o9nxCyIiIiIiohhJ6J8+o8GOUxz48PxhO+Z3Re/edoy6kklrpQvOemybeUsLMiBCO326AT16ptkpoujdPm8aiovX2KlAr73+uh3zk++wJ/eWIS39Rr7niIiIiDoJ+U04KzcLnxuWYef4bbjvxxg8eDC6deuG7t2764GZD0RxanfB9cgY3jqBByIiIiIiotbU0BCY58DgAxERERERERG1Kla7iDOsdkFtJTd3kR0jajpWuyAiIiLq2iJVuxg0aJCvyoUMDD7EGQYfiKgjY/CBiIiIqGtoavCB1S6IiIiIiIiIqFUx8yHOMPOB2or0dkHUHMuWLWa1CyIiIqIuLm6rXXz845dgYHo/9O17Of7yylsYm/VZfH5YKl597S0c+vWL2PbwU3q9Xr0+jjfeeEePd0UMPlBbYVeb1FzsapOIiIiI4qraxcc+dhEG/XM/rFz+dfzq4e/j39XfOXk3Ii3tKlx4YXdcdNEF6HtVbz04fvHQd9WJ5mFE5j+jW7cEO5eIiIiIiIiIOqpWCT5ccsmFuGX6CPzkx9/EV78yHFf16dWkQEJaah8svfMmbFg3W2dHMAhBRERERERE1HHFPPhwxRU98P3vTdHpF4mfudLObZ7+/fvgB4tzMGvGGCQw/kBERERERETUIcU0+NCjxz9h1V0zkPmFgXZOaA1RtjRxySUXYfpNI7Do+9N0NQ4ialsJUxei5kQxiqbaGTGSMHg69qn97itItHOIiIiIiKizilnw4dprUjA9JxMXXniBnRNbo0cOxtI7p+OCC5p/yp/+VE/cOO4afGnUEB0oCZaYeCW+Ovk6PUz+cgbG3fA53fbEgLSrcOmlF9u1/GQf3/j6KH3dDIxQR+UEASTA4BvKpmOoXd6enMBHzeZMO8fwzdfDGtw52C4gIiIiIqK4FJPgw9AhVyPz+oGoO/0X9L78E3ZuOM3rYEMCHPNvm2SnojdkcKJuf+LBn83HgvlfxqLvT0Xxzxdisfrbs+eldi3gpqnX6wYxZfh2/gR89/av6LYn1q+bje2/XKQbwvzS6CF2behtv/H10bhl+hfxT//UODhBHUz6bdhx+FkcaTQ8gvnpdp0mmLRWbbv9Nnhu6nWsUOu2kdqtS5E6MBdpAzejPGkySmwAoqFkvZ6fX2LWaytDC9agetUwO+UnwZK9458z55qzC7Xog7x18REsISIiIiIiby0OPnz80ktw/RfS8fzzp3DbnIno3j26XTZEW+8iiGQjyBCtpKRPYvmyW5A+oC9effUtVPzmBH6nzvX99/+B0aOGYN3qf9XdgIqLL75Q/337nXf1ejIc/d1J1Na9grfe+ptuCHPRHVPxrdnj9HrUyVTej5zh1yNj+Cxsq1fT9cWYoadvwcZKs0qs1RfPUvuXY6hh+v1opcM0SQMqMGfJUfXhmYz5U/1ZBlLtwmRJrMGdBa7MA1dWQnAWhVOlIgGJuLPMPz+gCkfKNP82dl+y/qSxfVC+ZDPK9Ry/huPbMW5uhZk4fga1ZoyIiIiIiOJYi4IP0ghkSsqn8Ps/1OK7CyZ7Vj145S9volu3mCRY+Mya8SX0+MTH7FRo0kvG7bdNwqWXXoLDz1XhttsLcdc927Fs+S+w9N8ext///j769Lkc44OCGbW1r+j1ZPjhiv/Cd24vwrfnPYCnnj6ml0/+8nVqu156nLqQoGyFHfMG2AUDMH+7f/66bDO9YpRalJiLh/U8s2ZE+hiPYP68Nb79HVk7wS4MPI4edLZEqPktUGUK9cmpXu0x9EHe2DOYOjAXU7eeBcZM0dUedEbCjsmoXZLry0rA7Lt1oGFIwTzkJR3FYjU/OIsiOfkMvhe0rwbU494JuZgTKdticF8kqz+1+w/jBTOHiIiIiIjiUIuiApLlINUN7lyU41ntYPeeo/jgg/Po8+nYFtQvv/wT+PKkDDsV2vDrBmDgwH46yLBu/X/jb3973y4BqmvO4qf/sVuPj836LC68sLseD+Wtt/6u9yGBFrnuGV8fbZdQlyBBgW25qFtpsxRmFgO5D+mgQvq8H2Fm4iGssBkMd5RWYeP067HioNrOZk/cUWp2EyxR7cMJGPgDFImYObpObzejuB4Ydaup9pGd5z+OOn69+m/bsvtRGWq+2VmrcAr7x2peVv/vgxSJwwwwgYCsVSaLoXrHZD0tAQyz3jCsDs56UDz3FYUEZKJQjlG3C99bK6kqREREREQULxISEnyDaFHw4dpr+uuqFpfY6gpupWVH8de//h033zTCzomtaVO+EDH7IePzqfrvgadewDvvvKfH3Q4frsSHH36Efn1747NDk+zc0GTdqmopIKly1oCrcEGUVUyoE+ifBMkBGLXcZhZsy9XTSaqkXHnqtBobiRUBAYTouKtduAMU9U8/qYMHZt+JSOqvZ/vZ82kk1PymsoGE2pqmF+rLbeaDM4xbW6/bjUgbuBRb6kxwoqU9XEi1jMVlc5GFo1g8YTuzHoiIiIiI4lyzS8/y9P/WmVm44ooedo7frv89gr/+9V3dC8QFFzTOKHjrr39HtxYW3CXT4vowXXpK+w19r+qtx6WNBy/vf3Aep+v/onvo6HvV5XZueO/8zQQxLujePer2LajzOOhkPtghZ1MVULpIjZt2IiQ44a+OEWMn61BvgxxHlo9EffEPTVsUoeY3k84okIYe63ZhY1MambRVNbLGB/ZMIYYWLMTiwfVYPcG04ZCc0s8saAYTeLjbVuNYjx12PhERERERxa9ml56vUoX1q2zh3u3J8j/g/fc+wNdu/qJn4OHRx57BRaqwf+3nUuyc5vv8sP66XQcvV17RAwPT++Kjjxrw8tlzdm5jf/rTSzj75zd0VY5oXGiv6fyHH+pMCOoidAEfGDXGaX/BL33eGsxPl6oWKyE1LRKvdr23E5Ng8m9aLn3caCT6GsG0gY8w831tVPjajAgvefbdprrEibnIOrAZqU3MKJCGIMdLQ5Vj5voalnS6wTy29jmk7LD7lmwFp8HIEJwGKs36it2nrrIxdRrydKKSqcbhPg4REREREcWnZgcfpNvL4HYS9j75e5w79w6mTvmCneP3j3+cR8l//wZvv/0uvn7LyJhkDQxM7xeya89LL71YZzRIzxVvvvU3O7exB372BL79nc0o/sVTdk54n/rkZfrv2bNv4DyDD12H9ISx8pCkNvgbdbRdcFZuKkfSNplejlE4hBUFZXqT3QfU+hGqY7jbfIjUSKSugmEbsHS2kf2Gmh8t3XuEq5qEHlzBAXdXm866UpUieJl72j8swr3H1XxUIN83z2QrhNuX0+Bk4L7sskbHkMEch4iIiIiI4lOzIwD/EtRGgvQE8dprf9VtPARnPEj2gVTFOFF5Bt/817G45JLAXjFCVYuIpHfvT+ByNXj5xCf+Sf99770PdLeaoUj2wj/+EV0Wg3S1+flh5jn2rv95Tv+lzsg0GNmo60tdvcJf5cLfBWcZ7vDNWwTTjKniWr9Rg5O+bj1dgxzPzvdlL9h93FE6APNvHSn1Puz6tprHrWuwznP+bUh3jmGDIURERERERO2l2cGHK680GQCibO/v8Pq5t/H/viZ9CwZqaGjAzx7ci7Nnz+GOhV/1tXQpzp//EGt+XIIn9j2vp4cOuVr/lWCFNBIp3VvOVYNkVITymX5X2LFATlsUH334UYuqR/zzwH4Yd8Pn8N3bv4Ifr/5XXT3j+d+fwm9/d9KuQdQWqrDx5+7Mi4cwM1F6tViEOzznt25vF0RERERERE2R0D99RoMdb5JtDy7QBfynDx3HuXNvY/KXr2tUlUKCCL969BBeffWvyPvmDbj00kvsEmNzURn+d/cRNKgz+JfPJmHZkul6nSNHa/Cjux/B+fMmaHDBBd2wbs03deZBsIeKy/HI9mfslJ/0hpH3zXE48/Lr+PZ3HogqALFkUQ5GfnEQ/vhCHe5cWqznTbzxWsz/ziQ9LsoP/BFFW/bir2+/i8TEK/HApm/rrjznfGczXn/9bbtW8314/rAd87uid+O2NYha6vTpBvTomWaniKJ3+7xpKC5eY6cCvfb663bMT77Dntxbpr+viYiIiKjzmJWbhc8Ny7BTfhvu+zEGDx6M7rqjhu7o1q1b84MPv3r4Dvz2aA1e+ctbug2HYFLY377jGVTXnEXBHVMDuuOUahDbHj6Akv82BW0JPCz/4dd860j7C798ROrL+3118nWYk3ejnfL7xS+fVoM08xcoZ+r1mH3rDXjpjAQfNutASCRewYdPXnkZfrzmX9WP5x548KH92FnyrG9fDD5QR5abu8iOETVdc4IPRERERNT5tHrwYc63blSF8I8w9auNG5eUwIM84Trz8jksumOq7vbSIcuKtjyB/9n9Wz096J/74d+X/z/ddabjP7eV614x3P51ZpZuTyLYlgf3Yefjv7FTflO/Ohzfmj3eM/NBeuK47vOBT3x//8c63d1mcPBByDV8afQQ/PqZF3Hv2p0MPhARhRAq+EBEREREnZPX7z+v4EOz23yQKhZS1SKYtPFQtHUv/vKXt7Bg3pcDAg/i/gf2YPeeo3o8JflT+LeltwQEHsQllwRu8+lP98KXsz9vpwJJN5le/vrXd/Xf7uoig6uDXNXncgwc2C9gkMBDKM88e0L/HXZtKj79qV56nIiIiIiIiIii0+zgQ/+UTzcq1EuvET/bug/nXn8bt8/7Mnr0MD1OiA8+OK+rWux54nc6cyB9wFW4a+U3AtYR0h2nVOe4b82t+P53v4ofLM7ButX/6gtQ/OZwJR78zyd9g/Sg4eXcG+/ovxL8CA6ASLbErd/aqIdQ27v96cT/6S47P/axi/C5zyXbuUREREREREQUjWYHH/504iU7ZkjPFf/1q4M4Xf8qvjM3OyCb4R//OK/bf9hR8qyeHjI4Ed//3hT07HmpnhYSkKh49gSeqfgT5s6ZqLMRssZ8Fl8cMQi9en1cZ1Q8+5tKPHekGjdk/Yse0lKv0l1pevnrX/+u/37iEx9DDzW4SWORr7zyph6kykQk5869g+PH6/X4tZ9L0X+JiIiIiIiIKDrNbvNB2mpYfc8snf0g7Sn8/KH9qKp+GSv/7es6Q8BNMhSkcUlZL+nqT+JHK/4fevf+hF1qVPzmBIp+ttfXuGMwCUwceuZFLJz/FV8mg7T1IFkMXj79qZ7YcF+eDj7c/t0tqDl51i4JJNkX116TgkO/flFPe7X5ID5/bX/8uzpv6dmjYMlDOHv2Dbb5QEQUhG0+ELUv6XaZiFpHxvDr7ZjBzxuRkZw6wI75xbTNBwk01Na9orMa7tuwC/X1r+KHS28OCDxINYyHig/ojAcJPEhVi7X3zmoUeNh/4I/YvqNCneBsz8DD4eeq8Ic/1gYEHsSR31bbscZee/1tVFaZKhUSKAmlW7cEOxbe735/Cn/723u4/PJPIPMLA+1cIiIiIiIiIoqk2cGH8+c/wlNPH0Pxfz2NN9/8Gxbe/hV84uP+6g1SDWPX/z6nAw8NDcDgQZ/RVS0uvfQSu4ZpnFJ6kNhf/kcsvfMmXHaZvxqGQ6paSPBh9q3jAgIPEvwIrvrhJseXdcQ1YapKSGZENKRayO//UKvHh13bX/8lIiIiIiIiosiaHXwQu/73CP6gCuSLvz9VZwS4le19Hr/45dM6CJDav49ugLLvVYGpt8eO12PH47/B/O9M8sx4kODC0edP6m42L7roAjvXBAJ+9egh3YhlOBK4EMOvG6CrewT75JWXIfEzV9ipyI4+f0r/HTrkalx4YXc9TkRERERERETeJOlAtCj4IIEFqWbh7rFCAgOPPvYMHigqw3vv/QN9+/bG3T/6Bj7Tz1/Il4NLNsPmwjKs+OHX0OfTjbuvfPFP/4f/2X0Eed8c16hHjKqqMzjy2xo7FdrJU3/WARIh7UxI9Qt9vp/4GDI+n4p1a27V9U/knKPx7G9O6EYqpZ2L611VLyQwMm9uNpYsyvEciIiIiIiIiLqyFgUfxAvHTuvqF1KAl3Yddu/5rc54kOmB6X1xz79/I6A6hgQepJqFBBb+fcXXcVlQYEFIV5vlT72gsyUuCeomUwr/a+57XB8rGnIuv3v+pG5nQhrIlAYiH/iPuVi+7Gu6Rw4Jkrz11t/s2uG99dbfdVBETJo4DN0STHsRF1zQXWdXSGOVXgMRERERERFRV9bi4INkUNxfuEdnGTx98Bh+tnWvbmjy6sQrdTsQV155mV3TkK4yn1LrSXecXlUtpF2F3zxXpTMeggMPovgXT+HPf37DTkX29tvv4kf3bNfbSeDgIrVPydj4zXOVuGvVdl/gREg1D+n1QgIqoRx46gW9zll1DhJIkfFIAxERERFRs+2Zg4SEBMzZEzQeTC8bgQ2RE4QDhdsnUbzj56PDaHHwQbzzznu4655H8ZOf/o8q2H+ET3+6l65OkfiZK+0aJuNBCvXS+4UEJbyqWkgAQ7Iibp2Z1SjwIAGNTZtLdUZEU73//j/wy0cOYfEPtuHrM9Zh5jc3qPPdjud/fwrv/O095N66HqvW7MDjuw7rv7/45UG7ZWO//d1Jvc56da2n61/V45EGIiIiIoqRmg0YoQoCUhjwDR2iVFCDDSPkfOcg8Gz3YE4bX8OeOep4IzaoMyLyVrNhhOfnq6XvndDbd9HPhw1sNAqKhPue68DBkJgEH8Srr/1VV4X41Kd6Ys09M/Vft98crsJDxeVYdXeuZ8bD8Rfr8djOCnzntuyAHjGE7Pee1Y9hT9lRO4eIiIiIurLM9dX64Vb1+kygKBsjmvw4s62lYtLN6lxRhMfdhYY9j6s5QP6UiWY6komF+roLo1w9Kq2xT+q4VOE2bWEF8ksbzGds0ONNzxZosq75+djzuLq6/HzkowKP7m58kzve91x4MQs+OP7+9/d1Gwtu0p3mnid+h+9/d4pnGw+SESG9YyyY/5VGGQ9/+GMdvlfwoG6gUt13IiIiIiKf1Ek3Q4oshnlKOmeOeTLo+6Ee9BTR/wPePlV1Budpp15/BDZscJ5KqsH3mLGpx/BzzrXIVbrShQ9V9DBlqxDn4xb01NP9hHrO42ae4bUv83Q5Ww5ZsRBpso3sJ/hJqu9prBkCrzHUfaHOoqbqmB0zUhcUYkFqiPdOyPds8OdkT4jt/bre52MPdOxhSiGm5KtDPrq78fVYgd9zHVfMgw/SxsL6jf+LFT/6FaqqX9btLEiPE7fPm6SrYwSrrX1FBybuWPhVX+BBojvSsOR//eog/m3lf6G65qyeT0RERETkVrP7UVSov0MGpJoZSpH6QV+qfk8+s0DNkwJB2kIMsU9xG6rXAwvTTEGiJg0FMk+GUvn1vxBrfWWFCix8dBCq1TLnqaO7HBH1MdxSF2CZOowqXalihzCFD1X6gC5bhT0fD+q4sxZW2Kej1Rh0THZmee4rFQueaYBMqo30tTV6mivXokpf7ieuFQHXEnxf7mqDp+LUllIXLFPFfXnLSwHaqQ4Q4r0T4T3r/5xMjPze62qfD53VkYlBacBEE32AR/KD5vU91xHFPPjgkIYlC+78T/zghw9jyuTh6HnZpXaJnzQcuX1HBebfNsnOAepO/wWFP3sC31lQhIf/62nd1gMRERERkZv84Jcni5IeLgUBdyEhc32BKayI6hf1j3ZTkFJD2kI9faxK/cpPrcZa5wmlftwZKPPmSarIpVazTx31NlbUxwiiCxlOarktfKwvsHuKcD7BTIEkEzdP0meJBbrkZjVxX47AfYa4due+DBii/l+BF6v1bOo0JqLQKTyr13dhmncmjxbpM+T+nEShs34+dDsSzvFspEJndWTeDL2rtEFqP42rXoT7nuuIWi34ICRw8MEH53WvEjf/v7VY+m+/wKb7d6Pkv3+DJ/f/AXfd+5huG+LB/3wSK+96BF/7xo9x2/xCnSkh1TeIiIiIiLw4Tx5l0NkHETj1193b7JmTrQo3+frJrH762UJex2hk4hTzVPnxDdhwl6vwocTyfGJ9bdT1pC54Rr2PS/X7tSJEhCnm77NO+vmYWKiOI8eSQSIINRsglycZF1K9wwlYVixca7M+jKZ+z8W7Vg0+uL333j907xKlZb/Dz7buw30bduHUqT/jke2/xu49R3WbDn99+127NhG1tiOHn+3wQ2vwOk5HGYiIyIN+oiiFGfdP+saC67kLpw52xJTnKI9hTNT1u1G0EAvVTp2npMG8zieY82TVPC2tMYU1D577qngRXsXJ4GyG4Ce91PlJOwm+agQ1VZB3T6bUDXCEeO9E857VQmxvdI3Ph7Pd+mp/UMJkmgQ1uNnJtFnwgYiIiIiozaUuwDPyZLMo25/2bOuxTyxYr37+FyFb0pofVQUdu4kjE4/qp5KS8oz80tApz2GO4cWklovAQkuk82lkYqGun25Ss9Pw4s2yvV0UZl9Oarssa9QuhdqnFIKcKiSm14Nn0AkeulKUpM0H9eYw72N5Iq/e+85T9+D3TlPfs2Hfe1bn/3zUYPejOrLiy+oQXg1udjYJ/dNnsA+JOPLh+cN2zO+K3r3tGFHsdIYn5RnDr7djsdOR70tr3I+meu311+2YH7/DiNoOs6BiRBqVU4UurK/uFKnOFBvB/87y80ZkJKcOsGN+G+77MQYPHozu3bujW7du5q9dRkRERERERETUKhh8ICIiIiJyk2oUnaSBNyKieBHz4EO3bgn45Ccvw8c+dpGdE1uy7wFpV9mp6E2aOMyOeevV6+P676WXXqzP/YILuqPHJz6m53mR9TOvH2ingC+O+GcMTO9rp4iIiIiIiIi6NmlM0xHz4MN3vp2NjGGp+MLwdHTvHrvd/7+vjcJFF12At99+F39+5U07N7wR1w9E78s/ocf79/80EhL0qKcbsj6Lyy//OHKmXo/xN3wOyUmfxNChSXZpYx+75CJ8pp+pxywBl6SrP4krruihp4m6lD1zTINEYRrWahKpZ6v2F7I/6Y5K36cY3SMiIiIiog4mpsEHyUj44B/nddeZB556QUc5vn7LSNw6ayyyvjQUn7+2P/K+OQ7fmZuNcaqA/+Xsz2N6TibuLJimCvufwj8P7Icpk4fjlulfxMcvvQRz50zQ21+XkaYzC0aNHIzExCsxdMjV+MqXM/Sy+bdN0pkKsp3M+8HiHPTqeamelzXmsxib9VlcfNEF6HtVb9z27WyM+uIgXHzxhbhJHVe2793bBCdeOvM6Uvv3wUcfNeDCC7ujz6d74aWXXtMZEzP+32h9HNnuW7PH6QCF4/PDUvHt/Al6W6IOyxb4TRDBDqGaIA5guy3KXI/qhk7YErZHIES6n2rNIMKeOerej9igu3YjIiIiIuosYhp8kMyE8+c/tFNSRaIn+vXtjZ8/tB/Dru2PSz52EU6d+jN2l/5WByIuu+yfcOS3NfjN4SpkXp+uC/nvv/8PXNbjnzDyi4Pw2mt/xS8fOYTnjlTjlVfexKFfv2j3DF0l4kTlGdT/36u4oncPnbXw6qtvobbuL3jjzb/h3Xc/QM3Js3jq4DG8/8F5nHn5dezYWaGDBRLkSPzMFXjvvQ9wdeKVen/VNWeRkvwp/EXtQwpevdT+zr3xjg50PLL916iqfhmf+5dkfEIdd0eJv2VbOe+tD+5T279s5xB1XJnrq/39DBdlh+wCya8aL5qOzz37YCYiIiIiIhIx7WpTqlksWZSDw89VoWfPS1F+4AXc8d2vYn/5H9G37+U4VfsKLrrwApw89WddjUICB888ewKJn7lSV2F47bW38eFHH6FWrffGm+9gxQ+/pgr+z+Dcubdx800j8NjOCpz/8CMdbEi6+kodEPj0p3riDy+cxoRx1+DV195C3em/4Pnf1+rzkUwICWY8uf8PWDj/K/jFrw7iG+q4Dz60H1+7eaSeX3f6FZw//xESElRZa/Nt+MmGXbg68ZO4/gvpWP7vv8SCeV/W+x89cjA2bPwfncVxn1rnyit6YOKEa3WgQwIhAwb0xb4nf49fP/MnfezmYleb1FYCuocK6lJMnu6bSZvNYJdLnEFIkOKZBcCGEWmQrs+NfJQ2TMHjCdlqNB9FRUV2PbUDz+31jgP2kV/agMI0ey5qH2onZpv8UjR4dK7e6l1tBt0XM8t1byDLH8XN64dg4cIivdx9rmZdc3H5+p4cs/d0D+ao+2S3MJkjz0zC7oD7ae+H7Crk/QvErjaJiIiIqK15/f5zutp0utmMeVebH374EdasK8Hb77yLp54+htfPvY0f3fMozr3xts5g+NOJl3DseD1efe2vKPnv3+CQKqj/5S9v4cU//Z8ef2Lf8zrD4YILuuHcuXewfOUvdXbCmTOvY70q+F9yyUV4+eVzOFH5kl6/5uSf8dvfndQZDw3qPwk6DM8YgEH/3E+fzxN7n8c777yHCy+8AP+z+wjefPNvvr8SyJDGJaWahZB2MAqLnkDd6Vfx3G+rdbaDzNus5r311t+waXOpDjTI9uK11/+qAw3/q6YrK8/ggaIyvHDstF5G1FFVLEzTmT++wrUr8DBEFYQlK6Khej2g1puzJxULnilFvmwoBe6GQjjhgSJVqi5V67oDD423l0WzVGFbghZmmTu+UHFsEB5S80wWxl1x3FZCBRY+OgjVvnO1GSPqumctrNCBgoaGagw65gs1qGVpKLDX3FCq7mDFQqzV97MBMqmDEc79CHP/iIiIiIg6ipg3OPnBB+d1NQoJMAip/iBBgX/840O8/vrbulrD3//+vqkyUf+qHpfqFTIupABfWWWqMEhh/+jvTuKvb7+Lt976ux6XBidlP7L+G2+8g7Nn39DHePY3lejXr7cORsi+hZxLxbMndPaDVKtw/go55h/+WOcLPgjZVs5H9n/8xf/T82Sb3z1/Sq8vnO1VGUBncshf2U7OQ86RqCPTBWVVuM2UAvVaW7qtflE/cS/Ktm1B2Cfwx6pCRwMy1xf4AhHhtk8dMESWIFvNDy5MZ948SVflMOtU4MVqPTsu+c510s3q3plrq9n9qDrrTNw8SS/BgmU6TGOkVmOt3AsZsl1BCS/NuP9ERERERPEm5sGH9iIZFZKJ8NujNQEBBSJqotQF0OXkosfhjgdIFQD95N0OXmn/4XhuP7FQjVfDJAx0wh4uQtgzR6pc2IwPneoQWUvvPxERERFRe+o0wQciip2JU3T0AY9L9CFtkH6aX6QnmiHM9jUb5mBDjb/6RkW8pTekDoDOu3h0t+19oga7H62QVAfohAbLWW6yHaT9zVRfxsaju/US0yuIh5qqY3bMpeJF+O5ES+8/EREREVEbk4xd91/B4AMRNTZxig4G6AJv6gI8I0/ni7JN2r8emtDVZJjtUxdMwYtpMm0zATwalWxfE1HYUIr8ioVI0+ctDUKq83xmQUDvHpl4VC/XjUvml5q2GiYW6vYbTDsaaXjxZqnOYkwskHFT3STtUdnezwn8+KqitPT+ExERERG1McnUdfh+w1573bca3nrrXTub2ht7u6C2EtCrQwfV6r1dRGIbg3T3htGe2NsFEREREbW14N9/PS+7DPfc9e9IT0/39XYhf7v169vLrkJERERERERE1Hz9+vXDJZdcoscl48GRcNu8VQ1P7DtuJ6m9eWU+EBEREREREXUEE28cj5m5M/CpT31KZz1IAEJnP4wb+8+48opP2NWIiIiIiIiIiJruyiuvxPhxN6BHjx466CBtPzjZD92uuqoPvvqVf9ETRERERERERETNMfWrk9GnT59G1S7kb7fLL78c12WkYfa/jsAVvT+uFxARERERERERRUMyHr41+5vI+PwwSIxBgg3uQSTU1NQ0fPjhhzh37hzOnv0z9u3/E1468wbOvPwm2AtG22ObD0RERERERBTvpFeLvn374jP9+uqqFpLxIIEHad/B18OFHXQQ4tSpUzr48NFHH+G9997DW2+9hXfffVcP58+f1zt199EZD1r7fOLheuXeX3DBBXaqaeLt9Yo3Hf3+8PUlaj38fFFLOE92iLoivv/D4/0Jr6Pfn9Y+/3i7P3I+Mlx44YW6esU//dM/6TYeLr744sCuNW3QwWl0MqG2ttYXfJBBOOPu6aZo7R9vXaHw+MEHH+Ciiy6yU03D+x8ez59agve/ffH+U1cWbz8+KbY6+uvL92d4fH3Dk0Iqhdba97+p+3deLyfA4AQZZPDKeDB/E/D/AVKq7MSzC7UvAAAAAElFTkSuQmCC;" vertex="1" parent="1">
          <mxGeometry x="140" y="202.81000000000003" width="665" height="430.52" as="geometry" />
        </mxCell>
        <mxCell id="06gPpPoA7qXJf8cMDLV6-28" value="" style="endArrow=classic;html=1;rounded=0;entryX=0.5;entryY=0;entryDx=0;entryDy=0;fillColor=#e51400;strokeColor=#B20000;exitX=0.121;exitY=0.936;exitDx=0;exitDy=0;exitPerimeter=0;" edge="1" parent="1" target="06gPpPoA7qXJf8cMDLV6-14">
          <mxGeometry width="50" height="50" relative="1" as="geometry">
            <mxPoint x="209.8209999999999" y="619.8127999999999" as="sourcePoint" />
            <mxPoint x="300" y="190" as="targetPoint" />
          </mxGeometry>
        </mxCell>
        <mxCell id="06gPpPoA7qXJf8cMDLV6-29" value="" style="endArrow=classic;html=1;rounded=0;entryX=0.5;entryY=0;entryDx=0;entryDy=0;fillColor=#e51400;strokeColor=#B20000;exitX=0.121;exitY=0.936;exitDx=0;exitDy=0;exitPerimeter=0;" edge="1" parent="1">
          <mxGeometry width="50" height="50" relative="1" as="geometry">
            <mxPoint x="426" y="630" as="sourcePoint" />
            <mxPoint x="426" y="680" as="targetPoint" />
          </mxGeometry>
        </mxCell>
        <mxCell id="06gPpPoA7qXJf8cMDLV6-30" value="" style="endArrow=classic;html=1;rounded=0;entryX=0.5;entryY=0;entryDx=0;entryDy=0;fillColor=#e51400;strokeColor=#B20000;exitX=0.792;exitY=0.628;exitDx=0;exitDy=0;exitPerimeter=0;" edge="1" parent="1">
          <mxGeometry width="50" height="50" relative="1" as="geometry">
            <mxPoint x="680.192" y="480.11940000000004" as="sourcePoint" />
            <mxPoint x="678" y="679" as="targetPoint" />
          </mxGeometry>
        </mxCell>
        <mxCell id="06gPpPoA7qXJf8cMDLV6-19" value="" style="endArrow=classic;html=1;rounded=0;entryX=0.75;entryY=0.672;entryDx=0;entryDy=0;entryPerimeter=0;exitX=0.021;exitY=0.143;exitDx=0;exitDy=0;exitPerimeter=0;fillColor=#e51400;strokeColor=#B20000;" edge="1" parent="1" target="06gPpPoA7qXJf8cMDLV6-3">
          <mxGeometry width="50" height="50" relative="1" as="geometry">
            <mxPoint x="139.721" y="260.1476499999999" as="sourcePoint" />
            <mxPoint x="400" y="410" as="targetPoint" />
          </mxGeometry>
        </mxCell>
        <mxCell id="06gPpPoA7qXJf8cMDLV6-21" value="" style="endArrow=classic;html=1;rounded=0;entryX=0.75;entryY=0.672;entryDx=0;entryDy=0;entryPerimeter=0;exitX=0.021;exitY=0.143;exitDx=0;exitDy=0;exitPerimeter=0;fillColor=#e51400;strokeColor=#B20000;" edge="1" parent="1">
          <mxGeometry width="50" height="50" relative="1" as="geometry">
            <mxPoint x="152" y="383" as="sourcePoint" />
            <mxPoint x="102" y="383" as="targetPoint" />
          </mxGeometry>
        </mxCell>
        <mxCell id="06gPpPoA7qXJf8cMDLV6-22" value="" style="endArrow=classic;html=1;rounded=0;entryX=0.75;entryY=0.672;entryDx=0;entryDy=0;entryPerimeter=0;exitX=0.021;exitY=0.143;exitDx=0;exitDy=0;exitPerimeter=0;fillColor=#e51400;strokeColor=#B20000;" edge="1" parent="1">
          <mxGeometry width="50" height="50" relative="1" as="geometry">
            <mxPoint x="143" y="423" as="sourcePoint" />
            <mxPoint x="93" y="423" as="targetPoint" />
          </mxGeometry>
        </mxCell>
        <mxCell id="06gPpPoA7qXJf8cMDLV6-23" value="" style="endArrow=classic;html=1;rounded=0;entryX=0.75;entryY=0.672;entryDx=0;entryDy=0;entryPerimeter=0;exitX=0.021;exitY=0.143;exitDx=0;exitDy=0;exitPerimeter=0;fillColor=#e51400;strokeColor=#B20000;" edge="1" parent="1">
          <mxGeometry width="50" height="50" relative="1" as="geometry">
            <mxPoint x="145" y="475" as="sourcePoint" />
            <mxPoint x="95" y="475" as="targetPoint" />
          </mxGeometry>
        </mxCell>
        <mxCell id="06gPpPoA7qXJf8cMDLV6-25" value="" style="endArrow=classic;html=1;rounded=0;entryX=0.5;entryY=1;entryDx=0;entryDy=0;exitX=0.207;exitY=0.121;exitDx=0;exitDy=0;exitPerimeter=0;fillColor=#e51400;strokeColor=#B20000;" edge="1" parent="1" target="06gPpPoA7qXJf8cMDLV6-13">
          <mxGeometry width="50" height="50" relative="1" as="geometry">
            <mxPoint x="270.10699999999997" y="250.16954999999996" as="sourcePoint" />
            <mxPoint x="450" y="360" as="targetPoint" />
          </mxGeometry>
        </mxCell>
        <mxCell id="06gPpPoA7qXJf8cMDLV6-26" value="" style="endArrow=classic;html=1;rounded=0;entryX=0.5;entryY=1;entryDx=0;entryDy=0;exitX=0.207;exitY=0.121;exitDx=0;exitDy=0;exitPerimeter=0;fillColor=#e51400;strokeColor=#B20000;" edge="1" parent="1">
          <mxGeometry width="50" height="50" relative="1" as="geometry">
            <mxPoint x="493" y="260" as="sourcePoint" />
            <mxPoint x="493" y="170" as="targetPoint" />
          </mxGeometry>
        </mxCell>
        <mxCell id="06gPpPoA7qXJf8cMDLV6-27" value="" style="endArrow=classic;html=1;rounded=0;entryX=0.5;entryY=1;entryDx=0;entryDy=0;exitX=0.207;exitY=0.121;exitDx=0;exitDy=0;exitPerimeter=0;fillColor=#e51400;strokeColor=#B20000;" edge="1" parent="1">
          <mxGeometry width="50" height="50" relative="1" as="geometry">
            <mxPoint x="706" y="270" as="sourcePoint" />
            <mxPoint x="706" y="180" as="targetPoint" />
          </mxGeometry>
        </mxCell>
      </root>
    </mxGraphModel>
  </diagram>
</mxfile>
